<?xml version="1.0" encoding="UTF-8"?>
<svg version="1.1" xmlns="http://www.w3.org/2000/svg" width="512" height="512">
<path d="M0 0 C3 0.25 3 0.25 5 2.25 C5.22819328 4.57536507 5.22819328 4.57536507 5.19772339 7.54592896 C5.18845573 9.23185654 5.18845573 9.23185654 5.17900085 10.95184326 C5.1623085 12.19121643 5.14561615 13.4305896 5.12841797 14.70751953 C5.11424785 16.70498847 5.10009774 18.70245764 5.08669209 20.69993186 C5.07088057 22.85301327 5.05065395 25.00602268 5.02987289 27.15906143 C4.98883078 31.65827139 4.97357807 36.15733251 4.96463013 40.65670776 C4.96301467 41.41689654 4.96139921 42.17708531 4.9597348 42.9603101 C4.95649706 44.51546337 4.95332737 46.07061679 4.95022416 47.62577033 C4.92844802 58.10010201 4.89096423 68.57358322 4.77734375 79.04736328 C4.70091014 86.1109884 4.66787254 93.17340296 4.68324578 100.23744285 C4.68967995 103.97038822 4.67504202 107.70040967 4.60717392 111.43280411 C4.10140849 133.20887461 4.10140849 133.20887461 15.04910278 151.36618042 C15.55692417 151.85716091 16.06474556 152.3481414 16.58795547 152.85400009 C18.55549839 154.79918644 20.17316614 156.96420762 21.8125 159.1875 C22.8738712 160.54255158 23.93634714 161.89673868 25 163.25 C29.89855776 169.51408493 34.71019528 175.83427281 39.4609375 182.2109375 C43.2436161 187.27452313 47.10790795 192.2701617 51 197.25 C55.89686785 203.51542481 60.71016758 209.83423562 65.4609375 216.2109375 C69.2436161 221.27452313 73.10790795 226.2701617 77 231.25 C81.89686785 237.51542481 86.71016758 243.83423562 91.4609375 250.2109375 C95.7529849 255.95637661 100.14645501 261.61949969 104.578125 267.2578125 C105.66999075 268.65179645 106.74685685 270.05763509 107.80988884 271.47373009 C109.46726323 273.5746822 111.144757 275.51544324 112.94830513 277.48203468 C122.60671017 288.47336635 123.69778382 297.31578051 123.39404297 311.58740234 C123.39393195 313.68501881 123.39909853 315.78264108 123.40908813 317.88023376 C123.42098278 323.52714623 123.35911507 329.17102147 123.28259039 334.81733656 C123.21460616 340.73793719 123.21381225 346.65856773 123.20510864 352.57949829 C123.18126871 362.50372541 123.11384945 372.42683227 123.01513672 382.35058594 C122.87586027 396.36172953 122.81755311 410.3723767 122.77433562 424.38409877 C122.73779396 435.26395206 122.6789223 446.14370246 122.6171875 457.0234375 C122.60767319 458.77563009 122.60767319 458.77563009 122.59796667 460.5632205 C122.56041794 467.25996213 122.51177942 473.95644779 122.44573593 480.65297127 C122.42705045 482.68393844 122.41171935 484.71493953 122.39990997 486.74595833 C122.38307877 489.50777686 122.35392679 492.26918329 122.32125854 495.03085327 C122.31889879 495.84288566 122.31653904 496.65491805 122.31410778 497.49155748 C122.22859595 503.02140405 122.22859595 503.02140405 120 505.25 C117.27822756 505.44729345 114.65819373 505.51766072 111.93518829 505.50168228 C111.08760458 505.50458916 110.24002087 505.50749604 109.3667528 505.51049101 C106.49544888 505.51785344 103.62435451 505.5108188 100.75305176 505.50396729 C98.68622493 505.50626925 96.61939892 505.50944399 94.55257463 505.51342177 C88.84874405 505.52181469 83.1449799 505.51762422 77.441149 505.51144934 C71.29929786 505.50694413 65.15745856 505.51389896 59.01560974 505.51940918 C47.67099327 505.52780955 36.32640407 505.52705194 24.98178826 505.52158624 C14.5028356 505.51656218 4.02389075 505.51523843 -6.45506287 505.51763153 C-7.14919487 505.5177843 -7.84332688 505.51793707 -8.55849319 505.51809447 C-11.37594869 505.51871711 -14.19340418 505.51935391 -17.01085967 505.520014 C-43.45999322 505.52613691 -69.90911319 505.5205773 -96.35824465 505.5098202 C-119.87506752 505.50032845 -143.39186873 505.50117768 -166.90869141 505.51074219 C-193.3083487 505.52144318 -219.70799398 505.52570273 -246.10765314 505.51951766 C-248.92008114 505.51887619 -251.73250913 505.51825051 -254.54493713 505.51763153 C-255.23746768 505.51747338 -255.92999822 505.51731522 -256.64351454 505.51715227 C-267.11785067 505.51487391 -277.59217813 505.51754423 -288.06651306 505.52259064 C-299.97204726 505.52829785 -311.87755585 505.52671031 -323.78308904 505.51602915 C-329.86321553 505.51075499 -335.94329794 505.5087452 -342.02342415 505.51532745 C-347.58091677 505.52125314 -353.13832414 505.51806821 -358.69580895 505.50737235 C-360.71461307 505.50512387 -362.73342428 505.50630666 -364.75222391 505.51112393 C-367.47998355 505.5171375 -370.2074447 505.51103738 -372.93518829 505.50168228 C-373.73313964 505.50636461 -374.53109098 505.51104695 -375.35322267 505.51587117 C-380.77169926 505.47830074 -380.77169926 505.47830074 -383 503.25 C-383.2190971 500.81168375 -383.31312516 498.48386408 -383.32125854 496.04241943 C-383.336522 494.91536193 -383.336522 494.91536193 -383.35209382 493.76553559 C-383.38362161 491.23399744 -383.40061355 488.70257379 -383.41748047 486.17089844 C-383.43655233 484.36082223 -383.45633442 482.55075339 -383.47677612 480.74069214 C-383.53964924 474.78034159 -383.58011165 468.81993455 -383.6171875 462.859375 C-383.62378214 461.84466786 -383.63037679 460.82996073 -383.63717127 459.78450489 C-383.69877195 450.2087018 -383.75217705 440.63288616 -383.78600883 431.05694199 C-383.82974694 418.8207368 -383.91348784 406.5862956 -384.05288398 394.35079551 C-384.1476071 385.74255 -384.19590897 377.13477803 -384.21040261 368.52602792 C-384.22028572 363.38834422 -384.25014222 358.2526461 -384.3298912 353.11553192 C-384.40408369 348.27200552 -384.4203024 343.43157861 -384.39387894 338.58758926 C-384.39398612 336.81952839 -384.4142905 335.05132246 -384.4573822 333.28378677 C-384.68346216 323.47787404 -383.91983354 316.92803922 -377.19802856 309.4331665 C-375.65288894 307.82337348 -374.0797403 306.25658528 -372.47059464 304.71090364 C-370.26806969 302.522893 -368.36331843 300.11846333 -366.4375 297.6875 C-363.17221697 293.66641909 -359.85442156 289.69654838 -356.5 285.75 C-353.12716411 281.78096457 -349.78823355 277.78982979 -346.5 273.75 C-342.75212202 269.1454642 -338.93016556 264.60980809 -335.0859375 260.0859375 C-332.18755177 256.6694046 -329.328449 253.22495162 -326.5 249.75 C-322.75212202 245.1454642 -318.93016556 240.60980809 -315.0859375 236.0859375 C-312.18755177 232.6694046 -309.328449 229.22495162 -306.5 225.75 C-305.78199219 224.87730469 -305.06398438 224.00460938 -304.32421875 223.10546875 C-302.59302697 220.97857599 -300.89421372 218.83696247 -299.20703125 216.67578125 C-298.24266598 215.47097102 -297.27782906 214.26653815 -296.3125 213.0625 C-295.87292969 212.485 -295.43335938 211.9075 -294.98046875 211.3125 C-292.87630151 208.72324032 -291.56420672 207.35679574 -288.23852539 206.72729492 C-283.61302306 207.47386111 -281.65273847 209.83729449 -278.5078125 213.15625 C-277.91700897 213.75554321 -277.32620544 214.35483643 -276.71749878 214.97229004 C-274.83875535 216.88454745 -272.98197119 218.81661617 -271.125 220.75 C-269.8529569 222.05214488 -268.57953391 223.35294329 -267.3046875 224.65234375 C-264.18691369 227.83617539 -261.08866904 231.03793606 -258 234.25 C-254.39810723 233.04936908 -253.65694143 231.85185363 -251.375 228.875 C-250.66988281 227.96878906 -249.96476563 227.06257812 -249.23828125 226.12890625 C-248.49964844 225.17886719 -247.76101562 224.22882813 -247 223.25 C-245.5268138 221.43263578 -244.04761621 219.62012831 -242.5625 217.8125 C-241.81097656 216.89597656 -241.05945313 215.97945312 -240.28515625 215.03515625 C-239.53105469 214.11605469 -238.77695313 213.19695312 -238 212.25 C-236.49971683 210.41689838 -234.99971592 208.58356573 -233.5 206.75 C-232.7678125 205.85539063 -232.035625 204.96078125 -231.28125 204.0390625 C-229.67595764 202.07642767 -228.0717361 200.11295334 -226.46875 198.1484375 C-225.6540625 197.15070313 -224.839375 196.15296875 -224 195.125 C-223.2575 194.21492187 -222.515 193.30484375 -221.75 192.3671875 C-219.20948317 189.2936158 -219.20948317 189.2936158 -216.4296875 188.71484375 C-211.1266889 189.54230481 -208.67051191 192.97997046 -205.125 196.8125 C-203.77603594 198.23294096 -202.4244789 199.65092403 -201.0703125 201.06640625 C-200.18496826 202.01688843 -200.18496826 202.01688843 -199.28173828 202.98657227 C-197.34633011 204.90644913 -195.37454816 206.67468705 -193.31005859 208.45092773 C-188.64587118 212.49717313 -184.31022376 216.83148057 -179.96875 221.21875 C-178.71572083 222.47745911 -178.71572083 222.47745911 -177.43737793 223.76159668 C-173.89663871 227.3185452 -170.36192676 230.8814612 -166.82666016 234.44384766 C-164.2302794 237.05840164 -161.63083434 239.66988184 -159.03125 242.28125 C-158.24455933 243.07623901 -157.45786865 243.87122803 -156.64733887 244.69030762 C-152.52653852 248.82915173 -148.31884226 252.77495729 -143.8927002 256.5843811 C-140.82980293 259.27979983 -137.96472218 262.16167875 -135.09375 265.05859375 C-134.48358032 265.67017838 -133.87341064 266.281763 -133.24475098 266.91188049 C-131.32743835 268.83471802 -129.41366298 270.76103094 -127.5 272.6875 C-126.18773415 274.00479059 -124.87523605 275.32184986 -123.5625 276.63867188 C-120.37231494 279.8397861 -117.18529349 283.04401865 -114 286.25 C-111.48802592 283.81693434 -109.25205008 281.40169752 -107.22265625 278.5546875 C-106.46275391 277.49507813 -106.46275391 277.49507813 -105.6875 276.4140625 C-105.15125 275.65867187 -104.615 274.90328125 -104.0625 274.125 C-102.89723324 272.4973258 -101.73186587 270.86972362 -100.56640625 269.2421875 C-99.97359863 268.41170898 -99.38079102 267.58123047 -98.77001953 266.72558594 C-96.02764602 262.8900456 -93.26346538 259.07035641 -90.5 255.25 C-87.25841761 250.76409024 -84.01858006 246.27695114 -80.78515625 241.78515625 C-75.17096822 233.99084153 -69.52114617 226.225464 -63.8125 218.5 C-58.99713071 211.98277127 -54.24135527 205.42886685 -49.546875 198.82421875 C-44.96009787 192.37474489 -40.30666647 185.97292607 -35.66894531 179.56005859 C-34.03481701 177.29819171 -32.4036287 175.03423692 -30.7734375 172.76953125 C-24.37768989 163.8895171 -17.9307419 155.05064146 -11.40454102 146.26586914 C-10.56234009 145.12879517 -10.56234009 145.12879517 -9.703125 143.96875 C-8.95530762 142.96231445 -8.95530762 142.96231445 -8.19238281 141.93554688 C-6.18915178 139.10378867 -5.86165676 137.31758834 -5.79467773 133.89208984 C-5.77449585 132.9787085 -5.75431396 132.06532715 -5.73352051 131.12426758 C-5.71704468 130.16286865 -5.70056885 129.20146973 -5.68359375 128.2109375 C-5.65561707 126.88703003 -5.65561707 126.88703003 -5.6270752 125.53637695 C-5.55866735 122.23268852 -5.49858903 118.92883187 -5.4375 115.625 C-5.293125 108.24125 -5.14875 100.8575 -5 93.25 C-21.17 93.25 -37.34 93.25 -54 93.25 C-54 102.82 -54 112.39 -54 122.25 C-95.58 122.25 -137.16 122.25 -180 122.25 C-173.25 114.375 -173.25 114.375 -170.74853516 111.88500977 C-170.18840729 111.32495743 -169.62827942 110.76490509 -169.05117798 110.18788147 C-168.46967987 109.61154465 -167.88818176 109.03520782 -167.2890625 108.44140625 C-166.67606293 107.82982162 -166.06306335 107.218237 -165.43148804 106.58811951 C-163.49835436 104.66052441 -161.56175013 102.73646072 -159.625 100.8125 C-158.30315301 99.49567596 -156.98153628 98.17862074 -155.66015625 96.86132812 C-152.44275701 93.65487627 -149.22224319 90.45158371 -146 87.25 C-147.34477412 84.25102632 -148.82976836 82.17818053 -151.16455078 79.87426758 C-151.80506378 79.23713333 -152.44557678 78.59999908 -153.10549927 77.94355774 C-153.79513763 77.267379 -154.484776 76.59120026 -155.1953125 75.89453125 C-156.25647781 74.84116829 -156.25647781 74.84116829 -157.33908081 73.76652527 C-159.59635761 71.52704866 -161.86021534 69.29438163 -164.125 67.0625 C-166.39603159 64.81903529 -168.66560997 62.57414815 -170.93234253 60.32633972 C-172.34297831 58.92801683 -173.75627716 57.53237468 -175.1723938 56.13960266 C-175.80660248 55.5119249 -176.44081116 54.88424713 -177.09423828 54.23754883 C-177.65668243 53.6833577 -178.21912659 53.12916656 -178.7986145 52.55818176 C-180 51.25 -180 51.25 -180 50.25 C-147.33 50.25 -114.66 50.25 -81 50.25 C-81 40.35 -81 30.45 -81 20.25 C-55.92 20.25 -30.84 20.25 -5 20.25 C-5 14.31 -5 8.37 -5 2.25 C-3 0.25 -3 0.25 0 0 Z M-26.51171875 238.24609375 C-30.84547018 241.73622638 -34.93124971 245.45679908 -39 249.25 C-40.09025072 250.24967501 -41.18144281 251.24832406 -42.2734375 252.24609375 C-43.41170654 253.28879161 -44.54972983 254.33175781 -45.6875 255.375 C-46.20997314 255.85348389 -46.73244629 256.33196777 -47.27075195 256.82495117 C-50.0580156 259.39582189 -52.7599647 262.01822448 -55.40625 264.734375 C-65.49161222 274.87398203 -77.95723315 284.90736216 -92.5 285.75 C-97.76732111 286.32172933 -100.67470541 287.12760196 -104.10083008 291.31713867 C-105.76921564 293.63432216 -107.33401252 295.99900511 -108.84375 298.42236328 C-110.32995394 300.7715446 -111.94959663 303.00594331 -113.5859375 305.25195312 C-114.84300338 306.97941787 -116.07956469 308.72008807 -117.3125 310.46484375 C-120.28613108 314.66232374 -123.29797425 318.83183326 -126.3125 323 C-127.42448262 324.53775792 -128.53646176 326.07551836 -129.6484375 327.61328125 C-130.20370117 328.3810791 -130.75896484 329.14887695 -131.33105469 329.93994141 C-132.96518299 332.20180829 -134.5963713 334.46576308 -136.2265625 336.73046875 C-142.35497197 345.23992059 -148.53619498 353.70739685 -154.76708984 362.14208984 C-160.36432174 369.7266884 -165.88408627 377.3658833 -171.39111328 385.01611328 C-174.09012128 388.76359784 -176.79538884 392.50655845 -179.5 396.25 C-180.58336304 397.74997854 -181.66669638 399.24997854 -182.75 400.75 C-184.91666667 403.75 -187.08333333 406.75 -189.25 409.75 C-189.78616943 410.49241943 -190.32233887 411.23483887 -190.87475586 411.99975586 C-191.95878416 413.5006555 -193.04293142 415.00146922 -194.12719727 416.50219727 C-196.82587655 420.23773967 -199.52251312 423.97472254 -202.21484375 427.71484375 C-207.82903178 435.50915847 -213.47885383 443.274536 -219.1875 451 C-223.58266237 456.94851128 -227.9452732 462.9159906 -232.22314453 468.94946289 C-234.61436639 472.32016791 -237.0310328 475.67052466 -239.46875 479.0078125 C-240.06421631 479.82499756 -240.65968262 480.64218262 -241.27319336 481.48413086 C-242.44539532 483.09137024 -243.62058192 484.69643806 -244.79907227 486.29907227 C-245.33072998 487.02924561 -245.8623877 487.75941895 -246.41015625 488.51171875 C-247.12377319 489.48564575 -247.12377319 489.48564575 -247.85180664 490.47924805 C-249.17551377 492.35852919 -249.17551377 492.35852919 -250 495.25 C-130.54 495.25 -11.08 495.25 112 495.25 C112.2475 462.58 112.495 429.91 112.75 396.25 C112.85924805 385.95425781 112.96849609 375.65851563 113.08105469 365.05078125 C113.12120077 355.7796871 113.12120077 355.7796871 113.14532471 346.50854492 C113.15645568 342.39511621 113.20121557 338.28356678 113.26690674 334.1706543 C113.34984169 328.9075713 113.37378488 323.64718063 113.35686731 318.38350487 C113.36039909 316.46235208 113.38383685 314.54109545 113.43058157 312.62050819 C113.74983163 298.85274124 110.67988471 291.06005425 101.41136503 280.82431221 C99.54709437 278.74480478 97.86559966 276.54342132 96.1875 274.3125 C95.12614207 272.95743802 94.06366752 271.6032498 93 270.25 C88.03779829 263.90554446 83.16644873 257.5018843 78.35449219 251.04296875 C73.35579691 244.35100347 68.19269214 237.79197435 63 231.25 C60.41405687 233.58495453 58.91565089 236.01660469 57.25 239.0625 C51.80446876 248.20036706 44.97902408 251.83755444 35 255.25 C29.4049863 256.56798589 23.90772929 256.43404367 18.1875 256.4375 C16.60485352 256.45586914 16.60485352 256.45586914 14.99023438 256.47460938 C8.96163378 256.48587779 3.77191496 256.01151325 -2 254.25 C-3.18054657 248.34726716 -2.77461597 244.89611101 -0.63671875 239.3046875 C0.1760565 236.68186677 -0.08820563 234.81960232 -1 232.25 C-11.03694281 228.71848309 -18.25473164 232.0950878 -26.51171875 238.24609375 Z M-184.625 237.1875 C-188.49465472 239.552289 -190.46493524 240.25 -195 240.25 C-197.86211087 239.35298274 -200.62520573 238.28796671 -203.41796875 237.1953125 C-206.54485238 236.05052303 -208.71738338 235.54658215 -212 236.25 C-216.96160979 240.33896485 -219.45417894 245.38396883 -222.3125 251.0625 C-222.76689453 251.94615234 -223.22128906 252.82980469 -223.68945312 253.74023438 C-224.80157377 255.905943 -225.90473522 258.07573202 -227 260.25 C-232.38849575 260.60109179 -232.38849575 260.60109179 -235.0546875 259.0703125 C-240.26895632 254.21410506 -244.70257098 248.93037825 -249 243.25 C-252.715599 246.81936791 -255.93544992 250.59050403 -259.0625 254.6875 C-262.97452529 259.74403295 -267.0019258 264.66752811 -271.1875 269.5 C-275.25585001 274.19873068 -279.22191935 278.95209637 -283.078125 283.828125 C-286.66376736 288.34661741 -290.34123694 292.79068708 -294 297.25 C-295.50028317 299.08310162 -297.00028408 300.91643427 -298.5 302.75 C-316.5 324.75 -334.5 346.75 -352.5 368.75 C-353.23992187 369.65492188 -353.97984375 370.55984375 -354.7421875 371.4921875 C-356.26596888 373.35341528 -357.79206716 375.2127483 -359.3203125 377.0703125 C-360.08085937 377.99585938 -360.84140625 378.92140625 -361.625 379.875 C-362.63433594 381.10089844 -362.63433594 381.10089844 -363.6640625 382.3515625 C-364.82035156 383.78628906 -364.82035156 383.78628906 -366 385.25 C-366.57137223 385.87367682 -367.14274446 386.49735365 -367.73143101 387.13992977 C-372.76862166 392.94151629 -374.00402919 396.95617038 -373.79467773 404.54321289 C-373.79569992 405.52963776 -373.79672211 406.51606262 -373.79777527 407.53237915 C-373.79293338 410.76360294 -373.73865205 413.9919318 -373.68359375 417.22265625 C-373.6705255 419.47422238 -373.66056713 421.72580852 -373.65357971 423.97740173 C-373.62695124 429.88141582 -373.55827211 435.78420963 -373.48065186 441.68774414 C-373.40883098 447.720698 -373.3770279 453.75385053 -373.34179688 459.78710938 C-373.26689747 471.60860679 -373.1475455 483.42920162 -373 495.25 C-361.02211282 495.73906256 -349.04663858 496.11089352 -337.0607605 496.33805561 C-331.4929479 496.44716191 -325.93201479 496.59473862 -320.36816406 496.83422852 C-295.13346612 499.32470233 -295.13346612 499.32470233 -272.67578125 490.81591797 C-269.02677459 486.57563442 -266.52057655 482.07304572 -264.29077148 476.96322632 C-262.14300621 472.44858268 -259.0611064 468.67508072 -256 464.75 C-254.84972321 463.19076827 -253.70336173 461.6286337 -252.5625 460.0625 C-248.10455763 454.01243535 -243.52842342 448.0534191 -238.9609375 442.0859375 C-234.57935674 436.35097273 -230.26457042 430.57240437 -226 424.75 C-220.4133758 417.12259983 -214.70723662 409.59355435 -208.9609375 402.0859375 C-204.57935579 396.35097147 -200.26462136 390.57236825 -196 384.75 C-189.64393818 376.07351464 -183.13779594 367.51688928 -176.60546875 358.97265625 C-173.88400925 355.41264399 -171.18127105 351.84034961 -168.5 348.25 C-165.16002701 343.77761712 -161.779 339.33813991 -158.38867188 334.90380859 C-147.38324958 320.50513404 -136.62388902 305.93208265 -126 291.25 C-127.35058114 288.23611927 -128.85604775 286.1465323 -131.1953125 283.82421875 C-131.82953125 283.19193359 -132.46375 282.55964844 -133.1171875 281.90820312 C-133.77976563 281.25787109 -134.44234375 280.60753906 -135.125 279.9375 C-135.764375 279.29876953 -136.40375 278.66003906 -137.0625 278.00195312 C-140.21851524 274.8744561 -143.43006027 271.86830646 -146.79272461 268.96386719 C-150.80360102 265.46984763 -154.57398386 261.78917284 -158.30859375 258.00390625 C-158.96078384 257.34792953 -159.61297394 256.69195282 -160.28492737 256.01609802 C-162.33826707 253.95067831 -164.38828014 251.88200677 -166.4375 249.8125 C-169.16253191 247.06097166 -171.89080218 244.31271438 -174.62109375 241.56640625 C-175.24704941 240.93215225 -175.87300507 240.29789825 -176.51792908 239.64442444 C-177.99317155 238.16070304 -179.493921 236.70241026 -181 235.25 C-182.40967028 235.15102462 -182.40967028 235.15102462 -184.625 237.1875 Z M-330.15380859 268.76293945 C-332.25733501 271.50696526 -334.13042157 274.33913738 -336 277.25 C-337.47508294 279.10344043 -338.97443028 280.93788849 -340.5 282.75 C-341.5828125 284.0803125 -341.5828125 284.0803125 -342.6875 285.4375 C-345.26146621 288.56799944 -347.87580814 291.66162219 -350.5 294.75 C-355.40463925 300.52581888 -360.23853675 306.3552298 -365 312.25 C-365.67047363 312.81976563 -366.34094727 313.38953125 -367.03173828 313.9765625 C-372.19590579 318.95902994 -373.4827876 323.29417029 -373.75737 330.260849 C-373.79845949 335.47139117 -373.66754758 340.66758947 -373.5 345.875 C-373.45982342 348.04550728 -373.42333003 350.21608604 -373.390625 352.38671875 C-373.30296019 357.67605212 -373.16951988 362.96269028 -373 368.25 C-369.43198583 365.46392564 -366.61112262 362.75272468 -363.8125 359.1875 C-360.65893014 355.24946002 -357.42093872 351.45823373 -354 347.75 C-349.88621091 343.2801488 -346.02912703 338.65955107 -342.21484375 333.93359375 C-339.33519113 330.44449084 -336.29306124 327.12003079 -333.24609375 323.77734375 C-330.93812402 321.18037607 -328.74444137 318.51595987 -326.5625 315.8125 C-322.70174863 311.038597 -318.62562925 306.51611572 -314.46875 302 C-312.05621896 299.31262366 -309.7674379 296.56034556 -307.5 293.75 C-304.44651321 289.96539666 -301.29331699 286.32792463 -298 282.75 C-292.31712759 276.56987626 -286.66412295 270.24618443 -282 263.25 C-282.75925781 263.05664062 -283.51851563 262.86328125 -284.30078125 262.6640625 C-285.79158203 262.27347656 -285.79158203 262.27347656 -287.3125 261.875 C-288.29863281 261.61976563 -289.28476562 261.36453125 -290.30078125 261.1015625 C-293 260.25 -293 260.25 -296 258.25 C-306.6646535 257.44113284 -322.8262494 260.62546611 -330.15380859 268.76293945 Z " fill="#354B87" transform="translate(387,3.75)"/>
<path d="M0 0 C25.08 0 50.16 0 76 0 C76 24.09 76 48.18 76 73 C59.83 73 43.66 73 27 73 C27 82.57 27 92.14 27 102 C-14.58 102 -56.16 102 -99 102 C-92.25 94.125 -92.25 94.125 -89.74853516 91.63500977 C-89.18840729 91.07495743 -88.62827942 90.51490509 -88.05117798 89.93788147 C-87.46967987 89.36154465 -86.88818176 88.78520782 -86.2890625 88.19140625 C-85.67606293 87.57982162 -85.06306335 86.968237 -84.43148804 86.33811951 C-82.49835436 84.41052441 -80.56175013 82.48646072 -78.625 80.5625 C-77.30315301 79.24567596 -75.98153628 77.92862074 -74.66015625 76.61132812 C-71.44275701 73.40487627 -68.22224319 70.20158371 -65 67 C-66.34477412 64.00102632 -67.82976836 61.92818053 -70.16455078 59.62426758 C-70.80506378 58.98713333 -71.44557678 58.34999908 -72.10549927 57.69355774 C-72.79513763 57.017379 -73.484776 56.34120026 -74.1953125 55.64453125 C-74.90275604 54.94228928 -75.61019958 54.2400473 -76.33908081 53.51652527 C-78.59635761 51.27704866 -80.86021534 49.04438163 -83.125 46.8125 C-85.39603159 44.56903529 -87.66560997 42.32414815 -89.93234253 40.07633972 C-91.34297831 38.67801683 -92.75627716 37.28237468 -94.1723938 35.88960266 C-94.80660248 35.2619249 -95.44081116 34.63424713 -96.09423828 33.98754883 C-96.65668243 33.4333577 -97.21912659 32.87916656 -97.7986145 32.30818176 C-99 31 -99 31 -99 30 C-66.33 30 -33.66 30 0 30 C0 20.1 0 10.2 0 0 Z " fill="#9CB1FC" transform="translate(306,24)"/>
<path d="M0 0 C4.61265392 1.55202238 6.7218551 5.27940293 9.4375 9.0625 C10.50954444 10.52407766 11.58249106 11.98499394 12.65625 13.4453125 C13.20796875 14.19973633 13.7596875 14.95416016 14.328125 15.73144531 C16.98458007 19.33596933 19.70988901 22.88669295 22.4375 26.4375 C23.53001196 27.86323218 24.62245954 29.28901369 25.71484375 30.71484375 C26.25737793 31.42237793 26.79991211 32.12991211 27.35888672 32.85888672 C30.61466418 37.1066059 33.86395951 41.35928681 37.11376953 45.61157227 C39.88050889 49.23106231 42.6503672 52.84809367 45.42578125 56.4609375 C48.14506431 60.0010628 50.85008317 63.55176065 53.55029297 67.10644531 C54.89455031 68.86226544 56.25817321 70.60076562 57.62890625 72.3359375 C58.74072266 73.77839844 58.74072266 73.77839844 59.875 75.25 C60.51179687 76.05953125 61.14859375 76.8690625 61.8046875 77.703125 C63 80 63 80 62.85546875 82.4921875 C59.70590351 91.72515959 53.72286087 99.13484859 44.99609375 103.50390625 C36.13710269 107.31925086 28.75778244 108.20373882 19.1875 108.25 C17.60485352 108.2809375 17.60485352 108.2809375 15.99023438 108.3125 C9.59467147 108.3443782 4.79704931 107.76276238 -1 105 C-2.5625 103.3125 -2.5625 103.3125 -3 101 C-2.68945536 96.10892187 -1.83476777 92.52576051 0 88 C0.16798262 85.29113059 0.16798262 85.29113059 0 83 C-7.69837201 81.43181311 -13.65957594 82.4985095 -20.5078125 86.4453125 C-26.84752598 90.71816014 -32.41966288 95.79758196 -38 101 C-39.09025072 101.99967501 -40.18144281 102.99832406 -41.2734375 103.99609375 C-42.41170654 105.03879161 -43.54972983 106.08175781 -44.6875 107.125 C-45.20997314 107.60348389 -45.73244629 108.08196777 -46.27075195 108.57495117 C-49.0580156 111.14582189 -51.7599647 113.76822448 -54.40625 116.484375 C-57.95934047 120.05657601 -61.77085905 123.12511502 -65.8125 126.125 C-66.85809082 126.90484253 -66.85809082 126.90484253 -67.92480469 127.70043945 C-76.02842033 133.63565355 -83.51828163 138.18430617 -93.75 138.0625 C-94.73484375 138.05347656 -95.7196875 138.04445313 -96.734375 138.03515625 C-97.85585938 138.01775391 -97.85585938 138.01775391 -99 138 C-95.94699578 132.36425871 -92.406792 127.30915576 -88.5625 122.1875 C-87.3039598 120.49533265 -86.04616446 118.80261109 -84.7890625 117.109375 C-84.15516602 116.25666016 -83.52126953 115.40394531 -82.86816406 114.52539062 C-80.02714466 110.68489079 -77.22926569 106.81388565 -74.4375 102.9375 C-73.90584229 102.19975342 -73.37418457 101.46200684 -72.82641602 100.7019043 C-71.75363889 99.21275768 -70.68112828 97.72341901 -69.60888672 96.23388672 C-66.36853805 91.73476831 -63.11972298 87.24175881 -59.87255859 82.74755859 C-57.17401978 79.012055 -54.47742047 75.2751852 -51.78515625 71.53515625 C-45.65243321 63.02079319 -39.46767211 54.54783798 -33.23291016 46.10791016 C-27.6518492 38.54522423 -22.14811811 30.92809025 -16.65722656 23.29980469 C-14.89671399 20.85666555 -13.1324062 18.4163033 -11.3671875 15.9765625 C-10.77236572 15.15422119 -10.17754395 14.33187988 -9.56469727 13.48461914 C-8.42229306 11.90543673 -7.27956763 10.32648662 -6.13647461 8.74780273 C-5.6235083 8.03825439 -5.11054199 7.32870605 -4.58203125 6.59765625 C-3.90491089 5.66191772 -3.90491089 5.66191772 -3.21411133 4.70727539 C-2.11300446 3.15890613 -1.05391339 1.58087009 0 0 Z " fill="#5A74FE" transform="translate(386,153)"/>
<path d="M0 0 C25.08 0 50.16 0 76 0 C76 24.09 76 48.18 76 73 C59.83 73 43.66 73 27 73 C27 58.81 27 44.62 27 30 C18.09 30 9.18 30 0 30 C0 20.1 0 10.2 0 0 Z " fill="#7D98FC" transform="translate(306,24)"/>
<path d="M0 0 C4.66385948 2.27213667 4.66385948 2.27213667 5.9921875 5.1484375 C6.00446262 9.62885494 3.43188052 12.05973816 0.6875 15.4375 C-0.4363078 16.87519951 -1.5586821 18.31402058 -2.6796875 19.75390625 C-3.24397461 20.47078613 -3.80826172 21.18766602 -4.38964844 21.92626953 C-6.65944284 24.84919761 -8.8061865 27.8503666 -10.9375 30.875 C-11.75353892 32.02500033 -12.56995404 33.17473378 -13.38671875 34.32421875 C-13.80614746 34.91509277 -14.22557617 35.5059668 -14.65771484 36.11474609 C-21.73992927 46.06179225 -28.93113996 55.92949588 -36.1875 65.75 C-41.00285057 72.26724298 -45.75864444 78.82113274 -50.453125 85.42578125 C-55.03990213 91.87525511 -59.69333353 98.27707393 -64.33105469 104.68994141 C-65.96518299 106.95180829 -67.5963713 109.21576308 -69.2265625 111.48046875 C-75.35497197 119.98992059 -81.53619498 128.45739685 -87.76708984 136.89208984 C-93.36432174 144.4766884 -98.88408627 152.1158833 -104.39111328 159.76611328 C-107.0901213 163.51359786 -109.79540286 167.25654829 -112.5 171 C-113.57294041 172.48565994 -114.64585703 173.97133706 -115.71875 175.45703125 C-117.98908315 178.60062206 -120.26000348 181.74378778 -122.53125 184.88671875 C-123.11197266 185.69044922 -123.69269531 186.49417969 -124.29101562 187.32226562 C-125.39372692 188.84841806 -126.49658099 190.37446735 -127.59960938 191.90039062 C-128.10298828 192.59712891 -128.60636719 193.29386719 -129.125 194.01171875 C-129.86036987 195.00909058 -129.86036987 195.00909058 -130.6105957 196.02661133 C-132.02648109 197.976008 -132.02648109 197.976008 -133.19213867 200.05737305 C-135.98843537 204.70808687 -135.98843537 204.70808687 -138.88916016 205.54516602 C-141.07400368 205.68924676 -143.1307621 205.61492462 -145.3125 205.4375 C-146.05306641 205.40591797 -146.79363281 205.37433594 -147.55664062 205.34179688 C-149.37281608 205.25977605 -151.18693489 205.13422221 -153 205 C-150.02435201 199.45513398 -146.54629599 194.66060379 -142.625 189.75 C-137.67776872 183.47490955 -132.83913201 177.13955463 -128.125 170.6875 C-123.15970782 163.89819437 -118.11334308 157.17851445 -113 150.5 C-107.9333719 143.88061726 -102.92564541 137.22496793 -98 130.5 C-92.4133758 122.87259983 -86.70723662 115.34355435 -80.9609375 107.8359375 C-76.57935535 102.1009709 -72.2646493 96.32234807 -68 90.5 C-62.36280971 82.80551751 -56.61358203 75.20250844 -50.8203125 67.625 C-46.85368303 62.43609517 -42.90918123 57.2323093 -39 52 C-34.41585256 45.86427082 -29.7768374 39.77203467 -25.125 33.6875 C-18.09878212 24.49210286 -11.20226243 15.20653002 -4.37182617 5.86499023 C-2.92687598 3.9005883 -1.46595797 1.94876012 0 0 Z " fill="#5A74FE" transform="translate(261,294)"/>
<path d="M0 0 C3 0 3 0 4.61328125 1.57421875 C5.45439453 2.62029297 5.45439453 2.62029297 6.3125 3.6875 C8.5408007 6.3662019 10.70128491 8.71585397 13.4375 10.875 C14.7059375 11.926875 14.7059375 11.926875 16 13 C16 13.66 16 14.32 16 15 C16.66 15 17.32 15 18 15 C18 15.66 18 16.32 18 17 C18.598125 17.268125 19.19625 17.53625 19.8125 17.8125 C22.07573361 19.04111253 23.51540577 19.89031346 25 22 C24.79509291 27.02467828 21.84946148 29.90215101 18.625 33.4375 C17.52095445 34.68400305 16.41945083 35.93276148 15.3203125 37.18359375 C14.7624707 37.81765137 14.20462891 38.45170898 13.62988281 39.10498047 C11.14852471 41.9899867 8.82243008 44.98666931 6.5 48 C2.25158416 53.48711986 -2.18223129 58.77863527 -6.72387695 64.0246582 C-10.27561514 68.13325882 -13.7088739 72.31783229 -17.078125 76.578125 C-20.66376736 81.09661741 -24.34123694 85.54068708 -28 90 C-29.50028317 91.83310162 -31.00028408 93.66643427 -32.5 95.5 C-68.5 139.5 -68.5 139.5 -70.72265625 142.2109375 C-72.32109584 144.1685462 -73.91156353 146.13267832 -75.49609375 148.1015625 C-76.70458984 149.59816406 -76.70458984 149.59816406 -77.9375 151.125 C-78.66839844 152.03507813 -79.39929688 152.94515625 -80.15234375 153.8828125 C-82 156 -82 156 -84 157 C-84.80197392 152.10795907 -85.04246232 149.45177268 -82.08984375 145.33984375 C-80.35110241 143.47210769 -78.58068762 141.6335214 -76.78515625 139.8203125 C-74.15792136 137.15991476 -71.82740843 134.42279199 -69.5 131.5 C-65.66280969 126.74404581 -61.60614899 122.24495199 -57.46875 117.75 C-55.05621896 115.06262366 -52.7674379 112.31034556 -50.5 109.5 C-47.44651321 105.71539666 -44.29331699 102.07792463 -41 98.5 C-36.88621091 94.0301488 -33.02912703 89.40955107 -29.21484375 84.68359375 C-26.33519113 81.19449084 -23.29306124 77.87003079 -20.24609375 74.52734375 C-17.93812402 71.93037607 -15.74444137 69.26595987 -13.5625 66.5625 C-9.62620434 61.6955565 -5.47880267 57.06710166 -1.2421875 52.4609375 C1.26581051 49.70825676 3.65523691 46.89187448 6 44 C5.31292969 43.80664062 4.62585938 43.61328125 3.91796875 43.4140625 C3.01691406 43.15367187 2.11585937 42.89328125 1.1875 42.625 C0.29417969 42.36976563 -0.59914063 42.11453125 -1.51953125 41.8515625 C-4 41 -4 41 -7 39 C-13.71976326 39.22778859 -20.03425868 40.90994975 -26.50268555 42.62744141 C-29.42605126 43.39810517 -31.96150224 44 -35 44 C-33.29957397 39.85584795 -30.3584817 36.75620163 -27.4375 33.4375 C-26.34276361 32.17793997 -25.24902202 30.91751466 -24.15625 29.65625 C-23.61742187 29.03492188 -23.07859375 28.41359375 -22.5234375 27.7734375 C-19.71816522 24.50781284 -17.02010949 21.15587354 -14.30859375 17.8125 C-11.10507988 13.90974198 -7.82997997 10.06875156 -4.54077148 6.23803711 C-2.00529424 3.30173652 -2.00529424 3.30173652 0 0 Z " fill="#5A74FD" transform="translate(98,224)"/>
<path d="M0 0 C3.31945598 0.58301412 4.94397352 1.57443222 7.29980469 3.95922852 C7.92014587 4.5797963 8.54048706 5.20036407 9.17962646 5.83973694 C9.83706848 6.51266281 10.4945105 7.18558868 11.171875 7.87890625 C12.1955014 8.90889992 12.1955014 8.90889992 13.23980713 9.95970154 C15.41701196 12.15369415 17.58355281 14.35788916 19.75 16.5625 C21.22456971 18.05211634 22.69982213 19.5410572 24.17578125 21.02929688 C27.79182176 24.67840808 31.39833288 28.33670379 35 32 C33.59945309 35.29982517 33.11009184 35.93739876 29.8125 37.8125 C24.20491673 39.5591243 20.24549436 38.54657 14.9375 36.4375 C10.34790329 34.61411371 6.72645775 34.42451408 2 36 C1.26654278 37.63837197 0.61964032 39.31528397 0 41 C-1.45701798 43.95029823 -3.01324251 46.84728376 -4.5625 49.75 C-4.97435547 50.52988281 -5.38621094 51.30976563 -5.81054688 52.11328125 C-8.86811514 57.86811514 -8.86811514 57.86811514 -10 59 C-13.1237234 59.60950701 -15.1766041 59.52629428 -17.89453125 57.7890625 C-23.36895051 53.18925461 -27.70121434 47.68217147 -32 42 C-30.55832968 37.56095861 -28.11227778 34.4968678 -25.0625 31.0625 C-21.0208862 26.40333352 -17.10290085 21.67853712 -13.3125 16.8125 C-12.8597168 16.23169678 -12.40693359 15.65089355 -11.94042969 15.05249023 C-11.05377326 13.91459306 -10.16737329 12.77649599 -9.28125 11.63818359 C-6.22431615 7.72964203 -3.10946377 3.86678302 0 0 Z " fill="#5A74FE" transform="translate(170,206)"/>
<path d="M0 0 C6.875 0.875 6.875 0.875 8 2 C8.50838601 5.55870204 8.66485515 8.02573857 6.58984375 11.06640625 C5.46913167 12.41177132 4.3121163 13.72791098 3.1171875 15.0078125 C2.74851562 15.66523438 2.37984375 16.32265625 2 17 C2.77600241 19.45171287 2.77600241 19.45171287 4 22 C4.86583284 29.3897826 4.59295723 35.04156901 0 41 C-5.39995273 46.00483423 -9.84921748 46.35018872 -16.984375 46.28125 C-22.52714707 45.76430753 -25.58626145 43.52534949 -29.375 39.4375 C-32.30186277 35.04720585 -31.92358594 31.94508942 -31.625 26.8125 C-31.49528086 22.93250777 -31.47668408 19.85992113 -33.5546875 16.4453125 C-34.81430685 15.14522346 -36.10622193 13.87536693 -37.43359375 12.64453125 C-39 11 -39 11 -39.5625 7.625 C-39 5 -39 5 -37 3 C-34.375 2.4375 -34.375 2.4375 -31 3 C-29.84051692 4.15385452 -28.71954771 5.346874 -27.625 6.5625 C-24.29458568 9.71254372 -21.68186249 10.51948184 -17.07958984 10.59130859 C-12.2299816 10.38458948 -8.32657204 10.07446333 -4.41015625 6.90234375 C-2.68205523 4.67242198 -1.2622175 2.5193454 0 0 Z " fill="#5C76FF" transform="translate(284,215)"/>
<path d="M0 0 C4.8404001 2.60960701 8.06650639 6.09014417 9.796875 11.28125 C9.68884058 13.67790828 9.56120547 16.07370733 9.421875 18.46875 C9.29215586 22.34874223 9.27355908 25.42132887 11.3515625 28.8359375 C12.61118185 30.13602654 13.90309693 31.40588307 15.23046875 32.63671875 C16.796875 34.28125 16.796875 34.28125 17.359375 37.65625 C16.796875 40.28125 16.796875 40.28125 14.796875 42.28125 C12.171875 42.84375 12.171875 42.84375 8.796875 42.28125 C7.6582064 41.14823236 6.5582861 39.97582527 5.484375 38.78125 C0.7975182 34.32191052 -3.94312501 34.35593048 -10.10888672 34.43579102 C-13.40126156 34.64298042 -15.78717507 35.00830434 -18.56640625 36.83203125 C-20.02549204 38.58076186 -21.09629397 40.30035498 -22.203125 42.28125 C-24.96562536 43.66250018 -27.15043599 43.47204306 -30.203125 43.28125 C-32.203125 41.28125 -32.203125 41.28125 -32.765625 38.65625 C-32.01864955 34.17439729 -29.83181204 32.31260701 -26.63671875 29.2109375 C-24.95843539 27.42408779 -24.95843539 27.42408779 -25.46875 25.40234375 C-25.71109375 24.70238281 -25.9534375 24.00242188 -26.203125 23.28125 C-26.84519449 15.81850791 -26.85730366 10.3191034 -22.203125 4.28125 C-16.11678464 -1.35974838 -7.95715926 -2.59595267 0 0 Z " fill="#5C76FF" transform="translate(98.203125,126.71875)"/>
<path d="M0 0 C4.10276488 0.47675436 6.68948251 2.1655376 9.96801758 4.50366211 C10.57864548 4.92301529 11.18927338 5.34236847 11.81840515 5.77442932 C13.75647098 7.1101097 15.68038838 8.46472085 17.60473633 9.82006836 C18.91702015 10.72822381 20.23016326 11.63513894 21.54418945 12.54077148 C30.96593756 19.05626959 30.96593756 19.05626959 32.29223633 20.38256836 C32.62817383 23.21850586 32.62817383 23.21850586 32.29223633 26.38256836 C30.51879883 28.29663086 30.51879883 28.29663086 27.91723633 30.00756836 C26.43030273 31.00143555 26.43030273 31.00143555 24.91333008 32.01538086 C24.34727051 32.38179687 23.78121094 32.74821289 23.19799805 33.12573242 C21.02146506 34.56114003 18.89482719 36.0586155 16.76489258 37.56225586 C15.17061575 38.67014314 13.57556269 39.77691424 11.97973633 40.88256836 C10.83335693 41.69395264 10.83335693 41.69395264 9.66381836 42.52172852 C5.4853056 45.35822385 2.54083499 47.33541532 -2.70776367 46.38256836 C-4.70776367 44.38256836 -4.70776367 44.38256836 -5.16870117 41.52709961 C-4.70776367 38.38256836 -4.70776367 38.38256836 -2.37182617 36.08178711 C-1.36893555 35.41791992 -0.36604492 34.75405273 0.66723633 34.07006836 C1.6649707 33.39331055 2.66270508 32.71655273 3.69067383 32.01928711 C6.29223633 30.38256836 6.29223633 30.38256836 8.29223633 29.38256836 C7.70785797 29.37448151 7.12347961 29.36639465 6.52139282 29.35806274 C0.45454658 29.27219272 -5.61196627 29.17269761 -11.6784668 29.06518555 C-13.94436049 29.02683565 -16.21031632 28.99199353 -18.47631836 28.96069336 C-21.72817234 28.91517309 -24.97959627 28.8571576 -28.23120117 28.79663086 C-29.24894623 28.78507965 -30.26669128 28.77352844 -31.3152771 28.7616272 C-32.72651352 28.73182266 -32.72651352 28.73182266 -34.16625977 28.70141602 C-34.99676849 28.68809235 -35.82727722 28.67476868 -36.68295288 28.66104126 C-38.70776367 28.38256836 -38.70776367 28.38256836 -40.70776367 26.38256836 C-40.95776367 23.38256836 -40.95776367 23.38256836 -40.70776367 20.38256836 C-38.25279941 17.9276041 -37.54357602 18.11790225 -34.16625977 18.0637207 C-33.22543549 18.04385101 -32.28461121 18.02398132 -31.3152771 18.00350952 C-30.29753204 17.99195831 -29.27978699 17.9804071 -28.23120117 17.96850586 C-26.67062485 17.93945663 -26.67062485 17.93945663 -25.07852173 17.90982056 C-21.74668648 17.84991109 -18.41481689 17.80359384 -15.08276367 17.75756836 C-12.82754004 17.71939906 -10.57233116 17.68034795 -8.31713867 17.64038086 C-2.78081092 17.54420037 2.75560518 17.4591864 8.29223633 17.38256836 C7.43758789 16.81666992 6.58293945 16.25077148 5.70239258 15.66772461 C4.58646682 14.92689995 3.47058361 14.18601122 2.35473633 13.44506836 C1.79077148 13.07188477 1.22680664 12.69870117 0.64575195 12.31420898 C-3.59448242 9.49584961 -3.59448242 9.49584961 -4.70776367 8.38256836 C-4.89526367 5.44506836 -4.89526367 5.44506836 -4.70776367 2.38256836 C-2.70776367 0.38256836 -2.70776367 0.38256836 0 0 Z " fill="#87A2FF" transform="translate(476.707763671875,39.617431640625)"/>
<path d="M0 0 C4.8404001 2.60960701 8.06650639 6.09014417 9.796875 11.28125 C9.86642683 13.25930391 9.88139278 15.23959616 9.859375 17.21875 C9.85035156 18.25902344 9.84132812 19.29929688 9.83203125 20.37109375 C9.82042969 21.33144531 9.80882812 22.29179687 9.796875 23.28125 C9.796875 24.60125 9.796875 25.92125 9.796875 27.28125 C11.74778263 29.26932475 11.74778263 29.26932475 14.234375 31.09375 C19.40803073 35.46080429 19.40803073 35.46080429 20.046875 39.09375 C19.796875 42.28125 19.796875 42.28125 18.796875 44.28125 C16.39184514 45.48376493 14.50383588 45.73983307 11.84765625 45.2734375 C7.15692893 43.00401895 3.99494734 38.27702746 0.796875 34.28125 C-0.688125 34.77625 -0.688125 34.77625 -2.203125 35.28125 C-9.65711918 35.94600679 -15.17803987 35.92558645 -21.203125 31.28125 C-26.20795923 25.88129727 -26.55331372 21.43203252 -26.484375 14.296875 C-25.96743253 8.75410293 -23.72847449 5.69498855 -19.640625 1.90625 C-14.11521317 -1.77735788 -6.26853062 -2.04505254 0 0 Z " fill="#5B76FF" transform="translate(179.203125,126.71875)"/>
<path d="M0 0 C7.816 6.69942857 7.816 6.69942857 10.1875 9.5625 C13.98791851 14.04125408 17.98242221 18.32504887 22.00073242 22.60766602 C25.89273393 26.78546786 25.89273393 26.78546786 27 29 C18.09 29 9.18 29 0 29 C0 19.43 0 9.86 0 0 Z " fill="#5C77FE" transform="translate(306,25)"/>
<path d="M0 0 C2.9522728 0.96172523 4.54943409 2.18564466 6.828125 4.27734375 C7.51390625 4.89480469 8.1996875 5.51226562 8.90625 6.1484375 C11.22826649 8.49758035 11.55658494 9.49520281 11.765625 12.83984375 C11.578125 15.83984375 11.578125 15.83984375 9.578125 17.83984375 C6.953125 18.40234375 6.953125 18.40234375 3.578125 17.83984375 C-0.45451649 15.03648331 -3.69903064 11.92411029 -6.421875 7.83984375 C-6.234375 4.77734375 -6.234375 4.77734375 -5.421875 1.83984375 C-2.421875 -0.16015625 -2.421875 -0.16015625 0 0 Z " fill="#90A8FF" transform="translate(208.421875,175.16015625)"/>
<path d="M0 0 C5.09657591 0.84942932 8.01696921 3.75213173 11.375 7.5625 C13.03326031 10.81524139 13.67172547 12.34262863 12.8125 15.875 C11.375 17.5625 11.375 17.5625 9.125 18.5625 C4.62138008 18.5625 2.0784422 16.15446038 -1.1171875 13.16796875 C-3.53905688 10.5750634 -4.58693172 8.84529291 -5.0625 5.3125 C-4.47701161 1.63228727 -3.63819088 0.77961233 0 0 Z " fill="#91A9FF" transform="translate(228.625,196.4375)"/>
<path d="M0 0 C3.8147207 3.34745571 6.71411984 6.28471906 7.5625 11.375 C7 14 7 14 5 16 C1.69172402 16.70891628 -0.24334912 16.48802575 -3.1015625 14.64453125 C-7.17023146 11.29342754 -10.27335985 8.4498011 -11 3 C-10.3125 0.6875 -10.3125 0.6875 -9 -1 C-5.01509746 -2.32830085 -3.78528769 -1.81984985 0 0 Z " fill="#90A9FF" transform="translate(129,174)"/>
<path d="M0 0 C3.0625 1.1875 3.0625 1.1875 4.0625 2.1875 C4.85158308 6.30826717 4.63362426 8.21247893 2.48828125 11.875 C-1.37955161 17.06157968 -1.37955161 17.06157968 -3.9375 19.1875 C-7.08984375 19.578125 -7.08984375 19.578125 -9.9375 19.1875 C-11.875 17.5 -11.875 17.5 -12.9375 15.1875 C-12.31018276 8.19232096 -7.22565601 0.34407886 0 0 Z " fill="#89A3FF" transform="translate(305.9375,190.8125)"/>
<path d="M0 0 C3.0625 1.1875 3.0625 1.1875 4.0625 2.1875 C4.85158308 6.30826717 4.63362426 8.21247893 2.48828125 11.875 C-1.37955161 17.06157968 -1.37955161 17.06157968 -3.9375 19.1875 C-7.08984375 19.578125 -7.08984375 19.578125 -9.9375 19.1875 C-11.875 17.5 -11.875 17.5 -12.9375 15.1875 C-12.31018276 8.19232096 -7.22565601 0.34407886 0 0 Z " fill="#89A3FF" transform="translate(323.9375,166.8125)"/>
<path d="M0 0 C3.0625 1.1875 3.0625 1.1875 4.0625 2.1875 C4.85158308 6.30826717 4.63362426 8.21247893 2.48828125 11.875 C-1.37955161 17.06157968 -1.37955161 17.06157968 -3.9375 19.1875 C-7.08984375 19.578125 -7.08984375 19.578125 -9.9375 19.1875 C-11.875 17.5 -11.875 17.5 -12.9375 15.1875 C-12.31018276 8.19232096 -7.22565601 0.34407886 0 0 Z " fill="#89A3FF" transform="translate(341.9375,142.8125)"/>
<path d="M0 0 C3.0625 1.1875 3.0625 1.1875 4.0625 2.1875 C4.85158308 6.30826717 4.63362426 8.21247893 2.48828125 11.875 C-1.37955161 17.06157968 -1.37955161 17.06157968 -3.9375 19.1875 C-7.08984375 19.578125 -7.08984375 19.578125 -9.9375 19.1875 C-11.875 17.5 -11.875 17.5 -12.9375 15.1875 C-12.31018276 8.19232096 -7.22565601 0.34407886 0 0 Z " fill="#89A3FF" transform="translate(359.9375,118.8125)"/>
<path d="M0 0 C1 1 1 1 1.5625 4 C1.52193432 8.88816464 -1.64562304 11.71735893 -4.76171875 15.1796875 C-7.26618391 17.21647766 -8.80410988 17.76346208 -12 18 C-14.3125 16.9375 -14.3125 16.9375 -16 15 C-16.45073065 11.34351089 -16.38643373 9.57965059 -14.3203125 6.48046875 C-13.59585938 5.72378906 -12.87140625 4.96710938 -12.125 4.1875 C-11.40570313 3.41792969 -10.68640625 2.64835938 -9.9453125 1.85546875 C-6.45649701 -1.47221671 -4.59416204 -0.97748128 0 0 Z " fill="#87A1FF" transform="translate(62,175)"/>
<path d="M0 0 C2 2 2 2 2.5625 4.625 C1.59002114 10.45987314 -2.94418353 13.94418353 -7 18 C-10 18.25 -10 18.25 -13 18 C-15 16 -15 16 -15.6875 12.9375 C-14.764936 7.65372438 -12.25090575 5.44998745 -8.5546875 1.72265625 C-5.42884503 -0.38513661 -3.69976023 -0.4970592 0 0 Z " fill="#88A2FF" transform="translate(21,219)"/>
<path d="M0 0 C3.1875 0.6875 3.1875 0.6875 5.1875 3.6875 C5.46212956 9.45472068 2.01253608 12.78270027 -1.51171875 16.9296875 C-3.8125 18.6875 -3.8125 18.6875 -6.95703125 19.08203125 C-9.8125 18.6875 -9.8125 18.6875 -11.8125 16.5 C-12.8125 13.6875 -12.8125 13.6875 -12.4375 11.375 C-6.23997112 1.12524069 -6.23997112 1.12524069 0 0 Z " fill="#88A1FF" transform="translate(150.8125,164.3125)"/>
<path d="M0 0 C3.125 0.6875 3.125 0.6875 5.125 2.6875 C5.56960669 6.25917377 5.47846056 8.10886533 3.5859375 11.20703125 C-2.0356964 17.38661758 -2.0356964 17.38661758 -6.1875 18.875 C-8.875 18.6875 -8.875 18.6875 -11.875 16.6875 C-12.74037802 12.83263427 -12.43758923 10.58252832 -10.328125 7.2265625 C-7.06922714 3.2224128 -5.19279517 0.92130237 0 0 Z " fill="#88A1FF" transform="translate(37.875,196.3125)"/>
<path d="M0 0 C4.13858998 1.55957894 7.25192357 4.49674336 10.125 7.80078125 C11.27536901 11.43352548 11.84620639 13.35836846 10.125 16.80078125 C7.6945441 18.0160092 5.78793271 18.20921304 3.11328125 17.7109375 C-1.18222161 15.74462676 -4.46390923 11.7857785 -6.875 7.80078125 C-6.64529812 4.86273401 -5.90646956 3.84093207 -4.0625 1.48828125 C-1.875 -0.19921875 -1.875 -0.19921875 0 0 Z " fill="#8FA8FF" transform="translate(187.875,154.19921875)"/>
<path d="M0 0 C0.73734375 0.00773437 1.4746875 0.01546875 2.234375 0.0234375 C3.34039062 0.01183594 3.34039062 0.01183594 4.46875 0 C9.9810554 0.0201179 9.9810554 0.0201179 12.234375 2.2734375 C12.484375 5.2734375 12.484375 5.2734375 12.234375 8.2734375 C9.67488501 10.83292749 7.96230305 10.53412481 4.46875 10.546875 C3.73140625 10.53914063 2.9940625 10.53140625 2.234375 10.5234375 C1.12835938 10.53503906 1.12835938 10.53503906 0 10.546875 C-5.5123054 10.5267571 -5.5123054 10.5267571 -7.765625 8.2734375 C-8.015625 5.2734375 -8.015625 5.2734375 -7.765625 2.2734375 C-5.20613501 -0.28605249 -3.49355305 0.01275019 0 0 Z " fill="#88A1FF" transform="translate(410.765625,57.7265625)"/>
<path d="M0 0 C4.35101789 0.72832256 6.09007172 2.76395166 8.796875 6.0859375 C10.53072203 8.8443305 10.58831749 10.83779349 10 14 C8 16 8 16 5.375 16.5625 C0.42374208 15.73729035 -2.79537714 12.79837279 -6 9 C-6 8.01 -6 7.02 -6 6 C-4.37064759 4.62131719 -2.70250393 3.28725907 -1 2 C-0.67 1.34 -0.34 0.68 0 0 Z " fill="#91A9FF" transform="translate(105,153)"/>
<path d="M0 0 C4.95125792 0.82520965 8.17037714 3.76412721 11.375 7.5625 C11.375 8.5525 11.375 9.5425 11.375 10.5625 C9.74564759 11.94118281 8.07750393 13.27524093 6.375 14.5625 C6.045 15.2225 5.715 15.8825 5.375 16.5625 C1.02398211 15.83417744 -0.71507172 13.79854834 -3.421875 10.4765625 C-5.15572203 7.7181695 -5.21331749 5.72470651 -4.625 2.5625 C-2.625 0.5625 -2.625 0.5625 0 0 Z " fill="#91A9FF" transform="translate(249.625,217.4375)"/>
<path d="M0 0 C6.57692308 0.57692308 6.57692308 0.57692308 8 2 C8.51378112 5.59646783 8.55342164 8.07386582 6.66015625 11.2421875 C5.16428882 13.2202522 3.63045224 15.13177348 2 17 C-1.55225704 15.28564986 -4.74021634 13.22257977 -8 11 C-7.04454634 9.53977837 -6.08553322 8.08188532 -5.125 6.625 C-4.59132813 5.81289062 -4.05765625 5.00078125 -3.5078125 4.1640625 C-2 2 -2 2 0 0 Z " fill="#89A2FF" transform="translate(284,215)"/>
<path d="M0 0 C3.40212299 1.61382757 6.10324519 3.58603766 9 6 C7.23915938 9.9618914 4.9706445 14.01467775 1 16 C-2 16.1875 -2 16.1875 -5 16 C-7 14 -7 14 -7.5625 11.375 C-6.71961534 6.31769202 -3.53381894 3.55184863 0 0 Z " fill="#87A1FF" transform="translate(73,154)"/>
</svg>
