<?xml version="1.0" encoding="UTF-8"?>
<svg version="1.1" xmlns="http://www.w3.org/2000/svg" width="512" height="512">
<path d="M0 0 C1.14275391 0.11794922 1.14275391 0.11794922 2.30859375 0.23828125 C4.88818588 0.7524114 6.42578033 1.12115724 8.5625 2.6875 C8.93391113 3.78553955 9.30532227 4.8835791 9.68798828 6.01489258 C11.63892809 10.72934578 14.93584836 11.95210925 19.45703125 13.84375 C20.24083664 14.19457642 21.02464203 14.54540283 21.8321991 14.90686035 C24.33727218 16.02277164 26.85496486 17.10586314 29.375 18.1875 C31.8444823 19.2726086 34.31095518 20.36435528 36.77731323 21.45654297 C38.38893393 22.16939116 40.00182087 22.8793839 41.61599731 23.58642578 C48.72553719 26.71258437 55.66139866 30.12582333 62.5625 33.6875 C62.5625 35.6675 62.5625 37.6475 62.5625 39.6875 C47.64837187 47.74818694 32.44302848 55.14163076 17.15014648 62.44750977 C15.61548459 63.18291384 14.08460546 63.92644727 12.5625 64.6875 C12.36186441 69.14894092 12.21827227 73.60786697 12.12304688 78.07250977 C12.08328207 79.58469463 12.02904449 81.09658168 11.95898438 82.60766602 C11.42736602 94.38535796 13.53770606 100.91457356 20.5625 110.6875 C21.85374311 112.85452435 23.11684688 115.0385584 24.3515625 117.23828125 C24.97554932 118.3360791 25.59953613 119.43387695 26.24243164 120.56494141 C26.8843042 121.69851074 27.52617676 122.83208008 28.1875 124 C29.5934032 126.47359637 31.00147565 128.94595319 32.41015625 131.41796875 C32.76083664 132.03357666 33.11151703 132.64918457 33.4728241 133.28344727 C36.81812191 139.14914301 40.21449438 144.98449476 43.625 150.8125 C50.35478681 162.3161069 57.01905825 173.85673519 63.67138672 185.40527344 C66.79930148 190.83409942 69.93108448 196.26069281 73.0625 201.6875 C74.31251879 203.85415583 75.56251878 206.0208225 76.8125 208.1875 C77.43125 209.26 78.05 210.3325 78.6875 211.4375 C90.5625 232.02083333 102.4375 252.60416667 114.3125 273.1875 C114.93213623 274.26153076 115.55177246 275.33556152 116.19018555 276.44213867 C117.43125254 278.59333224 118.67230093 280.74453655 119.91333008 282.89575195 C122.82748344 287.94712999 125.74181818 292.9984031 128.65682983 298.04928589 C129.68923478 299.83816918 130.72157956 301.62708717 131.75390625 303.41601562 C133.04935948 305.66087636 134.3449257 307.9056719 135.640625 310.15039062 C136.7852777 312.13403603 137.92823445 314.11866153 139.0690918 316.10449219 C139.98876691 317.69516779 140.91791705 319.28046245 141.86254883 320.85644531 C144.14990319 324.69916026 145.10098607 327.16421698 144.5625 331.6875 C143.5625 332.6875 143.5625 332.6875 141.0343771 332.81054783 C139.33228635 332.80916514 139.33228635 332.80916514 137.59580994 332.80775452 C135.65007835 332.80981651 135.65007835 332.80981651 133.66503906 332.81192017 C132.2141111 332.80838055 130.76318337 332.80474573 129.31225586 332.80102539 C127.79488629 332.80074353 126.27751658 332.80090123 124.76014709 332.8014679 C120.62809484 332.80175591 116.49607137 332.79585858 112.36402583 332.78889394 C108.05051108 332.78266102 103.73699573 332.78205665 99.42347717 332.78086853 C91.24949883 332.77775503 83.07553379 332.76954139 74.90156132 332.75951904 C65.59821031 332.74835848 56.29485868 332.7428476 46.99150264 332.73782361 C27.84849421 332.72735879 8.70549817 332.70975899 -10.4375 332.6875 C-9.79518433 333.79822876 -9.79518433 333.79822876 -9.13989258 334.93139648 C-7.5271469 337.72108715 -5.91508708 340.51117274 -4.3034668 343.30151367 C-3.61037519 344.50121268 -2.917023 345.70076118 -2.22338867 346.90014648 C-0.56255115 349.77213628 1.09332381 352.64654561 2.73974609 355.52685547 C3.87041126 357.48742221 5.0208284 359.43690857 6.20166016 361.36767578 C6.66749512 362.14481934 7.13333008 362.92196289 7.61328125 363.72265625 C8.01844971 364.37758057 8.42361816 365.03250488 8.84106445 365.70727539 C9.81202215 368.3723982 9.4228072 370.02108204 8.5625 372.6875 C5.81496762 374.06126619 3.6278991 373.81028863 0.55148315 373.80775452 C-0.73021759 373.80912918 -2.01191833 373.81050385 -3.3324585 373.81192017 C-4.76086449 373.80838078 -6.18927025 373.80474596 -7.61767578 373.80102539 C-9.11548867 373.80074345 -10.61330169 373.80090139 -12.1111145 373.8014679 C-16.18525833 373.80175559 -20.25937291 373.79586338 -24.33350992 373.78889394 C-28.58829508 373.78265574 -32.84308085 373.78205623 -37.09786987 373.78086853 C-45.15848392 373.7777566 -53.21908445 373.76954505 -61.27969253 373.75951904 C-70.45489502 373.74835364 -79.63009814 373.74284637 -88.80530572 373.73782361 C-107.68271148 373.72736233 -126.56010466 373.70976554 -145.4375 373.6875 C-145.06874756 374.29223145 -144.69999512 374.89696289 -144.32006836 375.52001953 C-142.65413911 378.27398328 -141.01451075 381.04273436 -139.375 383.8125 C-138.79427734 384.76382812 -138.21355469 385.71515625 -137.61523438 386.6953125 C-137.07060547 387.6234375 -136.52597656 388.5515625 -135.96484375 389.5078125 C-135.45687256 390.35617676 -134.94890137 391.20454102 -134.42553711 392.07861328 C-133.18094564 395.36492523 -133.48069478 397.34062101 -134.4375 400.6875 C-137.78499008 402.36124504 -141.55655189 401.827754 -145.23765564 401.82121277 C-146.16013063 401.82347833 -147.08260561 401.82574388 -148.03303438 401.82807809 C-151.1430478 401.83443922 -154.25301788 401.83358738 -157.36303711 401.83276367 C-159.58503781 401.83575383 -161.80703799 401.83915603 -164.02903748 401.84294128 C-170.07851709 401.8517997 -176.12798258 401.85412016 -182.17746806 401.85475707 C-187.22001819 401.85570461 -192.262565 401.85938108 -197.30511385 401.86292917 C-208.51720314 401.87061453 -219.72928573 401.87359715 -230.94137686 401.87292381 C-231.61451888 401.87288386 -232.2876609 401.8728439 -232.98120117 401.87280273 C-233.65516218 401.87276185 -234.32912318 401.87272097 -235.02350724 401.87267885 C-245.94979791 401.87227227 -256.87605414 401.88184425 -267.80233484 401.8959411 C-279.01326741 401.91029143 -290.22418367 401.91702872 -301.43512732 401.91634732 C-307.7324878 401.91609176 -314.02980933 401.91897512 -320.32716179 401.92952538 C-326.24747831 401.93917266 -332.16771835 401.9393088 -338.08803749 401.93200874 C-340.26534511 401.93095871 -342.44265741 401.93335038 -344.61995697 401.9393692 C-347.58351623 401.94703319 -350.54680764 401.94248164 -353.51036072 401.93473816 C-354.37961227 401.93988172 -355.24886382 401.94502529 -356.14445633 401.95032471 C-362.09509286 401.91577142 -362.09509286 401.91577142 -365.4375 399.6875 C-365.98558976 395.22387557 -365.20687481 392.56025564 -362.90234375 388.765625 C-362.07101929 387.37174561 -362.07101929 387.37174561 -361.22290039 385.94970703 C-360.61309326 384.95567871 -360.00328613 383.96165039 -359.375 382.9375 C-358.07983333 380.77397353 -356.78559337 378.60989208 -355.4921875 376.4453125 C-354.82026367 375.32930664 -354.14833984 374.21330078 -353.45605469 373.06347656 C-350.23936468 367.68365201 -347.12109355 362.24815403 -344 356.8125 C-342.74116157 354.62744505 -341.48204545 352.44255005 -340.22265625 350.2578125 C-339.28510498 348.63020996 -339.28510498 348.63020996 -338.32861328 346.96972656 C-335.20069852 341.54090058 -332.06891552 336.11430719 -328.9375 330.6875 C-327.68748121 328.52084417 -326.43748122 326.3541775 -325.1875 324.1875 C-313.9375 304.6875 -313.9375 304.6875 -302.6875 285.1875 C-302.06866943 284.11483887 -301.44983887 283.04217773 -300.81225586 281.93701172 C-299.56314482 279.77192929 -298.31395871 277.60689018 -297.06469727 275.44189453 C-293.29373311 268.90647404 -289.52545348 262.36951682 -285.75976562 255.83105469 C-283.89438562 252.59611847 -282.02344309 249.36444307 -280.15234375 246.1328125 C-277.61593775 241.7474314 -275.11313455 237.34481843 -272.62890625 232.9296875 C-271.39847676 230.76560268 -270.16800944 228.60153936 -268.9375 226.4375 C-268.11076782 224.94645752 -268.11076782 224.94645752 -267.26733398 223.42529297 C-263.8751387 217.49627638 -260.17079971 211.31784627 -253.38623047 208.98095703 C-248.94039311 207.99465555 -245.30249624 208.88139729 -241.42114258 211.18505859 C-234.48663558 216.43736088 -230.40900041 226.78233229 -226.1875 234.1875 C-224.86906296 236.48730797 -223.55005084 238.78678635 -222.23046875 241.0859375 C-221.58899902 242.20452148 -220.9475293 243.32310547 -220.28662109 244.47558594 C-217.71804095 248.93719676 -215.11587234 253.3784899 -212.5 257.8125 C-212.08137695 258.52212891 -211.66275391 259.23175781 -211.23144531 259.96289062 C-210.30108857 261.53832676 -209.36947055 263.11301799 -208.4375 264.6875 C-205.64186225 262.19365208 -204.00496596 259.43534919 -202.171875 256.18359375 C-201.21945923 254.50402588 -201.21945923 254.50402588 -200.24780273 252.79052734 C-199.7449324 251.89584747 -199.7449324 251.89584747 -199.23190308 250.98309326 C-197.80757921 248.44908447 -196.37260114 245.92116239 -194.9384613 243.3927002 C-194.19696655 242.08500414 -193.45605649 240.77697639 -192.7157135 239.46862793 C-189.13737146 233.14620435 -185.51129869 226.85175348 -181.875 220.5625 C-180.63410933 218.41406553 -179.39322392 216.26562803 -178.15234375 214.1171875 C-177.53987793 213.05725586 -176.92741211 211.99732422 -176.29638672 210.90527344 C-173.79989985 206.58380025 -171.305892 202.26090027 -168.81274414 197.9375 C-167.56968114 195.78313799 -166.32539159 193.6294832 -165.07983398 191.4765625 C-162.17169439 186.44692687 -159.2749402 181.4118072 -156.42053223 176.35150146 C-155.41411083 174.56861307 -154.40391959 172.78791389 -153.39257812 171.0078125 C-152.1285485 168.78029177 -150.87153922 166.54876616 -149.62304688 164.3125 C-141.6249029 150.26436332 -141.6249029 150.26436332 -135 146.1875 C-130.03946768 145.21959125 -126.06097903 145.13551713 -121.3125 146.75 C-114.24340804 151.51395328 -110.43572613 158.79356329 -106.4375 166.125 C-105.3048871 168.16489701 -104.17071779 170.20393046 -103.03515625 172.2421875 C-102.15754639 173.8214502 -102.15754639 173.8214502 -101.26220703 175.43261719 C-98.19335533 180.90678508 -95.03787735 186.32977342 -91.875 191.75 C-91.29169922 192.75409912 -90.70839844 193.75819824 -90.10742188 194.79272461 C-87.34624787 199.52288633 -84.54759987 204.1782354 -81.4375 208.6875 C-72.34818056 193.14516641 -63.31568423 177.57141147 -54.32861328 161.96972656 C-50.58311565 155.46902037 -46.83252735 148.97124968 -43.08251953 142.47314453 C-40.18455111 137.45096298 -37.28755713 132.42822934 -34.39474487 127.40307617 C-33.37802802 125.63704478 -32.36094342 123.87122569 -31.34375 122.10546875 C-30.07349127 119.90015845 -28.80390982 117.69445784 -27.53515625 115.48828125 C-26.66503906 113.97814453 -26.66503906 113.97814453 -25.77734375 112.4375 C-25.27581787 111.56609375 -24.77429199 110.6946875 -24.25756836 109.796875 C-22.4375 106.6875 -22.4375 106.6875 -20.91717529 104.79949951 C-14.63454816 96.2769853 -15.65383869 87.00055964 -15.7734375 76.890625 C-15.77234218 74.96872524 -15.76802596 73.04682488 -15.76065063 71.12493896 C-15.7473019 66.08992197 -15.76599091 61.05562363 -15.79510498 56.02069092 C-15.84064209 47.94943718 -15.85606157 39.87856414 -15.83555984 31.80721283 C-15.8359318 28.99618955 -15.86165613 26.1861748 -15.88925171 23.37530518 C-15.88993665 21.64896657 -15.88963348 19.92262719 -15.88818359 18.19628906 C-15.90986855 17.03194084 -15.90986855 17.03194084 -15.93199158 15.84407043 C-15.89433442 10.62976616 -14.71357044 7.71328262 -11.4375 3.6875 C-7.756268 0.45247794 -4.85769259 -0.54884554 0 0 Z " fill="#0A1A6D" transform="translate(367.4375,55.3125)"/>
<path d="M0 0 C1.84375 0.21875 1.84375 0.21875 4 1 C5.34375 2.96875 5.34375 2.96875 6.5 5.5 C7.14001953 6.84964844 7.14001953 6.84964844 7.79296875 8.2265625 C8.55252606 9.97182364 9.27020798 11.73651628 9.92578125 13.5234375 C11.50646484 17.71538252 12.74295666 20.33636481 16.75 22.5625 C23.03579751 25.10009973 28.8736079 24.6683039 35.1015625 22.1328125 C38.47915874 20.11737441 40.71966131 17.15274099 43 14 C47.09588736 18.65441745 49.89025138 23.9178265 52.875 29.3125 C57.46649632 37.5246409 62.11875178 45.69462201 66.875 53.8125 C73.66916553 65.41923886 80.39590022 77.06393196 87.10888672 88.71777344 C90.23680148 94.14659942 93.36858448 99.57319281 96.5 105 C97.75001879 107.16665583 99.00001878 109.3333225 100.25 111.5 C101.178125 113.10875 101.178125 113.10875 102.125 114.75 C107.75 124.49999999 107.75 124.49999999 109.62597656 127.75170898 C110.87270256 129.91268988 112.11944727 132.07365998 113.36621094 134.23461914 C116.54145883 139.73818851 119.71635495 145.24196032 122.890625 150.74609375 C123.5312085 151.85670166 124.17179199 152.96730957 124.83178711 154.11157227 C126.09586941 156.30332398 127.3597099 158.49521517 128.62329102 160.68725586 C131.5352714 165.73698885 134.45287983 170.7832428 137.38671875 175.8203125 C137.90459961 176.71049072 138.42248047 177.60066895 138.95605469 178.51782227 C139.91968229 180.17304482 140.88508301 181.82723681 141.85253906 183.48022461 C145 188.88893876 145 188.88893876 145 190 C125.61593806 190.39767073 106.2327068 190.69715992 86.84540749 190.88080692 C77.84265174 190.96835838 68.84243438 191.08763237 59.84130859 191.2824707 C51.99279775 191.45227809 44.14612492 191.56166858 36.29582822 191.59950441 C32.14046594 191.62161692 27.99035967 191.67327978 23.836689 191.79741096 C-1.41605368 192.52341014 -1.41605368 192.52341014 -7.33784676 188.35395241 C-10.90400695 184.42387634 -12.7757543 180.11787669 -14.30583 175.08624649 C-15.3524526 171.94074507 -16.98031192 169.37570129 -18.73046875 166.56640625 C-19.88355831 164.56553379 -21.03589289 162.56422606 -22.1875 160.5625 C-23.4830528 158.31379049 -24.77862632 156.06509292 -26.07421875 153.81640625 C-26.72438965 152.68734863 -27.37456055 151.55829102 -28.04443359 150.39501953 C-31.80963304 143.85833245 -35.58076735 137.3250674 -39.35180664 130.79174805 C-42.26081062 125.75112985 -45.16810148 120.70955136 -48.06854248 115.66400146 C-49.09275665 113.88250422 -50.11757651 112.10135678 -51.14257812 110.3203125 C-52.42633375 108.08923375 -53.70895939 105.85750427 -54.99023438 103.625 C-55.57353516 102.61179687 -56.15683594 101.59859375 -56.7578125 100.5546875 C-57.30598633 99.59788086 -57.85416016 98.64107422 -58.41894531 97.65527344 C-60.21652335 94.63636382 -62.17215403 91.75440873 -64.24560547 88.91845703 C-65.39358472 85.99909749 -64.77537967 83.99835455 -64 81 C-62.74755859 78.34472656 -62.74755859 78.34472656 -61.1484375 75.640625 C-60.551521 74.6196875 -59.95460449 73.59875 -59.33959961 72.546875 C-58.3671228 70.91492188 -58.3671228 70.91492188 -57.375 69.25 C-56.35801339 67.51707352 -55.34104208 65.78413783 -54.32499695 64.05065918 C-53.26604843 62.24637957 -52.20323461 60.44441536 -51.14013672 58.64257812 C-49.03088663 55.06084627 -46.95039408 51.46305123 -44.87890625 47.859375 C-44.37991821 46.99146332 -44.37991821 46.99146332 -43.87084961 46.10601807 C-42.89280784 44.40416061 -41.91515045 42.70208228 -40.9375 41 C-36.69618624 33.62252735 -32.4062605 26.28034634 -28 19 C-27.12988281 19.23783203 -27.12988281 19.23783203 -26.2421875 19.48046875 C-21.17874974 20.65370433 -17.39797486 20.71269307 -12.8125 18.375 C-6.55608227 13.09180281 -3.41238766 7.34752406 0 0 Z " fill="#61DAFA" transform="translate(356,190)"/>
<path d="M0 0 C4.0308786 3.22470288 5.60144803 6.15949936 7.4375 11 C10.16298544 17.8788412 10.16298544 17.8788412 16 22 C22.69798324 22.8543346 29.34326435 23.10113334 35 19 C36.68020112 17.3469786 38.34854046 15.68173629 40 14 C45.40560578 22.66588959 50.59189984 31.4237217 55.625 40.3125 C57.03219835 42.78870445 58.44154656 45.2636803 59.8515625 47.73828125 C60.20244934 48.35430206 60.55333618 48.97032288 60.91485596 49.60501099 C64.23551853 55.42740393 67.61163061 61.21677362 71 67 C76.40381735 76.22785548 81.72652516 85.49994942 87.02050781 94.79101562 C92.19105228 103.86301599 97.42521786 112.89590054 102.70214844 121.90649414 C107.61912351 130.31575007 112.45342211 138.77074452 117.27392578 147.23550415 C121.86531715 155.29690439 126.49769814 163.33017864 131.25878906 171.29272461 C134 175.89798297 134 175.89798297 134 177 C84.5 177 35 177 -16 177 C-23.5 164 -31 151 -38.5 138 C-39.72589844 135.875625 -40.95179688 133.75125 -42.21484375 131.5625 C-44.49263284 127.61457008 -46.76879443 123.66571181 -49.04275513 119.71557617 C-50.05947198 117.94954478 -51.07655658 116.18372569 -52.09375 114.41796875 C-53.36400873 112.21265845 -54.63359018 110.00695784 -55.90234375 107.80078125 C-56.48242188 106.79402344 -57.0625 105.78726563 -57.66015625 104.75 C-58.21203613 103.78449219 -58.76391602 102.81898438 -59.33251953 101.82421875 C-60.45441532 99.9240591 -61.62357956 98.05111064 -62.83544922 96.20703125 C-63.40408691 95.33433594 -63.97272461 94.46164062 -64.55859375 93.5625 C-65.07607178 92.80066406 -65.5935498 92.03882813 -66.12670898 91.25390625 C-67 89 -67 89 -66.33691406 86.54370117 C-64.95279654 83.91018758 -63.54762214 81.30980082 -62.05078125 78.73828125 C-61.45724854 77.71444336 -60.86371582 76.69060547 -60.25219727 75.63574219 C-59.61209717 74.53907227 -58.97199707 73.44240234 -58.3125 72.3125 C-57.64279189 71.15938631 -56.97344572 70.00606235 -56.30444336 68.85253906 C-54.90945325 66.44790631 -53.5128987 64.04419259 -52.11523438 61.64111328 C-48.75010235 55.85228959 -45.40721148 50.05063927 -42.0625 44.25 C-41.43762695 43.16710693 -40.81275391 42.08421387 -40.16894531 40.96850586 C-35.75883076 33.32395336 -31.3651206 25.67033972 -27 18 C-26.12794922 18.23589844 -26.12794922 18.23589844 -25.23828125 18.4765625 C-19.91212163 19.72212164 -16.32456521 19.62742562 -11.4375 17.3125 C-7.0340349 13.84034246 -4.83822509 8.67645018 -2.3828125 3.765625 C-1 1 -1 1 0 0 Z " fill="#61DAFA" transform="translate(231,243)"/>
<path d="M0 0 C3.30745039 2.59871102 4.54399562 5.14368992 5.9375 9 C7.53383082 13.2673568 8.960112 15.61750195 13 18 C16.75168743 19.25056248 20.1124445 19.6502317 24 19 C26.24167171 17.85922045 28.20838543 16.57602687 30.23828125 15.09375 C32 14 32 14 35 14 C51.25 42.16666667 67.5 70.33333333 83.75 98.5 C84.36987793 99.57435303 84.98975586 100.64870605 85.62841797 101.75561523 C86.86738234 103.9033582 88.10599424 106.05130455 89.34423828 108.19946289 C92.28014105 113.29179437 95.21969755 118.38191695 98.17169189 123.4649353 C99.57068053 125.87434008 100.96767029 128.2849009 102.36450195 130.69555664 C103.35498071 132.40298982 104.3483594 134.10873972 105.34179688 135.81445312 C105.93798828 136.84376953 106.53417969 137.87308594 107.1484375 138.93359375 C107.67614746 139.84165771 108.20385742 140.74972168 108.74755859 141.68530273 C110 144 110 144 111 147 C42.36 147 -26.28 147 -97 147 C-95.57181199 142.71543596 -94.48701477 139.8089992 -92.26953125 136.078125 C-91.44787476 134.68424561 -91.44787476 134.68424561 -90.60961914 133.26220703 C-90.01656982 132.26817871 -89.42352051 131.27415039 -88.8125 130.25 C-87.53580222 128.08632451 -86.25978329 125.92224834 -84.984375 123.7578125 C-84.32501953 122.64180664 -83.66566406 121.52580078 -82.98632812 120.37597656 C-79.81074644 114.9787367 -76.6862344 109.55236 -73.5625 104.125 C-72.30341652 101.94008624 -71.04430177 99.75519051 -69.78515625 97.5703125 C-69.16012207 96.48524414 -68.53508789 95.40017578 -67.89111328 94.28222656 C-64.13971976 87.77128743 -60.38309006 81.26336806 -56.62744141 74.75488281 C-53.48817754 69.31414664 -50.35018503 63.87268523 -47.21484375 58.4296875 C-38.85741101 43.92508777 -30.45075616 29.45041866 -22 15 C-20.02246094 15.29703776 -18.04492188 15.59407552 -16.06738281 15.89111328 C-12.7014066 16.06839545 -10.73233261 14.86295405 -8 13 C-4.32167347 9.2134874 -2.208861 4.73495203 0 0 Z " fill="#61DAFA" transform="translate(111,301)"/>
<path d="M0 0 C4.86337053 2.73979354 8.40946917 7.11784574 11 12 C12.53303706 17.62113587 11.8609886 20.94558681 9 26 C5.46420513 29.95177073 2.29495598 30.55351905 -2.7734375 30.91796875 C-5.51935138 31.019134 -8.25284399 31.0704399 -11 31 C-10.505 31.928125 -10.505 31.928125 -10 32.875 C-8.06653131 38.91708964 -7.84162994 43.55984999 -10.61328125 49.3984375 C-17.79918412 61.85632238 -17.79918412 61.85632238 -24.23828125 63.609375 C-26.15885417 63.73958333 -28.07942708 63.86979167 -30 64 C-29.505 64.9590625 -29.505 64.9590625 -29 65.9375 C-27.04261027 71.93200605 -27.03873134 75.83476613 -29.578125 81.5546875 C-30.24539439 82.81535822 -30.927971 84.06803639 -31.625 85.3125 C-31.9554834 85.91118896 -32.2859668 86.50987793 -32.62646484 87.12670898 C-35.11880693 91.29800999 -37.75987106 93.6735082 -42 96 C-45.875 96.75 -45.875 96.75 -49 97 C-48.67 97.66 -48.34 98.32 -48 99 C-46.30021984 104.09934049 -46.07816189 107.82951829 -48.16796875 112.75 C-54.68527821 125.08095054 -54.68527821 125.08095054 -60.375 128.375 C-63.64081396 129.15257475 -66.65583945 129.13114355 -70 129 C-69.34 129.825 -68.68 130.65 -68 131.5 C-66.04682502 134.50704637 -65.28720889 137.11959372 -65.484375 140.78125 C-66.86656018 146.7288347 -70.43512816 151.57120397 -74.875 155.625 C-78.81024861 157.35650939 -81.77541596 157.79741145 -86 157 C-92.17314175 154.28381763 -95.37032721 149.0093897 -98 143 C-98.83636735 139.07655316 -98.40629426 135.99316375 -96.875 132.25 C-93.49646078 128.19575294 -90.43471396 126.1449206 -85.1328125 125.609375 C-83.79630978 125.63558094 -82.46006588 125.68272924 -81.125 125.75 C-80.43664062 125.76804687 -79.74828125 125.78609375 -79.0390625 125.8046875 C-77.3587619 125.85136252 -75.67918837 125.92309061 -74 126 C-74.64453125 125.2678125 -75.2890625 124.535625 -75.953125 123.78125 C-78.58208777 120.20907157 -78.81485339 118.2276942 -78.65234375 113.8984375 C-76.90886711 106.15197241 -71.57736035 98.37461369 -65 94 C-62.796875 93.42578125 -62.796875 93.42578125 -60.75 93.3125 C-57.20858552 93.4238996 -57.20858552 93.4238996 -56 92 C-56.7425 91.01 -56.7425 91.01 -57.5 90 C-59.37177916 86.25644169 -59.52917727 83.08008766 -59 79 C-58.08975751 76.38119863 -56.81279867 74.11321818 -55.375 71.75 C-54.87806641 70.8528125 -54.87806641 70.8528125 -54.37109375 69.9375 C-51.54192512 65.11189916 -48.16243057 61.82498189 -42.6640625 60.390625 C-41.99117187 60.34421875 -41.31828125 60.2978125 -40.625 60.25 C-39.42875 60.1675 -38.2325 60.085 -37 60 C-37.495 59.154375 -37.99 58.30875 -38.5 57.4375 C-40.28078799 53.35652753 -40.65216914 51.4202575 -40 47 C-37.17899667 40.43704723 -33.39098667 33.80205536 -28 29 C-25.24921116 28.08307039 -23.64051087 27.89113917 -20.8125 27.9375 C-18.9253125 27.9684375 -18.9253125 27.9684375 -17 28 C-17.474375 27.525625 -17.94875 27.05125 -18.4375 26.5625 C-20.74616359 22.77629171 -21.35051537 19.41924278 -21 15 C-19.1685656 9.67715024 -16.53997368 4.48064649 -12 1 C-7.89708831 -0.36763723 -4.28123676 -0.74796982 0 0 Z " fill="#0D1A6A" transform="translate(242,130)"/>
<path d="M0 0 C2.31 0.66 4.62 1.32 7 2 C2.83247588 9.66873446 -1.37263759 17.31547711 -5.625 24.9375 C-6.5221875 26.55253418 -6.5221875 26.55253418 -7.4375 28.20019531 C-10.40235903 33.50285194 -13.42316917 38.74546465 -16.6484375 43.89453125 C-17.21353027 44.80146729 -17.77862305 45.70840332 -18.36083984 46.64282227 C-19.43098867 48.34495503 -20.5166616 50.03745334 -21.61962891 51.71850586 C-22.09577637 52.47655518 -22.57192383 53.23460449 -23.0625 54.015625 C-23.48660156 54.66821289 -23.91070312 55.32080078 -24.34765625 55.99316406 C-25.30141294 58.92725089 -24.37019136 60.29216158 -23 63 C-22.0482031 64.77107373 -21.0622578 66.52403791 -20.05078125 68.26171875 C-19.4578125 69.28458984 -18.86484375 70.30746094 -18.25390625 71.36132812 C-17.61324219 72.45896484 -16.97257812 73.55660156 -16.3125 74.6875 C-15.6376662 75.84940348 -14.96319344 77.01151671 -14.2890625 78.17382812 C-12.88892911 80.5872404 -11.48724981 82.9997446 -10.08447266 85.41162109 C-6.87508717 90.93267095 -3.68880865 96.46704994 -0.5 102 C0.74340528 104.15499656 1.98689525 106.30994426 3.23046875 108.46484375 C5.79754997 112.91422807 8.36237232 117.36490528 10.92578125 121.81640625 C11.57675781 122.94626953 12.22773438 124.07613281 12.8984375 125.24023438 C14.11650904 127.35445854 15.3340194 129.46900619 16.55078125 131.58398438 C17.68175367 133.54647857 18.84185835 135.49251665 20.03260803 137.41932678 C21.53895355 139.97944362 22.54953917 142.47921677 23.49436951 145.292099 C25.42677556 150.36265944 27.5865491 154.68115184 32 158 C40.82485022 160.94964661 50.68411738 159.95854709 59.87484837 159.62924194 C63.58439739 159.5168718 67.29406935 159.50914472 71.00506592 159.4921875 C78.02605475 159.44604535 85.04297745 159.32113852 92.06220698 159.16082954 C104.63751544 158.87395817 117.2135683 158.67567707 129.79175639 158.57556629 C134.20279846 158.53672542 138.60922883 158.44837616 143.01853228 158.31971073 C145.09986298 158.26513373 147.1803625 158.2309106 149.26223755 158.20545959 C151.79575027 158.1736107 154.32915124 158.10912499 156.86074829 158.00559998 C164.90993296 157.97845392 164.90993296 157.97845392 168.08699799 160.95581055 C170.30826826 164.19559774 171.75972363 167.2791709 173 171 C153.61593806 171.39767073 134.2327068 171.69715992 114.84540749 171.88080692 C105.84265174 171.96835838 96.84243438 172.08763237 87.84130859 172.2824707 C79.99279775 172.45227809 72.14612492 172.56166858 64.29582822 172.59950441 C60.14046594 172.62161692 55.99035967 172.67327978 51.836689 172.79741096 C26.58394632 173.52341014 26.58394632 173.52341014 20.66215324 169.35395241 C17.09599305 165.42387634 15.2242457 161.11787669 13.69417 156.08624649 C12.6475474 152.94074507 11.01968808 150.37570129 9.26953125 147.56640625 C8.11644169 145.56553379 6.96410711 143.56422606 5.8125 141.5625 C4.5169472 139.31379049 3.22137368 137.06509292 1.92578125 134.81640625 C1.27561035 133.68734863 0.62543945 132.55829102 -0.04443359 131.39501953 C-3.80963304 124.85833245 -7.58076735 118.3250674 -11.35180664 111.79174805 C-14.26081062 106.75112985 -17.16810148 101.70955136 -20.06854248 96.66400146 C-21.09275665 94.88250422 -22.11757651 93.10135678 -23.14257812 91.3203125 C-24.42633375 89.08923375 -25.70895939 86.85750427 -26.99023438 84.625 C-27.57353516 83.61179687 -28.15683594 82.59859375 -28.7578125 81.5546875 C-29.30598633 80.59788086 -29.85416016 79.64107422 -30.41894531 78.65527344 C-32.21652335 75.63636382 -34.17215403 72.75440873 -36.24560547 69.91845703 C-37.39358472 66.99909749 -36.77537967 64.99835455 -36 62 C-34.74755859 59.34472656 -34.74755859 59.34472656 -33.1484375 56.640625 C-32.551521 55.6196875 -31.95460449 54.59875 -31.33959961 53.546875 C-30.3671228 51.91492188 -30.3671228 51.91492188 -29.375 50.25 C-28.35801339 48.51707352 -27.34104208 46.78413783 -26.32499695 45.05065918 C-25.26604843 43.24637957 -24.20323461 41.44441536 -23.14013672 39.64257812 C-21.03088663 36.06084627 -18.95039408 32.46305123 -16.87890625 28.859375 C-16.54624756 28.28076721 -16.21358887 27.70215942 -15.87084961 27.10601807 C-14.89280784 25.40416061 -13.91515045 23.70208228 -12.9375 22 C-8.69618624 14.62252735 -4.4062605 7.28034634 0 0 Z " fill="#02CEFA" transform="translate(328,209)"/>
<path d="M0 0 C2.31 0.66 4.62 1.32 7 2 C2.89619908 10.76300346 -1.73768196 19.15158497 -6.625 27.5 C-7.22014404 28.51739258 -7.81528809 29.53478516 -8.4284668 30.58300781 C-11.52136287 35.84698594 -14.65227064 41.08489984 -17.83203125 46.296875 C-18.43772949 47.29783203 -19.04342773 48.29878906 -19.66748047 49.33007812 C-20.82624245 51.24163583 -21.99547422 53.14689537 -23.17626953 55.04492188 C-23.69431152 55.90150391 -24.21235352 56.75808594 -24.74609375 57.640625 C-25.20685303 58.38860352 -25.6676123 59.13658203 -26.14233398 59.90722656 C-27.20301186 62.49536511 -27.01584401 63.4235297 -26 66 C-25.23030672 67.55012728 -24.40791248 69.07457972 -23.55078125 70.578125 C-23.0398291 71.47893799 -22.52887695 72.37975098 -22.00244141 73.30786133 C-21.44476074 74.27876709 -20.88708008 75.24967285 -20.3125 76.25 C-19.73161621 77.26924561 -19.15073242 78.28849121 -18.55224609 79.33862305 C-13.3089268 88.51618848 -7.98008095 97.64377597 -2.640625 106.765625 C1.3075971 113.51609016 5.21919441 120.28743972 9.125 127.0625 C9.7526123 128.15087158 10.38022461 129.23924316 11.02685547 130.3605957 C12.18253786 132.36597052 13.33678362 134.37217427 14.48925781 136.37939453 C15.42328828 137.99960834 16.36401159 139.61600922 17.31542969 141.22607422 C20 145.79172601 20 145.79172601 20 148 C64.55 148 109.1 148 155 148 C156.98 151.63 158.96 155.26 161 159 C111.5 159 62 159 11 159 C3.5 146 -4 133 -11.5 120 C-12.72589844 117.875625 -13.95179688 115.75125 -15.21484375 113.5625 C-17.49263284 109.61457008 -19.76879443 105.66571181 -22.04275513 101.71557617 C-23.05947198 99.94954478 -24.07655658 98.18372569 -25.09375 96.41796875 C-26.36400873 94.21265845 -27.63359018 92.00695784 -28.90234375 89.80078125 C-29.48242188 88.79402344 -30.0625 87.78726563 -30.66015625 86.75 C-31.21203613 85.78449219 -31.76391602 84.81898438 -32.33251953 83.82421875 C-33.45441532 81.9240591 -34.62357956 80.05111064 -35.83544922 78.20703125 C-36.40408691 77.33433594 -36.97272461 76.46164062 -37.55859375 75.5625 C-38.07607178 74.80066406 -38.5935498 74.03882813 -39.12670898 73.25390625 C-40 71 -40 71 -39.33691406 68.54370117 C-37.95279654 65.91018758 -36.54762214 63.30980082 -35.05078125 60.73828125 C-34.45724854 59.71444336 -33.86371582 58.69060547 -33.25219727 57.63574219 C-32.61209717 56.53907227 -31.97199707 55.44240234 -31.3125 54.3125 C-30.64279189 53.15938631 -29.97344572 52.00606235 -29.30444336 50.85253906 C-27.90945325 48.44790631 -26.5128987 46.04419259 -25.11523438 43.64111328 C-21.75010235 37.85228959 -18.40721148 32.05063927 -15.0625 26.25 C-14.43762695 25.16710693 -13.81275391 24.08421387 -13.16894531 22.96850586 C-8.75883076 15.32395336 -4.3651206 7.67033972 0 0 Z " fill="#01CEF9" transform="translate(204,261)"/>
<path d="M0 0 C2.31 0.66 4.62 1.32 7 2 C5.01018849 5.67225376 3.00714697 9.33720155 1 13 C0.48518066 13.94093506 0.48518066 13.94093506 -0.04003906 14.90087891 C-6.27031177 26.26736839 -12.74720894 37.47911299 -19.296875 48.6640625 C-23.03634601 55.05282011 -26.74122559 61.46117484 -30.4375 67.875 C-31.36212036 69.47915771 -31.36212036 69.47915771 -32.30541992 71.11572266 C-33.56169835 73.29579765 -34.81780071 75.47597412 -36.07373047 77.65625 C-38.73034016 82.26777425 -41.38829557 86.8785214 -44.04711914 91.48876953 C-45.30312898 93.66664882 -46.55884939 95.84469506 -47.81420898 98.02294922 C-51.85407607 105.02854473 -55.92509778 112.01445333 -60 119 C1.71 119.33 63.42 119.66 127 120 C128.98 123.96 130.96 127.92 133 132 C64.36 132 -4.28 132 -75 132 C-73.57181199 127.71543596 -72.48701477 124.8089992 -70.26953125 121.078125 C-69.72176025 120.14887207 -69.17398926 119.21961914 -68.60961914 118.26220703 C-68.01656982 117.26817871 -67.42352051 116.27415039 -66.8125 115.25 C-65.53580222 113.08632451 -64.25978329 110.92224834 -62.984375 108.7578125 C-62.32501953 107.64180664 -61.66566406 106.52580078 -60.98632812 105.37597656 C-57.81074644 99.9787367 -54.6862344 94.55236 -51.5625 89.125 C-50.30341652 86.94008624 -49.04430177 84.75519051 -47.78515625 82.5703125 C-47.16012207 81.48524414 -46.53508789 80.40017578 -45.89111328 79.28222656 C-42.13971976 72.77128743 -38.38309006 66.26336806 -34.62744141 59.75488281 C-31.48817754 54.31414664 -28.35018503 48.87268523 -25.21484375 43.4296875 C-16.85741101 28.92508777 -8.45075616 14.45041866 0 0 Z " fill="#03CFFA" transform="translate(89,316)"/>
<path d="M0 0 C8.0766617 5.62515733 12.52937254 17.52799728 17 26 C17.37286133 26.69125977 17.74572266 27.38251953 18.12988281 28.09472656 C19.1426364 29.97263721 20.13730573 31.85881343 21.125 33.75 C21.68445313 34.81734375 22.24390625 35.8846875 22.8203125 36.984375 C24.10566208 40.27010307 24.3633171 42.50430034 24 46 C21.8494071 49.37950314 19.86755883 51.78448151 16 53 C12.0379358 53.43222519 9.8379521 53.53057546 6.43359375 51.375 C3.57249617 48.5827892 2.73342916 46.40457935 1.5 42.625 C-0.49517514 37.02340417 -2.38076242 31.80961879 -8 29 C-11.00397432 28.65528164 -13.09756851 28.43408189 -16 29 C-19.69546056 32.26575584 -21.38961938 35.70822818 -23.5 40.125 C-25.41589015 44.11293435 -27.03275457 46.76206668 -31 49 C-32.32 49 -33.64 49 -35 49 C-34.45948359 44.57419144 -33.38401736 41.37977602 -31.19140625 37.5078125 C-30.3247937 35.96589233 -30.3247937 35.96589233 -29.44067383 34.39282227 C-28.82087646 33.31444092 -28.2010791 32.23605957 -27.5625 31.125 C-26.93303467 30.01761475 -26.30356934 28.91022949 -25.6550293 27.76928711 C-21.96370366 21.31333827 -18.21600088 14.89270342 -14.3125 8.5625 C-13.71707397 7.58917725 -13.71707397 7.58917725 -13.10961914 6.59619141 C-9.56856377 0.97583572 -6.77014588 -1.12835765 0 0 Z " fill="#D9D6EB" transform="translate(369,154)"/>
<path d="M0 0 C5.52217889 5.3784651 9.05572318 13.08331655 12.75 19.75 C13.32621094 20.77738281 13.90242188 21.80476563 14.49609375 22.86328125 C16.00960229 25.56925106 17.51953461 28.27581276 19 31 C19.37930664 31.68481445 19.75861328 32.36962891 20.14941406 33.07519531 C21.59170079 36.3389693 21.63480533 39.55293882 21 43 C19.125 46 19.125 46 16 48 C12.57395232 48.61647036 9.39381422 48.83407299 6 48 C3.17449965 45.14765404 1.90924409 41.69089428 0.4375 38 C-1.70507663 31.41714796 -1.70507663 31.41714796 -6.25 26.75 C-9.55980082 25.84732705 -11.59159222 25.37396592 -15 26 C-19.34308228 29.54559323 -21.72831556 34.21521699 -24.0703125 39.19921875 C-25.34819844 41.6744516 -26.77501845 43.33126384 -29 45 C-30.32 45 -31.64 45 -33 45 C-32.46322877 40.35559335 -31.22384569 37.13653189 -28.8671875 33.11328125 C-28.22523438 32.00919922 -27.58328125 30.90511719 -26.921875 29.76757812 C-26.23961936 28.61586407 -25.55732756 27.46417144 -24.875 26.3125 C-24.22273437 25.19166016 -23.57046875 24.07082031 -22.8984375 22.91601562 C-19.7306465 17.50123002 -16.50149813 12.12443222 -13.1953125 6.79296875 C-12.65148926 5.91535889 -12.10766602 5.03774902 -11.54736328 4.13354492 C-8.33555584 -0.2949791 -5.21022868 -0.88308961 0 0 Z " fill="#DAD7EB" transform="translate(243,210)"/>
<path d="M0 0 C1.11181641 -0.00773438 1.11181641 -0.00773438 2.24609375 -0.015625 C6.81142338 0.50788666 8.95900304 1.52600119 11.94921875 5.11328125 C12.72888657 6.25441943 13.49557639 7.40451759 14.25 8.5625 C14.63994141 9.13162109 15.02988281 9.70074219 15.43164062 10.28710938 C19.68836562 16.62489992 21.44493366 21.66658573 20.5625 29.25 C19.262044 32.39847243 18.0110648 33.86740061 15.4375 36.0625 C11.48474702 37.69515884 7.76849258 38.12711175 3.5625 37.25 C-3.98351445 33.20213794 -8.75191305 25.82659351 -12.4375 18.25 C-13.82324949 12.93565069 -13.11716784 9.60933568 -10.6875 4.75 C-7.43806504 1.13951671 -4.83954467 -0.0335497 0 0 Z " fill="#152169" transform="translate(259.4375,161.75)"/>
<path d="M0 0 C3.69982127 2.394002 4.61500298 5.33501192 5.65625 9.5 C6.58130212 17.31155121 2.32508977 22.38255879 -2.19921875 28.2734375 C-5.37805621 32.12241765 -8.6396642 35.70953141 -13.8125 36.3125 C-17.90985906 36.62886859 -20.43925981 35.71755013 -23.875 33.375 C-27.02511864 30.63937066 -28.2729139 28.13330143 -28.8125 24.0625 C-28.54403292 15.98408138 -22.1094903 8.1927928 -16.875 2.375 C-11.52312088 -1.67332006 -6.34632944 -1.37963683 0 0 Z " fill="#0E1B69" transform="translate(49.875,298.625)"/>
<path d="M0 0 C3.22330387 2.24654512 3.912392 4.74504801 5.0625 8.4375 C6.04012197 15.03644831 3.5833233 19.10291924 0.0625 24.4375 C-0.46859375 25.2521875 -0.9996875 26.066875 -1.546875 26.90625 C-4.71654464 31.38449885 -7.50047211 34.65523276 -12.88671875 36.203125 C-17.69590504 36.75274629 -21.50346211 35.53189734 -25.3125 32.625 C-28.60472769 28.19315503 -29.24916365 25.10843401 -28.47924805 19.57714844 C-27.54425834 15.8843815 -25.47541854 13.17634156 -23.1875 10.1875 C-22.54167969 9.2903125 -22.54167969 9.2903125 -21.8828125 8.375 C-15.57238263 -0.16486317 -10.37487685 -1.98667854 0 0 Z " fill="#0E1B6A" transform="translate(76.9375,261.5625)"/>
<path d="M0 0 C3.13537845 2.02877429 3.90854584 3.85368532 5.125 7.375 C6.70876337 15.37300501 3.22254077 21.67584605 -0.875 28.375 C-5.54988789 34.93329596 -5.54988789 34.93329596 -9.875 36.375 C-13.88624819 36.98912521 -17.40097212 37.23757928 -20.984375 35.140625 C-23.9591348 32.65756104 -25.63058099 31.10825704 -26.875 27.375 C-27.32822439 21.84299638 -26.21054836 18.05173267 -23.625 13.25 C-23.32464844 12.65574219 -23.02429688 12.06148437 -22.71484375 11.44921875 C-17.23894715 0.89355424 -11.66315573 -2.53546864 0 0 Z " fill="#0D1A6A" transform="translate(321.875,161.625)"/>
<path d="M0 0 C2.94815295 1.820918 3.83818245 3.06159251 5.125 6.3125 C6.33704678 12.47281115 5.30119204 16.69033935 2 22 C-5.92993457 33.33996728 -5.92993457 33.33996728 -9.875 35.3125 C-14.91171207 35.86508891 -18.79640903 35.85179549 -23.375 33.5625 C-26.74591311 30.5286782 -28.17475024 27.78455238 -28.4375 23.25 C-28.31069866 16.84653228 -24.5695383 12.2847328 -20.875 7.3125 C-20.400625 6.66539062 -19.92625 6.01828125 -19.4375 5.3515625 C-14.17229238 -1.39448476 -7.99323085 -1.91142477 0 0 Z " fill="#0D1A6A" transform="translate(102.875,224.6875)"/>
<path d="M0 0 C6.36271096 1.82903618 8.74778725 6.56095454 12 12 C15.0646739 17.66026505 15.755439 22.74251675 14 29 C12.20867928 32.00685978 10.75317877 33.52657334 7.8125 35.375 C3.78274365 36.27050141 -0.03233612 36.18214643 -4 35 C-8.33009495 32.18510157 -10.80299478 28.66901489 -13.3125 24.25 C-13.67150391 23.66734375 -14.03050781 23.0846875 -14.40039062 22.484375 C-17.09390308 17.80535908 -17.44073762 14.37925913 -17 9 C-13.61289674 1.15618192 -8.11266391 -1.19467311 0 0 Z " fill="#131F69" transform="translate(140,222)"/>
<path d="M0 0 C5.54216601 3.24164427 8.61510563 8.0785315 11 14 C11.71071063 19.24149087 10.83293151 22.54825048 8 27 C4.74285878 30.3734677 1.59447655 30.7082872 -3 31 C-13.35407104 31.03009904 -13.35407104 31.03009904 -17.5625 27.75 C-21.1038311 23.75465209 -21.97184189 21.6613282 -22.0625 16.3125 C-21.18837262 10.71595275 -17.7150065 6.13804036 -14 2 C-9.67543374 -0.83333651 -4.99164824 -0.74360528 0 0 Z " fill="#0A176A" transform="translate(123,193)"/>
<path d="M0 0 C3.16418819 3.16418819 3.77291883 4.71355146 4 9.0625 C3.9462174 15.23853524 1.51376981 19.89125912 -2.4375 24.5625 C-7.10756499 27.94116438 -10.83096227 28.40745693 -16.4375 27.5625 C-22.62929789 24.89152836 -25.75235091 19.53257376 -28.4375 13.5625 C-29.22011731 8.34505127 -28.33817705 4.96352724 -25.4375 0.5625 C-19.07439561 -4.86485374 -6.50197035 -5.24801893 0 0 Z " fill="#0B186A" transform="translate(301.4375,203.4375)"/>
<path d="M0 0 C3.37890625 0.01953125 3.37890625 0.01953125 7 1 C9.15234375 3.44921875 9.15234375 3.44921875 10.9375 6.6875 C11.26105469 7.26330811 11.58460937 7.83911621 11.91796875 8.43237305 C12.60360909 9.65416435 13.28034736 10.88098804 13.94873047 12.11230469 C15.00667424 14.0119845 16.13098519 15.85274861 17.28515625 17.6953125 C18.02380604 18.90081593 18.76209769 20.10653888 19.5 21.3125 C20.50546875 22.94638672 20.50546875 22.94638672 21.53125 24.61328125 C23.37895108 28.87380475 23.42781819 31.39494583 23 36 C20.9375 38.5625 20.9375 38.5625 18 40 C14.4375 40.3125 14.4375 40.3125 11 39 C9.69387933 36.90476477 8.89067428 34.81080703 8.03515625 32.49609375 C6.24619801 28.18234161 3.27809449 23.13904724 -1 21 C-3.87237733 20.41557037 -3.87237733 20.41557037 -7 21 C-10.31109784 24.15342652 -12.11603333 27.12034506 -14 31.25 C-15.39136271 34.23800845 -15.72830968 34.85180528 -18.75 36.5 C-19.86375 36.7475 -19.86375 36.7475 -21 37 C-20.45630535 31.93869711 -18.02893992 28.25456719 -15.4375 24 C-14.99148437 23.25613037 -14.54546875 22.51226074 -14.0859375 21.74584961 C-12.73150971 19.4925699 -11.36655201 17.24594197 -10 15 C-9.20943665 13.68892191 -8.41905949 12.37773154 -7.62890625 11.06640625 C-2.32888474 2.32888474 -2.32888474 2.32888474 0 0 Z " fill="#D8D5EA" transform="translate(115,273)"/>
<path d="M0 0 C2.5 0.25 2.5 0.25 4.5 2.25 C4.68784482 4.80991902 4.75189805 7.2606964 4.72705078 9.82080078 C4.72734283 10.60137848 4.72763489 11.38195618 4.72793579 12.18618774 C4.72653968 14.77267478 4.71096542 17.35887564 4.6953125 19.9453125 C4.69158337 21.73607221 4.68873592 23.52683396 4.68673706 25.31759644 C4.67909275 30.03588472 4.65943745 34.75405031 4.6373291 39.47229004 C4.61688782 44.28489522 4.60773903 49.09752019 4.59765625 53.91015625 C4.57619228 63.35682481 4.54204675 72.80340221 4.5 82.25 C1.53 82.25 -1.44 82.25 -4.5 82.25 C-4.54627317 71.85385587 -4.58184359 61.4577361 -4.60362434 51.06151009 C-4.61407626 46.23449195 -4.62826104 41.40754409 -4.65087891 36.58056641 C-4.67255722 31.92514222 -4.68455801 27.26978578 -4.68975449 22.61431503 C-4.69345928 20.83524381 -4.70069348 19.05617644 -4.71146011 17.27713394 C-4.72590854 14.79160706 -4.72798075 12.30636267 -4.72705078 9.82080078 C-4.73424133 9.07993225 -4.74143188 8.33906372 -4.74884033 7.57574463 C-4.71994394 0.47199439 -4.71994394 0.47199439 0 0 Z " fill="#935B50" transform="translate(365.5,63.75)"/>
<path d="M0 0 C3.34328105 2.43147713 4.25386403 5.53416793 5.0625 9.5 C5.17770756 16.64286866 2.40564681 21.89265084 -1.9375 27.5 C-5.51984039 30.28626474 -8.09556247 30.70001614 -12.5 30.4375 C-17.41676239 29.67598125 -20.25588742 27.74215011 -23.25 23.75 C-24.96593856 18.13420108 -24.46571077 13.93123461 -21.8125 8.8125 C-16.10939855 -0.36965219 -10.43379212 -1.77596462 0 0 Z " fill="#0F1B6A" transform="translate(340.9375,128.5)"/>
<path d="M0 0 C3.9266329 1.30887763 7.5697641 2.60528968 11.3359375 4.2421875 C12.80933594 4.88220703 12.80933594 4.88220703 14.3125 5.53515625 C15.323125 5.97730469 16.33375 6.41945313 17.375 6.875 C18.87933594 7.52662109 18.87933594 7.52662109 20.4140625 8.19140625 C26.03122337 10.63972375 31.54818421 13.20252889 37 16 C37 16.66 37 17.32 37 18 C32.21664699 20.42872289 27.42942529 22.84957551 22.63842773 25.26318359 C21.00875542 26.08556829 19.38016606 26.91010265 17.75268555 27.73681641 C15.41475513 28.92395206 13.07305392 30.10333186 10.73046875 31.28125 C9.63813179 31.83903137 9.63813179 31.83903137 8.52372742 32.40808105 C3.34161512 35 3.34161512 35 0 35 C0 23.45 0 11.9 0 0 Z " fill="#6DD3A1" transform="translate(378,75)"/>
<path d="M0 0 C3.42599881 1.91218538 4.17085384 3.53766985 5.26953125 7.2265625 C6.21511904 12.36985309 5.91172066 16.38360757 3.26171875 20.96484375 C0.05227778 25.35558672 -2.93258353 28.96288101 -8.3125 30.5 C-13.1426229 30.5 -15.98033501 30.10896787 -19.75 27.0625 C-22.93460007 23.87789993 -23.52385407 22.31650758 -23.75 17.9375 C-23.68795248 11.8125233 -21.30896725 8.00060876 -17.3125 3.5 C-11.64391869 -1.55243117 -7.05349161 -1.06467798 0 0 Z " fill="#0F1C6A" transform="translate(23.3125,335.5)"/>
<path d="M0 0 C2.43768488 0.29666284 3.69667468 0.70314131 5.46582031 2.43457031 C9.68157929 8.29432418 13.2530633 14.43943607 16.75 20.75 C17.32621094 21.77738281 17.90242188 22.80476563 18.49609375 23.86328125 C20.00960229 26.56925106 21.51953461 29.27581276 23 32 C23.39606445 32.71961914 23.79212891 33.43923828 24.20019531 34.18066406 C25.2172544 36.49419407 24.83318476 37.66708266 24 40 C21.1875 40.3125 21.1875 40.3125 18 40 C14.96230916 35.75839495 12.9391234 30.82431276 10.78125 26.08398438 C8.80844876 21.9739818 6.87664801 19.41787972 3 17 C0.12965274 16.10851246 0.12965274 16.10851246 -2.8125 15.75 C-3.78832031 15.60046875 -4.76414062 15.4509375 -5.76953125 15.296875 C-6.50558594 15.19890625 -7.24164063 15.1009375 -8 15 C-6.85657478 12.68628057 -5.71038936 10.37400323 -4.5625 8.0625 C-4.23701172 7.40314453 -3.91152344 6.74378906 -3.57617188 6.06445312 C-1.11328125 1.11328125 -1.11328125 1.11328125 0 0 Z " fill="#F5F3F5" transform="translate(367,155)"/>
<path d="M0 0 C1.7734375 0.16015625 1.7734375 0.16015625 4 1 C5.7890625 3.30859375 5.7890625 3.30859375 7.625 6.4375 C8.12290039 7.28139282 8.12290039 7.28139282 8.63085938 8.14233398 C9.7688553 10.08658437 10.88416446 12.04295402 12 14 C12.44311523 14.76344727 12.88623047 15.52689453 13.34277344 16.31347656 C14.74028412 18.72328039 16.12271759 21.14108532 17.5 23.5625 C17.94553223 24.33585693 18.39106445 25.10921387 18.85009766 25.90600586 C19.26050293 26.63956299 19.6709082 27.37312012 20.09375 28.12890625 C20.46177734 28.77931885 20.82980469 29.42973145 21.20898438 30.09985352 C22 32 22 32 22 36 C20.35 36 18.7 36 17 36 C16.443125 34.865625 15.88625 33.73125 15.3125 32.5625 C14.54351987 31.04072879 13.77256071 29.51995658 13 28 C12.61457031 27.22140625 12.22914063 26.4428125 11.83203125 25.640625 C8.9195992 20.02311851 6.1330516 15.42003581 -0.16015625 13.2578125 C-2.08850845 12.76127031 -4.04361882 12.37103781 -6 12 C-4.43358249 7.69235185 -2.31663844 3.93828536 0 0 Z " fill="#F3F1F5" transform="translate(241,211)"/>
<path d="M0 0 C0.99 0.33 1.98 0.66 3 1 C3 25.09 3 49.18 3 74 C2.01 74 1.02 74 0 74 C0 49.58 0 25.16 0 0 Z " fill="#AA685D" transform="translate(367,65)"/>
<path d="M0 0 C3.3137352 1.4090838 4.73935014 3.8037473 6.85546875 6.671875 C7.64308594 7.71859375 8.43070312 8.7653125 9.2421875 9.84375 C11.04643922 12.72762496 11.92615336 14.56005123 12.16796875 17.921875 C11.04296875 19.796875 11.04296875 19.796875 9.16796875 20.921875 C6.85546875 20.87890625 6.85546875 20.87890625 4.16796875 19.921875 C2.29317921 17.86783442 0.82260843 16.01625525 -0.70703125 13.734375 C-1.12210937 13.16912109 -1.5371875 12.60386719 -1.96484375 12.02148438 C-4.03722586 9.0061684 -4.84341013 7.24844883 -4.71484375 3.55859375 C-3.70269221 0.53557476 -3.20209947 -0.13655008 0 0 Z " fill="#F2C75B" transform="translate(259.83203125,170.078125)"/>
<path d="M0 0 C0.80859375 2.04296875 0.80859375 2.04296875 1 5 C-0.32637978 7.67624201 -2.11161059 9.95799984 -3.9375 12.3125 C-4.65969727 13.28026367 -4.65969727 13.28026367 -5.39648438 14.26757812 C-6.58424292 15.85517618 -7.79038612 17.42899006 -9 19 C-10.98 18.67 -12.96 18.34 -15 18 C-15.76953125 15.921875 -15.76953125 15.921875 -16 13 C-14.65187117 10.53184223 -13.35234941 8.47814433 -11.6875 6.25 C-11.27048828 5.66089844 -10.85347656 5.07179687 -10.42382812 4.46484375 C-6.93996834 -0.36922007 -5.78781139 -1.37079743 0 0 Z " fill="#F4DA5A" transform="translate(99,233)"/>
<path d="M0 0 C2.93453261 0.36681658 3.86437246 0.86437246 6 3 C5.77170468 7.65559388 3.45537545 10.64411839 0.75 14.3125 C-0.01828125 15.38113281 -0.7865625 16.44976562 -1.578125 17.55078125 C-4 20 -4 20 -6.671875 20.48046875 C-9 20 -9 20 -11 18 C-10.74612003 13.53017393 -8.70515571 10.81533297 -6.0625 7.3125 C-5.35222656 6.35988281 -4.64195313 5.40726562 -3.91015625 4.42578125 C-2 2 -2 2 0 0 Z " fill="#F5DB5A" transform="translate(41,306)"/>
<path d="M0 0 C1.09942429 3.89527207 1.16310317 5.62503532 -0.4765625 9.39453125 C-1.17491951 10.54484384 -1.89165175 11.68417296 -2.625 12.8125 C-3.14126953 13.68938477 -3.14126953 13.68938477 -3.66796875 14.58398438 C-5.40121515 17.34374756 -6.56923022 18.8354434 -9.6484375 20.01171875 C-12 20 -12 20 -14 18 C-14 11.19257951 -10.65404285 5.60221954 -7 0 C-4.3333581 -1.33332095 -2.83319697 -0.67102033 0 0 Z " fill="#F2C85B" transform="translate(318,170)"/>
<path d="M0 0 C4.70588235 0.70588235 4.70588235 0.70588235 6 2 C6.13744551 8.45993909 3.11692769 12.01640051 -0.796875 16.9609375 C-3.27301838 19.25268723 -4.64702835 19.87787189 -8 20 C-10 18 -10 18 -10.40234375 15.765625 C-9.8525897 11.98673306 -7.89535942 9.63863928 -5.5625 6.75 C-5.14162109 6.20859375 -4.72074219 5.6671875 -4.28710938 5.109375 C-1.35044643 1.35044643 -1.35044643 1.35044643 0 0 Z " fill="#F4DB5A" transform="translate(67,269)"/>
<path d="M0 0 C2.38671875 0.05078125 2.38671875 0.05078125 5 1 C7.01953125 3.29296875 7.01953125 3.29296875 8.8125 6.1875 C9.41707031 7.12980469 10.02164063 8.07210937 10.64453125 9.04296875 C12.13473837 12.29393932 12.26695237 14.46680692 12 18 C10.02 18.33 8.04 18.66 6 19 C-3.09730539 7.13522954 -3.09730539 7.13522954 -2.8125 3.8125 C-2 2 -2 2 0 0 Z " fill="#F4C85B" transform="translate(134,230)"/>
<path d="M0 0 C1.10637702 3.35642466 1.10168337 4.75115995 -0.2578125 8.078125 C-0.87398437 9.12484375 -1.49015625 10.1715625 -2.125 11.25 C-2.72570312 12.30703125 -3.32640625 13.3640625 -3.9453125 14.453125 C-6 17 -6 17 -8.625 17.9296875 C-11 18 -11 18 -12.875 16.875 C-14 15 -14 15 -13.75390625 12.7109375 C-12.9142337 9.69159684 -11.69702454 7.4195902 -10.0625 4.75 C-9.27552734 3.44289062 -9.27552734 3.44289062 -8.47265625 2.109375 C-5.87516338 -1.61117182 -4.11411747 -0.97439624 0 0 Z " fill="#EFC55C" transform="translate(205,200)"/>
<path d="M0 0 C2.25 0.125 2.25 0.125 5 1 C7.44789493 3.91101019 8.85781039 5.95727619 9.375 9.75 C9 12 9 12 7 14 C4.46875 14.265625 4.46875 14.265625 1.5 14.25 C0.5203125 14.25515625 -0.459375 14.2603125 -1.46875 14.265625 C-4 14 -4 14 -6 12 C-6.5 9.8125 -6.5 9.8125 -6 7 C-4.19657349 4.47310588 -2.15750549 2.22813811 0 0 Z " fill="#F4C85B" transform="translate(116,201)"/>
<path d="M0 0 C2.77348994 0.07924257 4.47358885 0.48470043 6.48046875 2.44921875 C8.76462615 5.39878895 10.04056208 7.06707212 9.875 10.875 C9 13 9 13 8 14 C6.00200428 14.09873816 4.00042842 14.12971799 2 14.125 C0.906875 14.12757813 -0.18625 14.13015625 -1.3125 14.1328125 C-4 14 -4 14 -5 13 C-5.60535108 8.76254244 -4.93647336 6.51128501 -2.5 3.125 C-1.68006717 2.07275286 -0.85100278 1.02728193 0 0 Z " fill="#F4C95B" transform="translate(235,138)"/>
<path d="M0 0 C0.9796875 0.00515625 1.959375 0.0103125 2.96875 0.015625 C3.9484375 0.01046875 4.928125 0.0053125 5.9375 0 C8.46875 0.265625 8.46875 0.265625 10.46875 2.265625 C10.17947002 6.60482469 9.19729827 9.85493966 6.46875 13.265625 C4.03125 14.328125 4.03125 14.328125 1.46875 14.265625 C-1.15325075 12.1680244 -2.66350232 10.06724652 -4.53125 7.265625 C-4.78125 4.703125 -4.78125 4.703125 -4.53125 2.265625 C-2.53125 0.265625 -2.53125 0.265625 0 0 Z " fill="#F6CA5B" transform="translate(286.53125,208.734375)"/>
<path d="M0 0 C2.5 0.125 2.5 0.125 3.5 1.125 C4.64623057 7.51114174 0.93406593 12.07378391 -2.5 17.125 C-3.5 18.125 -3.5 18.125 -5.9375 18.3125 C-8.5 18.125 -8.5 18.125 -10.5 16.125 C-10.17106776 12.09558008 -8.61221965 9.26673732 -6.5 5.875 C-5.96375 5.00359375 -5.4275 4.1321875 -4.875 3.234375 C-2.85987749 0.14299387 -2.85987749 0.14299387 0 0 Z " fill="#F3C85B" transform="translate(182.5,231.875)"/>
<path d="M0 0 C2.421875 0.37890625 2.421875 0.37890625 4.421875 2.37890625 C4.07497775 6.30151358 2.6321902 9.2539306 0.671875 12.62890625 C-0.06289062 13.93601563 -0.06289062 13.93601563 -0.8125 15.26953125 C-2.578125 17.37890625 -2.578125 17.37890625 -5.15625 18.30078125 C-5.95546875 18.3265625 -6.7546875 18.35234375 -7.578125 18.37890625 C-8.238125 17.71890625 -8.898125 17.05890625 -9.578125 16.37890625 C-9.578125 10.61003157 -7.39125477 6.90539238 -4.34375 2.1015625 C-2.578125 0.37890625 -2.578125 0.37890625 0 0 Z " fill="#F5CA5B" transform="translate(220.578125,166.62109375)"/>
<path d="M0 0 C1.093125 0.00257813 2.18625 0.00515625 3.3125 0.0078125 C4.405625 0.00523437 5.49875 0.00265625 6.625 0 C9.3125 0.1328125 9.3125 0.1328125 10.3125 1.1328125 C10.76008664 4.98205762 10.38463317 6.98299745 8.6875 10.5078125 C6.3125 13.1328125 6.3125 13.1328125 3.3125 13.8828125 C0.3125 13.1328125 0.3125 13.1328125 -2.0625 10.5078125 C-3.75963317 6.98299745 -4.13508664 4.98205762 -3.6875 1.1328125 C-2.6875 0.1328125 -2.6875 0.1328125 0 0 Z " fill="#F9CC5B" transform="translate(156.6875,264.8671875)"/>
<path d="M0 0 C6.01618347 1.88005734 11.42532955 4.06062831 17 7 C11.96623807 11.14911565 5.90602755 13.3422876 0 16 C0 10.72 0 5.44 0 0 Z " fill="#97E29C" transform="translate(389,80)"/>
<path d="M0 0 C3.8046875 0.734375 3.8046875 0.734375 5.5625 3.125 C6 6 6 6 4.125 9.5 C0.40745531 14.15200948 -4.25929171 17.25772484 -10 18.8125 C-10.66 18.874375 -11.32 18.93625 -12 19 C-11.13375 18.0925 -10.2675 17.185 -9.375 16.25 C-5.18889231 11.41604231 -2.66911999 5.76416339 0 0 Z " fill="#03C8F5" transform="translate(356,190)"/>
<path d="M0 0 C4.70588235 0.70588235 4.70588235 0.70588235 6 2 C5.70061356 7.18936494 4.89141859 10.4328663 1 14 C-1.6875 14.375 -1.6875 14.375 -4 14 C-5 13 -5 13 -5.3125 10.3125 C-4.90501589 5.99316842 -3.0690289 3.0690289 0 0 Z " fill="#F5CA5B" transform="translate(331,136)"/>
<path d="M0 0 C2.8125 0.375 2.8125 0.375 3.8125 1.375 C3.51311356 6.56436494 2.70391859 9.8078663 -1.1875 13.375 C-3.8125 13.8125 -3.8125 13.8125 -6.1875 13.375 C-6.8475 12.715 -7.5075 12.055 -8.1875 11.375 C-7.93205075 5.62739179 -6.18842456 0.72804995 0 0 Z " fill="#F4C95B" transform="translate(16.1875,343.625)"/>
<path d="M0 0 C1.65 1.65 3.3 3.3 5 5 C3.61613025 10.22795237 0.24038711 12.94942615 -4 16 C-7.5959596 18.06734007 -7.5959596 18.06734007 -10.25 17.625 C-11.11625 17.315625 -11.11625 17.315625 -12 17 C-11.29875 16.401875 -10.5975 15.80375 -9.875 15.1875 C-6.4257954 11.78756975 -4.44472299 7.58931133 -2.234375 3.328125 C-1 1 -1 1 0 0 Z " fill="#03CAF6" transform="translate(231,243)"/>
<path d="M0 0 C1.65 0.33 3.3 0.66 5 1 C5.85637238 3.92593895 6.38673104 6.08174288 5.17578125 8.95703125 C4.17852152 10.67511732 3.09427085 12.34201387 2 14 C-1.875 13.125 -1.875 13.125 -3 12 C-2.32075472 3.71320755 -2.32075472 3.71320755 0 0 Z " fill="#F3DA5A" transform="translate(313,169)"/>
<path d="M0 0 C1 2 1 2 1.3125 4 C1.82922897 6.19743256 1.82922897 6.19743256 4.0625 7.25 C4.701875 7.4975 5.34125 7.745 6 8 C1.72309417 13.86547085 1.72309417 13.86547085 -1.6875 14.5 C-4 14 -4 14 -6 12 C-5.85884889 7.05971108 -2.9187003 3.7372288 0 0 Z " fill="#F1C65B" transform="translate(36,312)"/>
<path d="M0 0 C1 2 1 2 1.375 4.5 C1.78838835 7.34474481 1.78838835 7.34474481 5 9 C3.35 10.98 1.7 12.96 0 15 C-4.875 14.125 -4.875 14.125 -6 13 C-6.32893979 9.98300535 -6.23796544 8.40581606 -4.6875 5.76171875 C-4.130625 5.07722656 -3.57375 4.39273437 -3 3.6875 C-2.443125 2.99011719 -1.88625 2.29273438 -1.3125 1.57421875 C-0.6628125 0.79498047 -0.6628125 0.79498047 0 0 Z " fill="#F6CA5B" transform="translate(63,274)"/>
<path d="M0 0 C0.2475 0.61875 0.495 1.2375 0.75 1.875 C2.20628639 4.35068687 3.37812506 4.95125002 6 6 C4.92598892 8.91517292 4.22189824 10.77810176 2 13 C-1.125 12.625 -1.125 12.625 -4 12 C-4.8125 9.9375 -4.8125 9.9375 -5 7 C-3.58973707 4.45310725 -1.86023965 2.23357494 0 0 Z " fill="#F0C65B" transform="translate(88,239)"/>
<path d="M0 0 C2.0625 1.6875 2.0625 1.6875 4 4 C4.0625 6.5 4.0625 6.5 3 9 C-0.62992744 12.73669001 -4.07551267 13.8412971 -9 15 C-8.60167969 14.41992188 -8.20335938 13.83984375 -7.79296875 13.2421875 C-4.87248393 8.9360712 -2.18115554 4.725837 0 0 Z " fill="#03C8F4" transform="translate(111,301)"/>
<path d="M0 0 C2.4375 0.1875 2.4375 0.1875 3.4375 1.1875 C3.7007246 5.13586905 3.52747373 7.79129269 1.4375 11.1875 C-3.4375 10.3125 -3.4375 10.3125 -4.5625 9.1875 C-4.75 5.75 -4.75 5.75 -4.5625 2.1875 C-2.5625 0.1875 -2.5625 0.1875 0 0 Z " fill="#F7DC5A" transform="translate(182.5625,231.8125)"/>
<path d="M0 0 C1.65 0.33 3.3 0.66 5 1 C5.75 3.125 5.75 3.125 6 6 C4.0625 9.3125 4.0625 9.3125 2 12 C-0.38346353 11.07736896 -1.70891888 10.54335142 -2.9375 8.25 C-3.02882333 4.96236023 -1.59648343 2.80981084 0 0 Z " fill="#F4DB5A" transform="translate(200,199)"/>
<path d="M0 0 C1.65 0.33 3.3 0.66 5 1 C6.06351675 4.38391693 6.21442982 5.5804634 4.5625 8.8125 C4.046875 9.534375 3.53125 10.25625 3 11 C1.35 10.67 -0.3 10.34 -2 10 C-3.06351675 6.61608307 -3.21442982 5.4195366 -1.5625 2.1875 C-1.046875 1.465625 -0.53125 0.74375 0 0 Z " fill="#F9DE5A" transform="translate(219,167)"/>
<path d="M0 0 C3.82669043 3.42388092 5.72278474 6.00724943 7 11 C6.278125 10.54625 5.55625 10.0925 4.8125 9.625 C2.25105919 8.14505642 -0.23277989 7.02782461 -3 6 C-1.125 1.125 -1.125 1.125 0 0 Z " fill="#EFEEF2" transform="translate(121,275)"/>
<path d="M0 0 C4.875 0.875 4.875 0.875 6 2 C6.04063832 3.66617115 6.042721 5.33388095 6 7 C5.01 7.495 5.01 7.495 4 8 C1 6 1 6 0.3125 2.875 C0.209375 1.92625 0.10625 0.9775 0 0 Z " fill="#F1D75A" transform="translate(331,136)"/>
<path d="M0 0 C1.66611905 -0.042721 3.33382885 -0.04063832 5 0 C6 1 6 1 6.0625 3.5625 C6.041875 4.366875 6.02125 5.17125 6 6 C4.35 5.67 2.7 5.34 1 5 C0.67 3.35 0.34 1.7 0 0 Z " fill="#F8DF5A" transform="translate(14,344)"/>
<path d="M0 0 C0.99 0.99 1.98 1.98 3 3 C2 6 2 6 0.1875 7.25 C-2 8 -2 8 -6 7 C-4.02 4.69 -2.04 2.38 0 0 Z " fill="#07BCEA" transform="translate(399,204)"/>
<path d="M0 0 C0.99 0.99 1.98 1.98 3 3 C0.60490662 5.89932357 -1.31245243 6.50168276 -5 7 C-3.35 4.69 -1.7 2.38 0 0 Z " fill="#02BEED" transform="translate(270,257)"/>
</svg>
