<?xml version="1.0" encoding="UTF-8"?>
<svg version="1.1" xmlns="http://www.w3.org/2000/svg" width="512" height="512">
<path d="M0 0 C1.09397095 -0.00979385 2.18794189 -0.01958771 3.31506348 -0.02967834 C27.59262562 -0.20217862 51.3251123 -0.05301826 75.2734375 4.23828125 C76.4795166 4.45258789 77.6855957 4.66689453 78.92822266 4.88769531 C96.10512053 8.04841015 112.71835313 12.71545149 129.2734375 18.23828125 C130.19753418 18.53927734 131.12163086 18.84027344 132.07373047 19.15039062 C184.24175213 36.27200904 232.43068534 68.67540399 270.2734375 108.23828125 C271.70120463 111.09381551 271.4015741 113.51336669 271.40486526 116.70732784 C271.40794422 117.71993284 271.40794422 117.71993284 271.41108537 118.75299451 C271.4167842 121.03740959 271.41529459 123.32176493 271.41387939 125.60618591 C271.41646137 127.25157 271.41947406 128.89695346 271.4228828 130.54233605 C271.43097556 135.08125659 271.43274363 139.62016135 271.43348026 144.15908825 C271.43532684 149.04736771 271.4428721 153.93563888 271.44961548 158.82391357 C271.46321483 169.51993533 271.46922583 180.21595334 271.47362614 190.9119823 C271.47638549 197.58526931 271.48062224 204.25855487 271.48513031 210.9318409 C271.49732438 229.39340213 271.50762387 247.85496219 271.5110054 266.31652737 C271.51122497 267.49877933 271.51144453 268.68103129 271.51167075 269.89910907 C271.51188903 271.08425074 271.51210731 272.26939241 271.5123322 273.49044746 C271.51277567 275.89215052 271.51322224 278.29385358 271.51367188 280.69555664 C271.5138933 281.886894 271.51411473 283.07823136 271.51434287 284.30566985 C271.51829336 303.6222812 271.5357544 322.93885488 271.5590314 342.25545167 C271.58271422 362.0680384 271.59520583 381.8806062 271.59637332 401.69320732 C271.59729174 412.8251752 271.60308598 423.95709399 271.62119293 435.08904839 C271.63655248 444.56556705 271.64173896 454.04202147 271.63345483 463.51855021 C271.62953374 468.35734589 271.63054862 473.19601201 271.64451218 478.03479195 C271.65716404 482.45930653 271.6561311 486.88359304 271.64392146 491.30810691 C271.64194924 492.91374479 271.64511243 494.51939835 271.65376583 496.12501412 C271.66474148 498.29808924 271.65745537 500.47034265 271.6453743 502.64339352 C271.64626993 504.4581595 271.64626993 504.4581595 271.64718366 506.30958742 C271.2734375 509.23828125 271.2734375 509.23828125 270.26663852 511.12686652 C267.0224255 512.93584921 263.62821272 512.64744677 260.01028442 512.61580467 C258.72496468 512.62234516 258.72496468 512.62234516 257.41367888 512.62901777 C254.51667684 512.64004396 251.62014381 512.62951787 248.72314453 512.61923218 C246.63554196 512.62268583 244.54794122 512.62744842 242.46034431 512.63341391 C236.70366868 512.64599373 230.9471413 512.63972191 225.19046497 512.63045526 C218.98998294 512.62369357 212.78952718 512.63413163 206.58905029 512.64239502 C195.13765981 512.65499181 183.68633578 512.65386105 172.2349456 512.64566061 C161.65713392 512.63812268 151.07933968 512.63613976 140.50152588 512.63972855 C139.800676 512.6399577 139.09982612 512.64018686 138.37773837 512.64042296 C135.53297069 512.64135693 132.68820302 512.64231212 129.84343535 512.64330225 C103.14129822 512.65248532 76.43919137 512.64414924 49.73705891 512.62801156 C25.99851783 512.61377407 2.26002503 512.61504792 -21.47851562 512.62939453 C-48.13089553 512.64544819 -74.78324864 512.65183414 -101.43563271 512.64255774 C-104.27530542 512.64159555 -107.11497815 512.64065703 -109.95465088 512.63972855 C-110.65388325 512.63949131 -111.35311563 512.63925408 -112.07353686 512.63900966 C-122.64634229 512.63559301 -133.2191284 512.63959594 -143.79193115 512.64716721 C-155.81014877 512.65573048 -167.82829689 512.65334167 -179.84651232 512.63732497 C-185.98349528 512.62941695 -192.12038003 512.62639358 -198.25736237 512.63627243 C-203.86795094 512.64516763 -209.47834965 512.64037248 -215.08892083 512.62433977 C-217.12588126 512.6209699 -219.16285751 512.62273502 -221.19980788 512.62996714 C-223.95457444 512.63900263 -226.70867834 512.62982241 -229.46340942 512.61580467 C-230.26646963 512.62282817 -231.06952984 512.62985167 -231.89692521 512.637088 C-234.81070742 512.60716232 -237.14021192 512.56571227 -239.71871603 511.12581903 C-241.24047958 508.27579547 -241.1081704 505.88129296 -241.11525917 502.66015339 C-241.12081788 501.98542753 -241.12637659 501.31070167 -241.13210374 500.61552957 C-241.14714904 498.33810018 -241.14069435 496.06123113 -241.13442993 493.7837677 C-241.14074671 492.1410794 -241.14836015 490.49839565 -241.15716398 488.85571879 C-241.17752459 484.32867393 -241.17898857 479.80178708 -241.17737269 475.27470386 C-241.17881366 470.39722682 -241.19738692 465.51981057 -241.21362305 460.6423645 C-241.24578594 449.97085567 -241.25556082 439.29939507 -241.26126528 428.6278441 C-241.26501253 421.96673516 -241.27381686 415.30563918 -241.28376389 408.64453697 C-241.31071023 390.20868252 -241.33321424 371.77284062 -241.33564186 353.33696461 C-241.33579743 352.15650558 -241.33595301 350.97604655 -241.3361133 349.75981603 C-241.33640435 347.36663226 -241.33668973 344.97344849 -241.33696945 342.58026472 C-241.33711231 341.39225149 -241.33725516 340.20423825 -241.33740234 338.98022461 C-241.33754201 337.7907643 -241.33768168 336.601304 -241.33782558 335.37579944 C-241.34096097 316.10134642 -241.37754844 296.82711812 -241.4290386 277.5527393 C-241.48145869 257.77285535 -241.50775506 237.99308241 -241.50719297 218.21312732 C-241.50744582 207.10384377 -241.5187275 195.99481838 -241.55836868 184.88559914 C-241.59195232 175.42562889 -241.60147116 165.96601726 -241.57961173 156.50600598 C-241.56916154 151.67852468 -241.57004149 146.85174604 -241.60137558 142.02433968 C-241.62978581 137.60419139 -241.62584538 133.18529218 -241.5962166 128.76516279 C-241.59117727 127.16686214 -241.59795174 125.56847109 -241.61778112 123.97028551 C-241.77346896 110.54980319 -241.77346896 110.54980319 -237.30721092 105.37551403 C-236.14242393 104.29782545 -234.95209335 103.24635641 -233.7265625 102.23828125 C-232.66115234 101.10712891 -232.66115234 101.10712891 -231.57421875 99.953125 C-227.85450385 96.24968894 -224.06821336 92.67343857 -220.08203125 89.2578125 C-218.29977983 87.72974619 -216.53442815 86.18193969 -214.77734375 84.625 C-202.25274479 73.5891565 -188.89958665 63.71714363 -174.7890625 54.80078125 C-173.99564453 54.29772461 -173.20222656 53.79466797 -172.38476562 53.27636719 C-169.02209729 51.17505181 -165.71950545 49.23485288 -162.1484375 47.5 C-153.83243169 43.45691677 -151.25931126 38.60427406 -147.6640625 30.47265625 C-145.7859097 26.22927782 -143.53457607 22.33295077 -141.0390625 18.42578125 C-140.68239502 17.84562256 -140.32572754 17.26546387 -139.95825195 16.66772461 C-137.13783393 12.29656577 -134.35865737 9.95534462 -129.33203125 8.5859375 C-123.15902973 7.85794217 -118.71503969 8.32271379 -113.7265625 12.23828125 C-108.7265625 17.7127338 -108.7265625 17.7127338 -108.7265625 21.23828125 C-107.89858154 20.96677246 -107.07060059 20.69526367 -106.2175293 20.41552734 C-71.78149644 9.19717129 -36.44571129 0.27086278 0 0 Z " fill="#020202" transform="translate(240.7265625,-0.23828125)"/>
<path d="M0 0 C-2.65810637 2.07620065 -5.30312024 3.79117005 -8.2890625 5.35546875 C-9.13509033 5.80470703 -9.98111816 6.25394531 -10.8527832 6.71679688 C-12.22503052 7.44479492 -12.22503052 7.44479492 -13.625 8.1875 C-41.11106395 22.99673214 -66.73827018 40.16537222 -90.5625 60.3125 C-91.13444092 60.79203125 -91.70638184 61.2715625 -92.2956543 61.765625 C-95.95940995 64.90489998 -99.15200405 68.09129792 -102 72 C-102.18380366 75.71936606 -102.18380366 75.71936606 -101 79 C-98.14480238 81.30693209 -98.14480238 81.30693209 -94.7109375 80.984375 C-90.00203627 79.73527699 -87.94115536 77.67428552 -84.625 74.25 C-76.9455219 66.7412001 -68.64917035 60.34614851 -60 54 C-59.00540771 53.26015869 -59.00540771 53.26015869 -57.99072266 52.50537109 C15.29691344 -1.86581298 15.29691344 -1.86581298 48.99267578 3.07519531 C52.9992365 3.6924625 57.0017725 4.33086044 61 5 C61 5.66 61 6.32 61 7 C60.34741211 7.3309668 59.69482422 7.66193359 59.02246094 8.00292969 C25.58088426 25.02240811 -8.38742091 44.2617444 -35.50488281 70.55615234 C-36.95416144 71.9557333 -38.42600268 73.33183269 -39.8984375 74.70703125 C-53.26191958 87.49030612 -65.57155164 104.23943221 -66.4375 123.3125 C-66.30991348 131.23197751 -63.67691451 136.63473605 -58.8125 142.75 C-47.99954304 151.40036556 -35.11891407 155.97694356 -21.6875 158.8125 C-19.98122437 159.17698242 -19.98122437 159.17698242 -18.24047852 159.54882812 C-2.29458684 162.76669442 13.86254273 164.78914433 29.96728516 167.03173828 C117.46405252 179.22506143 117.46405252 179.22506143 152 199 C153.71123047 199.96873047 153.71123047 199.96873047 155.45703125 200.95703125 C162.87346127 205.33436538 169.54510751 210.30634685 176 216 C176.62261719 216.53882813 177.24523437 217.07765625 177.88671875 217.6328125 C195.25780158 233.74864226 204.49749251 257.38222231 205.41015625 280.7109375 C205.47012423 283.43250175 205.49281434 286.15282639 205.5 288.875 C205.50636475 290.14537109 205.51272949 291.41574219 205.51928711 292.72460938 C205.35643355 304.86546019 203.70807344 316.76129762 198.4375 327.8125 C197.98213867 328.83053711 197.98213867 328.83053711 197.51757812 329.86914062 C196.24962512 332.64537759 195.17411568 334.82588432 193 337 C192.05146095 335.39141764 191.10312083 333.78271779 190.15551758 332.17358398 C189.28654118 330.69856075 188.41655255 329.22413347 187.5456543 327.75024414 C184.81682128 323.12256091 182.12445638 318.47644114 179.46484375 313.80859375 C178.85979004 312.75349609 178.25473633 311.69839844 177.63134766 310.61132812 C176.44279086 308.53733641 175.26116199 306.45935491 174.08740234 304.37695312 C168.07648754 293.92590194 161.96763013 285.62615208 150 282 C139.33376226 280.46109008 128.9765521 281.52440792 119.875 287.5 C116.82576076 290.00107935 114.82470502 292.55048447 112.75390625 295.8984375 C112.14933594 296.87329102 111.54476563 297.84814453 110.921875 298.85253906 C110.28765625 299.89120117 109.6534375 300.92986328 109 302 C108.3503125 303.05155273 107.700625 304.10310547 107.03125 305.18652344 C105.01232168 308.48259183 103.03432306 311.80057212 101.0625 315.125 C100.03672852 316.79755859 100.03672852 316.79755859 98.99023438 318.50390625 C95.13784953 325.03872091 93.09031761 329.38442887 94 337 C94.65194336 337.11504883 95.30388672 337.23009766 95.97558594 337.34863281 C97.53059896 337.62304688 99.08561198 337.89746094 100.640625 338.171875 C103.09264682 338.20219445 103.09264682 338.20219445 105 336.54296875 C107.70604649 333.10227292 109.69566425 329.41824371 111.75 325.5625 C112.63479751 323.94295931 113.52153382 322.32447641 114.41015625 320.70703125 C114.84730957 319.90990723 115.28446289 319.1127832 115.73486328 318.29150391 C125.77012509 300.11493745 125.77012509 300.11493745 134 296 C136.0355088 295.79817901 138.08044021 295.68666886 140.125 295.625 C141.22070312 295.57601563 142.31640625 295.52703125 143.4453125 295.4765625 C149.54605475 296.37491356 153.58269206 299.2306659 157.40625 304.00390625 C158.12374864 305.17836309 158.82049239 306.36566143 159.5 307.5625 C159.90250977 308.23667969 160.30501953 308.91085937 160.71972656 309.60546875 C162.17073749 312.05691914 163.58665363 314.52664385 165 317 C165.58845703 318.02206543 166.17691406 319.04413086 166.78320312 320.09716797 C169.81457643 325.36506568 172.83198684 330.64054873 175.83103943 335.9269104 C180.71968237 344.54246701 185.70777735 353.09654736 190.74707031 361.625 C191.29331055 362.55441406 191.83955078 363.48382813 192.40234375 364.44140625 C192.88179443 365.25295166 193.36124512 366.06449707 193.85522461 366.90063477 C196.37484721 371.52128624 196.8053926 375.85970019 196 381 C193.48666624 387.47519195 190.14644863 391.64216874 184.04286194 394.92764282 C177.3314197 397.29287115 169.93802379 396.68903234 162.90234375 396.62890625 C161.14075067 396.62973621 159.37915767 396.63220037 157.61756897 396.63621521 C153.93841037 396.63906317 150.25986392 396.62446929 146.58081055 396.59692383 C141.88114587 396.56281738 137.182573 396.56887708 132.4828558 396.5875864 C128.84952298 396.59818817 125.2164413 396.58919026 121.58313179 396.57420158 C119.85090444 396.56904429 118.11865059 396.56947158 116.38642693 396.57574654 C113.96009377 396.58123854 111.53528942 396.56069996 109.10913086 396.53344727 C108.05139465 396.54323608 108.05139465 396.54323608 106.97229004 396.55322266 C101.07358022 396.44138346 95.78879321 394.63045923 91.46575832 390.55286503 C86.81882787 385.17079456 85.46188533 381.01577006 85.52734375 374.01171875 C86.22619898 369.55868256 88.40835428 366.32841477 90.71875 362.51953125 C92.00997379 359.98038692 92.3857976 358.7259418 92.0625 355.9375 C91.2287898 352.72369498 91.2287898 352.72369498 88 351 C83.9798476 350.48038069 83.9798476 350.48038069 80.5078125 352.18359375 C78.63247373 354.44274537 77.28042788 356.79720515 75.875 359.375 C75.09769531 360.77878906 75.09769531 360.77878906 74.3046875 362.2109375 C70.37909547 370.60277195 71.0235715 381.05526765 73.94921875 389.6796875 C76.47892432 395.26572881 80.52001157 399.86462607 85 404 C84.5625 406.75 84.5625 406.75 83 410 C81.20166016 411.07688904 81.20166016 411.07688904 78.9765625 411.99780273 C78.16485596 412.33520477 77.35314941 412.67260681 76.5168457 413.02023315 C72.64303295 414.52824507 68.74355416 415.93402332 64.8125 417.28515625 C63.05562209 417.8983395 61.29895673 418.51213201 59.54248047 419.12646484 C58.63673279 419.44234558 57.73098511 419.75822632 56.79779053 420.0836792 C16.3403223 433.72885559 16.3403223 433.72885559 -19 457 C-19.63164062 457.515625 -20.26328125 458.03125 -20.9140625 458.5625 C-27.54070576 464.40095221 -31.87824748 473.5129899 -34 482 C-95.38 482 -156.76 482 -220 482 C-220 474.76491867 -219.94071281 468.71938288 -218.5 461.8125 C-218.2371521 460.54780884 -218.2371521 460.54780884 -217.96899414 459.25756836 C-212.63332194 435.0295988 -203.27695564 411.93658891 -187 393 C-186.27296875 392.1234375 -185.5459375 391.246875 -184.796875 390.34375 C-155.08217055 355.71222396 -107.05474143 343.29184052 -63.70458984 337.51586914 C-60.97583538 337.13588639 -58.25546079 336.73505532 -55.53369141 336.31030273 C-42.6808739 334.30818017 -29.8104657 332.79524243 -16.875 331.4375 C-14.90230108 331.2276142 -12.92964465 331.01732864 -10.95703125 330.80664062 C-7.11681387 330.39690376 -3.27657644 329.9873578 0.5637207 329.57836914 C1.47304352 329.48145782 2.38236633 329.38454651 3.31924438 329.28469849 C5.07480222 329.09825678 6.83047489 328.91289259 8.58627319 328.72872925 C21.38790341 327.39464525 21.38790341 327.39464525 34.0625 325.1875 C34.8884668 325.01573242 35.71443359 324.84396484 36.56542969 324.66699219 C56.42477109 320.41196273 80.03853165 313.94220253 92 296 C97.05223888 286.51301811 99.36039703 277.89877555 99.375 267.1875 C99.39949219 266.25357422 99.42398437 265.31964844 99.44921875 264.35742188 C99.49733203 252.80221461 94.97184217 244.19437307 87 236 C78.96132159 228.79942169 69.96634235 223.95018694 60 220 C59.29423828 219.71946777 58.58847656 219.43893555 57.86132812 219.14990234 C32.44233797 209.34112316 4.73870414 205.2188964 -21.95703125 200.30859375 C-27.92306343 199.20750458 -33.87789526 198.07266332 -39.8125 196.8125 C-40.5235791 196.66973633 -41.2346582 196.52697266 -41.96728516 196.37988281 C-45.61573349 195.57938718 -47.59204957 194.83164487 -50 192 C-50.97912731 190.42475335 -51.90482913 188.8157814 -52.79296875 187.1875 C-53.3329248 186.20692627 -53.87288086 185.22635254 -54.42919922 184.21606445 C-55.00943848 183.15476318 -55.58967773 182.09346191 -56.1875 181 C-57.44181403 178.74226795 -58.69841081 176.48580293 -59.95703125 174.23046875 C-60.28360718 173.64524948 -60.61018311 173.06003021 -60.94665527 172.45707703 C-64.37890055 166.31198016 -67.82304042 160.17487099 -71.35293579 154.08520508 C-72.35294925 152.35074561 -73.3352619 150.60611882 -74.31713867 148.86132812 C-78.70286564 141.33938515 -82.86946669 136.74849999 -90.515625 132.65234375 C-97.97060529 130.69482534 -107.52114654 130.58213538 -114.3125 134.375 C-115.56486056 135.2164682 -116.79795267 136.08810203 -118 137 C-118.99 137.66 -119.98 138.32 -121 139 C-120.95961949 125.89652339 -117.70427366 115.51301545 -110.5625 104.5 C-108.65226543 101.49963157 -107.569777 99.58897645 -107.9375 96 C-108.75927075 92.72778248 -108.75927075 92.72778248 -112 91 C-114.95746492 90.41654524 -114.95746492 90.41654524 -118 91 C-131.08159636 105.15859526 -135.84255009 124.83859474 -135.37109375 143.5390625 C-135.21226763 146.55612084 -134.7937689 148.69039372 -133.91015625 151.6484375 C-132.17748356 158.02883735 -133.87446839 162.07563485 -137.01953125 167.65234375 C-138.27226606 169.75434545 -139.53698422 171.84924351 -140.8125 173.9375 C-150.79410389 189.32893022 -150.79410389 189.32893022 -153 207 C-151.19078063 214.01072505 -148.28677704 219.24164278 -144 225 C-144.37809814 225.66531738 -144.75619629 226.33063477 -145.14575195 227.01611328 C-146.86958258 230.05151396 -148.59106092 233.08824243 -150.3125 236.125 C-150.90740234 237.17171875 -151.50230469 238.2184375 -152.11523438 239.296875 C-152.69208984 240.31523437 -153.26894531 241.33359375 -153.86328125 242.3828125 C-154.65665894 243.78104248 -154.65665894 243.78104248 -155.46606445 245.20751953 C-160.52424707 254.41577877 -162.57505107 261.61160867 -159.9375 272 C-157.30183408 279.91931396 -152.29406923 285.75421268 -145.1875 290.02734375 C-139.83349626 292.40796327 -134.78035591 293.2533527 -128.95410156 293.29052734 C-128.28799866 293.29724457 -127.62189575 293.30396179 -126.93560791 293.31088257 C-124.75386905 293.329734 -122.57244002 293.33378043 -120.390625 293.3359375 C-118.85756306 293.34237536 -117.32450232 293.34910443 -115.79144287 293.35610962 C-112.58391475 293.36805101 -109.37649407 293.37179379 -106.16894531 293.37060547 C-102.08612871 293.37040269 -98.00401134 293.39767612 -93.92136002 293.43214989 C-90.7554822 293.45453931 -87.58976932 293.45843932 -84.4238205 293.45738602 C-82.92011868 293.45972501 -81.41641111 293.46845104 -79.91278839 293.48405075 C-68.83189754 293.58823519 -58.53357672 292.50630422 -49.49609375 285.484375 C-42.8380453 278.87847837 -40.43378598 270.7524314 -40.35742188 261.57495117 C-40.64336053 252.96298127 -44.61565156 246.21284169 -49 239 C-49.38414062 238.36803711 -49.76828125 237.73607422 -50.1640625 237.08496094 C-51.91830477 234.22238363 -53.69642489 231.38644108 -55.53125 228.57421875 C-57 226 -57 226 -57 223 C-56.34 223 -55.68 223 -55 223 C-54.72414062 222.43796875 -54.44828125 221.8759375 -54.1640625 221.296875 C-52.95631972 218.91381206 -51.67823191 216.5820992 -50.375 214.25 C-49.70597656 213.05117188 -49.70597656 213.05117188 -49.0234375 211.828125 C-48.68570313 211.22484375 -48.34796875 210.6215625 -48 210 C-41.94980911 210.67957576 -36.04230436 211.71196397 -30.078125 212.92578125 C-29.13805603 213.11464401 -28.19798706 213.30350677 -27.22943115 213.49809265 C-24.23573002 214.10016595 -21.24285431 214.70623281 -18.25 215.3125 C-15.3120544 215.90460455 -12.37394677 216.49590046 -9.43583679 217.08718872 C-7.48739213 217.47991365 -5.5391599 217.87369402 -3.59114075 218.26852417 C1.07955195 219.21477985 5.75172602 220.1497996 10.4309082 221.05322266 C19.97645278 222.90349005 29.36654236 224.94372851 38.6875 227.75 C39.82815918 228.09216553 40.96881836 228.43433105 42.14404297 228.78686523 C58.6178103 233.8841139 75.35651686 240.07129536 84 256 C86.81917983 264.4575395 86.26818443 276.89482977 82.3125 284.90234375 C72.45810881 300.65177253 55.42166373 305.6022062 38.28979492 309.68481445 C34.54036812 310.53103497 30.77631838 311.2843033 27 312 C26.3208252 312.12971191 25.64165039 312.25942383 24.94189453 312.39306641 C4.79884511 316.12541226 -15.87109775 317.99204526 -36.27172852 319.73486328 C-94.40862949 324.74094564 -159.16147443 337.70821173 -198.8828125 384.26953125 C-217.44367582 408.2068808 -228.23099772 435.18623729 -233 465 C-233.4163923 467.3861133 -233.84210421 469.77045098 -234.26855469 472.15478516 C-234.85452633 475.43499704 -235.42718197 478.71746829 -236 482 C-237.98 482 -239.96 482 -242 482 C-242.20597632 433.61615029 -242.36457494 385.23234486 -242.45958797 336.84814299 C-242.4708444 331.13663562 -242.48249329 325.42512912 -242.49438477 319.71362305 C-242.49674556 318.57655961 -242.49910635 317.43949618 -242.50153869 316.26797628 C-242.54070615 297.85402152 -242.61167031 279.44031951 -242.69437516 261.02651472 C-242.77852359 242.1338097 -242.82852576 223.2412371 -242.84679645 204.34835237 C-242.85914888 192.68921858 -242.8981688 181.03079914 -242.9712482 169.37188523 C-243.01880325 161.37811801 -243.03320527 153.38472037 -243.0215124 145.39082194 C-243.01574453 140.77768492 -243.02461592 136.16579651 -243.07284927 131.55288124 C-243.11671043 127.32723187 -243.11882433 123.1036681 -243.08809005 118.87792187 C-243.08429301 117.35148482 -243.09566412 115.82491664 -243.12394864 114.29873694 C-243.32237027 102.92878566 -243.32237027 102.92878566 -240.05142772 98.15784729 C-237.80975801 95.8844414 -235.5373496 93.93193934 -233 92 C-231.7847937 90.92438194 -230.57510294 89.84244381 -229.375 88.75 C-228.72015625 88.19054687 -228.0653125 87.63109375 -227.390625 87.0546875 C-225.50503152 85.43406304 -223.64723262 83.79297657 -221.796875 82.1328125 C-206.02567602 68.07811881 -188.16893131 54.10821891 -169 45 C-169.15984375 45.55945312 -169.3196875 46.11890625 -169.484375 46.6953125 C-170.67168543 52.00223032 -170.61577753 57.24989544 -168.8125 62.375 C-166.42182199 65.83736126 -163.7594239 68.12028805 -160 70 C-157.37139131 70.12325105 -154.77032915 70.18838709 -152.140625 70.203125 C-150.96762848 70.21167511 -150.96762848 70.21167511 -149.77093506 70.22039795 C-148.11325433 70.22985248 -146.45555478 70.23638373 -144.79785156 70.24023438 C-142.27374941 70.24990897 -139.75047239 70.28091411 -137.2265625 70.3125 C-135.61458816 70.31903335 -134.002608 70.32428252 -132.390625 70.328125 C-131.26530365 70.3466452 -131.26530365 70.3466452 -130.11724854 70.36553955 C-125.31948476 70.34536893 -122.07380798 69.53491523 -118 67 C-114.192771 62.98125828 -112.3873687 59.37263328 -111.5 53.9375 C-112.14879159 48.82826621 -114.32622069 45.19527573 -116.8828125 40.76953125 C-117.25148438 39.85558594 -117.62015625 38.94164062 -118 38 C-117.1875 36.08984375 -117.1875 36.08984375 -116 34 C-115.75827293 30.49130586 -115.75827293 30.49130586 -115.875 26.75 C-115.91666667 24.5 -115.95833333 22.25 -116 20 C-107.18969398 16.43902736 -98.36750522 13.45269673 -89.1875 11 C-88.2396312 10.74570221 -88.2396312 10.74570221 -87.27261353 10.48626709 C-73.13248327 6.73011997 -58.84115562 4.42060121 -44.35693359 2.45654297 C-41.58372253 2.07938626 -38.81742436 1.67567587 -36.05078125 1.25390625 C-24.08387772 -0.47631551 -12.06290897 -0.1980273 0 0 Z " fill="#CFCDE5" transform="translate(257,15)"/>
<path d="M0 0 C-2.65810637 2.07620065 -5.30312024 3.79117005 -8.2890625 5.35546875 C-9.13509033 5.80470703 -9.98111816 6.25394531 -10.8527832 6.71679688 C-12.22503052 7.44479492 -12.22503052 7.44479492 -13.625 8.1875 C-41.11106395 22.99673214 -66.73827018 40.16537222 -90.5625 60.3125 C-91.13444092 60.79203125 -91.70638184 61.2715625 -92.2956543 61.765625 C-95.95907032 64.90460897 -99.20931504 68.04741388 -102 72 C-102.10148825 74.21369669 -102.10148825 74.21369669 -101.3125 76.25 C-100.72959858 79.50869649 -100.88984188 80.77625106 -102.37890625 83.80078125 C-107.35810098 90.68980409 -107.35810098 90.68980409 -111.3984375 91.453125 C-113.75 91.3125 -113.75 91.3125 -115.921875 90.86328125 C-118.23652017 90.78377402 -118.23652017 90.78377402 -120.01953125 93.05859375 C-131.29068742 109.79859492 -137.35951648 127.65551933 -135 148 C-134.46052734 149.80597656 -134.46052734 149.80597656 -133.91015625 151.6484375 C-132.17748356 158.02883735 -133.87446839 162.07563485 -137.01953125 167.65234375 C-138.27226606 169.75434545 -139.53698422 171.84924351 -140.8125 173.9375 C-150.79410389 189.32893022 -150.79410389 189.32893022 -153 207 C-151.19078063 214.01072505 -148.28677704 219.24164278 -144 225 C-144.37809814 225.66531738 -144.75619629 226.33063477 -145.14575195 227.01611328 C-146.86958258 230.05151396 -148.59106092 233.08824243 -150.3125 236.125 C-150.90740234 237.17171875 -151.50230469 238.2184375 -152.11523438 239.296875 C-152.69208984 240.31523437 -153.26894531 241.33359375 -153.86328125 242.3828125 C-154.65665894 243.78104248 -154.65665894 243.78104248 -155.46606445 245.20751953 C-160.52424707 254.41577877 -162.57505107 261.61160867 -159.9375 272 C-157.30183408 279.91931396 -152.29406923 285.75421268 -145.1875 290.02734375 C-139.83349626 292.40796327 -134.78035591 293.2533527 -128.95410156 293.29052734 C-128.28799866 293.29724457 -127.62189575 293.30396179 -126.93560791 293.31088257 C-124.75386905 293.329734 -122.57244002 293.33378043 -120.390625 293.3359375 C-118.85756306 293.34237536 -117.32450232 293.34910443 -115.79144287 293.35610962 C-112.58391475 293.36805101 -109.37649407 293.37179379 -106.16894531 293.37060547 C-102.08612871 293.37040269 -98.00401134 293.39767612 -93.92136002 293.43214989 C-90.7554822 293.45453931 -87.58976932 293.45843932 -84.4238205 293.45738602 C-82.92011868 293.45972501 -81.41641111 293.46845104 -79.91278839 293.48405075 C-68.83189754 293.58823519 -58.53357672 292.50630422 -49.49609375 285.484375 C-42.8380453 278.87847837 -40.43378598 270.7524314 -40.35742188 261.57495117 C-40.64336053 252.96298127 -44.61565156 246.21284169 -49 239 C-49.38414062 238.36803711 -49.76828125 237.73607422 -50.1640625 237.08496094 C-51.91830477 234.22238363 -53.69642489 231.38644108 -55.53125 228.57421875 C-57 226 -57 226 -57 223 C-56.34 223 -55.68 223 -55 223 C-54.72414062 222.43796875 -54.44828125 221.8759375 -54.1640625 221.296875 C-52.95631972 218.91381206 -51.67823191 216.5820992 -50.375 214.25 C-49.70597656 213.05117188 -49.70597656 213.05117188 -49.0234375 211.828125 C-48.68570313 211.22484375 -48.34796875 210.6215625 -48 210 C-41.94980911 210.67957576 -36.04230436 211.71196397 -30.078125 212.92578125 C-29.13805603 213.11464401 -28.19798706 213.30350677 -27.22943115 213.49809265 C-24.23573002 214.10016595 -21.24285431 214.70623281 -18.25 215.3125 C-15.3120544 215.90460455 -12.37394677 216.49590046 -9.43583679 217.08718872 C-7.48739213 217.47991365 -5.5391599 217.87369402 -3.59114075 218.26852417 C1.07955195 219.21477985 5.75172602 220.1497996 10.4309082 221.05322266 C19.97645278 222.90349005 29.36654236 224.94372851 38.6875 227.75 C39.82815918 228.09216553 40.96881836 228.43433105 42.14404297 228.78686523 C58.6178103 233.8841139 75.35651686 240.07129536 84 256 C86.81917983 264.4575395 86.26818443 276.89482977 82.3125 284.90234375 C72.45810881 300.65177253 55.42166373 305.6022062 38.28979492 309.68481445 C34.54036812 310.53103497 30.77631838 311.2843033 27 312 C26.3208252 312.12971191 25.64165039 312.25942383 24.94189453 312.39306641 C4.79884511 316.12541226 -15.87109775 317.99204526 -36.27172852 319.73486328 C-94.40862949 324.74094564 -159.16147443 337.70821173 -198.8828125 384.26953125 C-217.44367582 408.2068808 -228.23099772 435.18623729 -233 465 C-233.4163923 467.3861133 -233.84210421 469.77045098 -234.26855469 472.15478516 C-234.85452633 475.43499704 -235.42718197 478.71746829 -236 482 C-237.98 482 -239.96 482 -242 482 C-242.20597632 433.61615029 -242.36457494 385.23234486 -242.45958797 336.84814299 C-242.4708444 331.13663562 -242.48249329 325.42512912 -242.49438477 319.71362305 C-242.49674556 318.57655961 -242.49910635 317.43949618 -242.50153869 316.26797628 C-242.54070615 297.85402152 -242.61167031 279.44031951 -242.69437516 261.02651472 C-242.77852359 242.1338097 -242.82852576 223.2412371 -242.84679645 204.34835237 C-242.85914888 192.68921858 -242.8981688 181.03079914 -242.9712482 169.37188523 C-243.01880325 161.37811801 -243.03320527 153.38472037 -243.0215124 145.39082194 C-243.01574453 140.77768492 -243.02461592 136.16579651 -243.07284927 131.55288124 C-243.11671043 127.32723187 -243.11882433 123.1036681 -243.08809005 118.87792187 C-243.08429301 117.35148482 -243.09566412 115.82491664 -243.12394864 114.29873694 C-243.32237027 102.92878566 -243.32237027 102.92878566 -240.05142772 98.15784729 C-237.80975801 95.8844414 -235.5373496 93.93193934 -233 92 C-231.7847937 90.92438194 -230.57510294 89.84244381 -229.375 88.75 C-228.72015625 88.19054687 -228.0653125 87.63109375 -227.390625 87.0546875 C-225.50503152 85.43406304 -223.64723262 83.79297657 -221.796875 82.1328125 C-206.02567602 68.07811881 -188.16893131 54.10821891 -169 45 C-169.15984375 45.55945312 -169.3196875 46.11890625 -169.484375 46.6953125 C-170.67168543 52.00223032 -170.61577753 57.24989544 -168.8125 62.375 C-166.42182199 65.83736126 -163.7594239 68.12028805 -160 70 C-157.37139131 70.12325105 -154.77032915 70.18838709 -152.140625 70.203125 C-150.96762848 70.21167511 -150.96762848 70.21167511 -149.77093506 70.22039795 C-148.11325433 70.22985248 -146.45555478 70.23638373 -144.79785156 70.24023438 C-142.27374941 70.24990897 -139.75047239 70.28091411 -137.2265625 70.3125 C-135.61458816 70.31903335 -134.002608 70.32428252 -132.390625 70.328125 C-131.26530365 70.3466452 -131.26530365 70.3466452 -130.11724854 70.36553955 C-125.31948476 70.34536893 -122.07380798 69.53491523 -118 67 C-114.192771 62.98125828 -112.3873687 59.37263328 -111.5 53.9375 C-112.14879159 48.82826621 -114.32622069 45.19527573 -116.8828125 40.76953125 C-117.25148438 39.85558594 -117.62015625 38.94164062 -118 38 C-117.1875 36.08984375 -117.1875 36.08984375 -116 34 C-115.75827293 30.49130586 -115.75827293 30.49130586 -115.875 26.75 C-115.91666667 24.5 -115.95833333 22.25 -116 20 C-107.18969398 16.43902736 -98.36750522 13.45269673 -89.1875 11 C-88.2396312 10.74570221 -88.2396312 10.74570221 -87.27261353 10.48626709 C-73.13248327 6.73011997 -58.84115562 4.42060121 -44.35693359 2.45654297 C-41.58372253 2.07938626 -38.81742436 1.67567587 -36.05078125 1.25390625 C-24.08387772 -0.47631551 -12.06290897 -0.1980273 0 0 Z " fill="#DCD9EB" transform="translate(257,15)"/>
<path d="M0 0 C1.75461462 0.5105807 3.5092341 1.02114474 5.26391602 1.53149414 C49.32705 14.6989777 93.30985954 38.16673384 127.05323792 69.56587887 C129.62521086 71.90221032 132.19497421 73.81150515 135.1502533 75.63267612 C141.29771543 79.76351731 146.00210879 84.14734396 147.90803909 91.50575519 C149.29060669 101.60488428 149.04742545 111.78180029 148.85704994 121.95186341 C148.78749611 126.61624735 148.81136791 131.28031121 148.82348633 135.94506836 C148.83184798 144.01277974 148.78195334 152.07840968 148.69168091 160.14559746 C148.56125429 171.80879709 148.51993883 183.47099749 148.49987304 195.13484729 C148.46491548 214.06125226 148.35860417 232.98654949 148.20703125 251.91235352 C148.0600081 270.28925054 147.94683219 288.66584593 147.87890625 307.04321289 C147.87260089 308.74436958 147.87260089 308.74436958 147.86616814 310.47989308 C147.84528648 316.16976282 147.8250674 321.85963469 147.80517769 327.54950798 C147.63949907 374.70044634 147.3566612 421.85014841 147 469 C138.09 469 129.18 469 120 469 C121.65 465.7 123.3 462.4 125 459 C128.85993881 446.13353729 127.3634341 435.43943467 121.23583984 423.58789062 C119.22317519 419.91593522 117.1144551 416.30144345 115 412.6875 C114.2804931 411.43988933 113.56173894 410.19184424 112.84375 408.94335938 C108.97082863 402.2339281 108.97082863 402.2339281 104.765625 395.72973633 C103 393 103 393 103 391 C103.886875 390.29875 104.77375 389.5975 105.6875 388.875 C112.87948092 383.05695883 116.15428214 374.52852932 117.3203125 365.52734375 C117.70929125 357.34582402 114.99041794 349.97009411 110.625 343.125 C109 340 109 340 109.66015625 337.76171875 C110.97962249 335.04200262 112.35603242 332.35759966 113.76708984 329.68432617 C122.4595627 313.08093162 126.39352172 296.508412 126.25 277.75 C126.24250732 276.46383789 126.23501465 275.17767578 126.22729492 273.85253906 C125.87286724 242.60746163 115.70980458 214.82335159 93.22631836 192.68945312 C76.91164018 177.33114452 55.95796134 167.3268412 35 160 C33.91162842 159.61400635 33.91162842 159.61400635 32.80126953 159.22021484 C-0.75503078 147.47959925 -36.8421907 143.49959228 -71.89477539 138.62890625 C-133.60236019 130.05235636 -133.60236019 130.05235636 -144 117 C-146.89373744 108.31878767 -143.88985702 100.89490343 -140 93 C-130.6048772 77.05954702 -116.51526977 64.2005915 -101.74316406 53.29003906 C-99.96975968 51.97762047 -98.21486919 50.64298645 -96.4609375 49.3046875 C-81.48061184 37.97898724 -65.34697771 28.47819314 -49.05664062 19.18261719 C-46.2893488 17.59135869 -43.55298623 15.94938502 -40.8125 14.3125 C-34.93875087 10.87722176 -28.88500477 7.85095151 -22.76953125 4.875 C-20.47635799 3.75442668 -18.28958017 2.59025185 -16.07421875 1.3125 C-9.86801923 -2.23941512 -6.66286901 -2.33299271 0 0 Z " fill="#F7F4F7" transform="translate(350,28)"/>
<path d="M0 0 C6.05019089 0.67957576 11.95769564 1.71196397 17.921875 2.92578125 C18.86194397 3.11464401 19.80201294 3.30350677 20.77056885 3.49809265 C23.76426998 4.10016595 26.75714569 4.70623281 29.75 5.3125 C32.6879456 5.90460455 35.62605323 6.49590046 38.56416321 7.08718872 C40.51260787 7.47991365 42.4608401 7.87369402 44.40885925 8.26852417 C49.07955195 9.21477985 53.75172602 10.1497996 58.4309082 11.05322266 C67.97645278 12.90349005 77.36654236 14.94372851 86.6875 17.75 C87.82815918 18.09216553 88.96881836 18.43433105 90.14404297 18.78686523 C106.6178103 23.8841139 123.35651686 30.07129536 132 46 C134.81917983 54.4575395 134.26818443 66.89482977 130.3125 74.90234375 C120.45810881 90.65177253 103.42166373 95.6022062 86.28979492 99.68481445 C82.54036812 100.53103497 78.77631838 101.2843033 75 102 C73.98123779 102.19456787 73.98123779 102.19456787 72.94189453 102.39306641 C52.79884511 106.12541226 32.12890225 107.99204526 11.72827148 109.73486328 C-21.50077006 112.59616679 -53.03995062 119.41198519 -85 129 C-85 114.15 -85 99.3 -85 84 C-80.29105469 83.97421875 -75.58210937 83.9484375 -70.73046875 83.921875 C-67.72716097 83.89667498 -64.72395076 83.87031807 -61.72070312 83.83984375 C-56.9655739 83.79170148 -52.21067089 83.74758526 -47.45532227 83.72900391 C-43.61654165 83.7137339 -39.77835741 83.679109 -35.93984413 83.63169098 C-34.48366832 83.61698275 -33.0274073 83.60896512 -31.57115746 83.60811615 C-20.24206303 83.59488279 -8.4689928 82.40265604 0 74 C6.29350805 65.74291744 8.28523363 57.52123489 7.37597656 47.19042969 C6.23732388 40.55666871 2.44882147 34.67377425 -1 29 C-1.57621094 28.05205566 -1.57621094 28.05205566 -2.1640625 27.08496094 C-3.91830477 24.22238363 -5.69642489 21.38644108 -7.53125 18.57421875 C-9 16 -9 16 -9 13 C-8.34 13 -7.68 13 -7 13 C-6.72414063 12.43796875 -6.44828125 11.8759375 -6.1640625 11.296875 C-4.95631972 8.91381206 -3.67823191 6.5820992 -2.375 4.25 C-1.70597656 3.05117187 -1.70597656 3.05117187 -1.0234375 1.828125 C-0.68570313 1.22484375 -0.34796875 0.6215625 0 0 Z " fill="#F7F4F7" transform="translate(209,225)"/>
<path d="M0 0 C0.77467621 0.0143811 1.54935242 0.02876221 2.34750366 0.0435791 C3.57711067 0.04270294 3.57711067 0.04270294 4.83155823 0.04180908 C7.54278824 0.04459724 10.25292066 0.07572298 12.96395874 0.10705566 C14.84296569 0.11451547 16.72198042 0.12020963 18.60099792 0.12420654 C23.54794778 0.1394834 28.49442829 0.17878286 33.44119263 0.22302246 C38.48843028 0.26393096 43.53574373 0.2822081 48.58309937 0.30236816 C58.48760252 0.34527514 68.39175723 0.41355127 78.29598999 0.49768066 C78.74925659 1.29351562 79.20252319 2.08935059 79.66952515 2.90930176 C81.37955884 5.91046973 83.09061856 8.91104809 84.80233765 11.91125488 C85.5377646 13.20073986 86.27280215 14.49044701 87.00741577 15.78039551 C88.07389337 17.65291484 89.14155269 19.52475205 90.21005249 21.39611816 C90.55852234 22.00654968 90.90699219 22.6169812 91.26602173 23.24591064 C93.82963765 27.72105404 96.47244383 32.14218988 99.18026733 36.53137207 C102.1800042 41.81799805 101.83488271 47.59979925 101.29598999 53.49768066 C99.20093058 60.46603043 94.31081401 65.5504524 88.29598999 69.49768066 C83.63178185 71.91196258 79.27755202 71.800097 74.15048218 71.80407715 C72.78118813 71.81656242 72.78118813 71.81656242 71.38423157 71.82929993 C68.37039912 71.85336795 65.35678332 71.86216879 62.34286499 71.86877441 C60.24164771 71.87774415 58.14043108 71.88686606 56.03921509 71.89613342 C51.63439382 71.91261798 47.2296485 71.9203224 42.82479858 71.92321777 C37.19472416 71.92859666 31.56536888 71.96625914 25.93549728 72.01196194 C21.59446643 72.04178273 17.25360757 72.04894245 12.91248322 72.04994392 C10.83773764 72.0541373 8.76299114 72.06653596 6.68834686 72.08746147 C3.77806059 72.11447563 0.86942573 72.10952012 -2.04092407 72.0970459 C-2.88903152 72.11188019 -3.73713898 72.12671448 -4.61094666 72.14199829 C-11.73687924 72.05551495 -17.45714001 69.66445023 -22.59399796 64.65431881 C-27.28343444 59.44480259 -29.02711547 55.5625563 -29.20401001 48.43518066 C-29.25557251 47.2067041 -29.30713501 45.97822754 -29.36026001 44.71252441 C-28.91159854 38.9510971 -25.58699005 34.35768636 -22.70401001 29.49768066 C-21.5174241 27.36667261 -20.33656679 25.23246611 -19.16104126 23.09533691 C-17.94684947 20.91658804 -16.73200074 18.73820515 -15.51651001 16.56018066 C-14.90098267 15.45094238 -14.28545532 14.3417041 -13.65127563 13.19885254 C-13.05637329 12.13344238 -12.46147095 11.06803223 -11.84854126 9.97033691 C-11.31591675 9.01393311 -10.78329224 8.0575293 -10.23452759 7.07214355 C-9.72945679 6.2225708 -9.22438599 5.37299805 -8.70401001 4.49768066 C-8.16325333 3.44208199 -8.16325333 3.44208199 -7.61157227 2.36515808 C-5.17404702 -0.02114587 -3.32448775 0.02571372 0 0 Z " fill="#B2E49E" transform="translate(361.7040100097656,425.5023193359375)"/>
<path d="M0 0 C1.09570312 -0.04898437 2.19140625 -0.09796875 3.3203125 -0.1484375 C9.42105475 0.74991356 13.45769206 3.6056659 17.28125 8.37890625 C17.99874864 9.55336309 18.69549239 10.74066143 19.375 11.9375 C19.77750977 12.61167969 20.18001953 13.28585937 20.59472656 13.98046875 C22.04573749 16.43191914 23.46165363 18.90164385 24.875 21.375 C25.75768555 22.90809814 25.75768555 22.90809814 26.65820312 24.47216797 C29.68957643 29.74006568 32.70698684 35.01554873 35.70603943 40.3019104 C40.59468237 48.91746701 45.58277735 57.47154736 50.62207031 66 C51.16831055 66.92941406 51.71455078 67.85882813 52.27734375 68.81640625 C52.75679443 69.62795166 53.23624512 70.43949707 53.73022461 71.27563477 C56.24984721 75.89628624 56.6803926 80.23470019 55.875 85.375 C53.36166624 91.85019195 50.02144863 96.01716874 43.91786194 99.30264282 C37.2064197 101.66787115 29.81302379 101.06403234 22.77734375 101.00390625 C21.01575067 101.00473621 19.25415767 101.00720037 17.49256897 101.01121521 C13.81341037 101.01406317 10.13486392 100.99946929 6.45581055 100.97192383 C1.75614587 100.93781738 -2.942427 100.94387708 -7.6421442 100.9625864 C-11.27547702 100.97318817 -14.9085587 100.96419026 -18.54186821 100.94920158 C-20.27409556 100.94404429 -22.00634941 100.94447158 -23.73857307 100.95074654 C-26.16490623 100.95623854 -28.58971058 100.93569996 -31.01586914 100.90844727 C-31.72102661 100.91497314 -32.42618408 100.92149902 -33.15270996 100.92822266 C-39.05141978 100.81638346 -44.33620679 99.00545923 -48.65924168 94.92786503 C-53.30617213 89.54579456 -54.66311467 85.39077006 -54.59765625 78.38671875 C-53.89866711 73.93282924 -51.71464631 70.70165665 -49.40625 66.890625 C-48.12228905 64.36967728 -47.73700722 63.14168861 -48.0625 60.375 C-49.06773318 57.53669456 -49.72934249 56.14570338 -52.125 54.375 C-51.465 54.375 -50.805 54.375 -50.125 54.375 C-49.856875 53.529375 -49.58875 52.68375 -49.3125 51.8125 C-48.0771405 48.23645933 -46.648012 44.83639092 -45.125 41.375 C-44.465 41.705 -43.805 42.035 -43.125 42.375 C-38.85949349 42.86065915 -38.85949349 42.86065915 -35.2265625 40.8828125 C-32.39115806 37.49930013 -30.44501899 33.82267928 -28.375 29.9375 C-27.49020249 28.31795931 -26.60346618 26.69947641 -25.71484375 25.08203125 C-25.27769043 24.28490723 -24.84053711 23.4877832 -24.39013672 22.66650391 C-12.07710106 0.36427451 -12.07710106 0.36427451 0 0 Z " fill="#B2E49E" transform="translate(397.125,310.625)"/>
<path d="M0 0 C7.81592 2.65183 11.81521387 8.87907731 15.6875 15.75 C16.55434798 17.25800772 17.42154642 18.76581402 18.2890625 20.2734375 C18.7315332 21.0478418 19.17400391 21.82224609 19.62988281 22.62011719 C21.01251314 25.02173522 22.41937187 27.40732139 23.8359375 29.7890625 C24.29266846 30.55766602 24.74939941 31.32626953 25.2199707 32.11816406 C26.09997473 33.5974798 26.98127651 35.07602449 27.86401367 36.55371094 C31.14747256 42.10325649 32.85414581 46.50399637 32 53 C31.13352218 55.40250669 30.11762545 57.64014427 28.97265625 59.921875 C28.65167969 60.60765625 28.33070313 61.2934375 28 62 C27.71382813 62.60457031 27.42765625 63.20914063 27.1328125 63.83203125 C26.91424161 67.39987964 28.98964829 70.01045046 30.8125 72.9375 C35.09959838 79.99288181 38.27647811 85.59651913 37 94 C34.70723593 100.79640778 31.12450309 106.15920993 25 110 C21.46287935 111.62862911 18.67118675 112.25719189 14.78588867 112.29052734 C13.77100876 112.30328705 12.75612885 112.31604675 11.710495 112.32919312 C10.0806945 112.33253159 10.0806945 112.33253159 8.41796875 112.3359375 C7.28982254 112.3425943 6.16167633 112.3492511 4.99934387 112.35610962 C2.61473213 112.36622451 0.23009215 112.370927 -2.15454102 112.37060547 C-5.78905305 112.37497183 -9.42234385 112.41128709 -13.05664062 112.44921875 C-15.37760003 112.45508859 -17.69856518 112.45905686 -20.01953125 112.4609375 C-21.09999222 112.47530853 -22.18045319 112.48967957 -23.2936554 112.50448608 C-30.8065738 112.45935547 -36.09202031 111.29375891 -41.98828125 106.32421875 C-46.46891403 100.78620951 -49.82151954 95.21778493 -49.62890625 87.80859375 C-47.90766931 80.12182754 -43.32706372 72.49059558 -39 66 C-39.4856269 62.20748513 -41.43540412 58.97294855 -43.16015625 55.609375 C-44.80427596 50.50113331 -44.72350528 46.0145104 -42.453125 41.203125 C-41.73754189 39.87511796 -41.00200013 38.55772998 -40.25 37.25 C-39.65360718 36.17613037 -39.65360718 36.17613037 -39.04516602 35.08056641 C-37.71590428 32.70901083 -36.35825317 30.35505461 -35 28 C-34.51321777 27.13536133 -34.02643555 26.27072266 -33.52490234 25.37988281 C-32.01454776 22.7003315 -30.48041709 20.03591579 -28.9375 17.375 C-28.46795898 16.54645508 -27.99841797 15.71791016 -27.51464844 14.86425781 C-20.461409 2.96705271 -13.7010824 -0.91897504 0 0 Z " fill="#030303" transform="translate(367,51)"/>
<path d="M0 0 C1.13581009 -0.07716248 2.27162018 -0.15432495 3.44184875 -0.23382568 C8.67054285 -0.46589939 13.89797519 -0.66332876 19.13037109 -0.78515625 C21.88355109 -0.85608695 24.62001044 -0.99424297 27.36669922 -1.1953125 C45.50888605 -2.49404859 45.50888605 -2.49404859 53.46557617 0.83496094 C60.57310498 7.23477112 64.03660206 16.10798913 67.46557617 24.83496094 C67.83395096 25.56120667 68.20232574 26.28745239 68.5818634 27.03570557 C70.38297913 30.70281015 69.98557003 34.86922463 69.46557617 38.83496094 C67.65307617 42.27246094 67.65307617 42.27246094 65.46557617 44.83496094 C65.01182617 45.41246094 64.55807617 45.98996094 64.09057617 46.58496094 C59.87874559 49.82483061 54.89190244 50.09400126 49.76098633 50.14135742 C47.78831284 50.16533852 47.78831284 50.16533852 45.77578735 50.18980408 C44.3520751 50.19618134 42.92835815 50.2015739 41.50463867 50.20605469 C40.0302217 50.21503248 38.55580561 50.22415452 37.08139038 50.2334137 C33.99653925 50.24986234 30.91179612 50.25759636 27.8269043 50.26049805 C23.89046407 50.26588083 19.95505047 50.30357267 16.01889992 50.34924221 C12.97494879 50.37910674 9.93124229 50.3862236 6.88715744 50.3872242 C5.43677437 50.39140714 3.98638927 50.40376358 2.53615189 50.42474174 C-11.06730729 50.60588315 -11.06730729 50.60588315 -17.07559204 46.28749084 C-20.77138442 42.6076636 -22.40610771 38.72300065 -22.75634766 33.56958008 C-22.511934 29.45649342 -21.61811488 27.3666176 -19.57739258 23.82324219 C-18.95928711 22.73591797 -18.34118164 21.64859375 -17.7043457 20.52832031 C-17.05014648 19.41263672 -16.39594727 18.29695313 -15.72192383 17.14746094 C-14.75802734 15.4565332 -14.75802734 15.4565332 -13.7746582 13.73144531 C-12.05952147 10.74373045 -10.34187437 7.76775912 -8.53442383 4.83496094 C-8.12004059 4.13777451 -7.70565735 3.44058807 -7.27871704 2.72227478 C-4.91560731 0.16540552 -3.43932117 0.21858528 0 0 Z " fill="#B2E49E" transform="translate(132.534423828125,244.1650390625)"/>
<path d="M0 0 C7.66851327 3.06003174 10.25541732 8.70957449 14.0625 15.75 C15.03412511 17.4989252 16.00578722 19.24783158 16.98005676 20.99528503 C17.64720081 22.19357409 18.31205021 23.39314342 18.97465515 24.59394836 C21.25844504 28.7220745 23.64003761 32.77421059 26.0859375 36.80859375 C26.73296631 37.88206055 27.37999512 38.95552734 28.04663086 40.06152344 C29.28187967 42.10363134 30.52708596 44.13975814 31.78344727 46.16894531 C34.88634773 51.3574166 36.97441741 54.90989121 36 61 C33.68572653 65.45711927 31.46966093 67.78600304 27 70 C24.15454102 70.38095093 24.15454102 70.38095093 21.00390625 70.38818359 C19.81917725 70.39764008 18.63444824 70.40709656 17.41381836 70.4168396 C16.1428833 70.41076691 14.87194824 70.40469421 13.5625 70.3984375 C11.59325562 70.40274277 11.59325562 70.40274277 9.58422852 70.40713501 C6.81027596 70.41154861 4.03661398 70.40515885 1.26269531 70.39111328 C-2.28487785 70.37402145 -5.83177003 70.38386788 -9.37931824 70.40183067 C-12.7737661 70.41530585 -16.16803282 70.40585867 -19.5625 70.3984375 C-20.83343506 70.40451019 -22.10437012 70.41058289 -23.41381836 70.4168396 C-25.19091187 70.40265488 -25.19091187 70.40265488 -27.00390625 70.38818359 C-28.04361572 70.38579681 -29.0833252 70.38341003 -30.15454102 70.38095093 C-33.46347361 69.93795001 -35.32417003 68.96948119 -38 67 C-40.77047567 62.79651967 -41.9554808 58.96195346 -41 54 C-39.29414507 50.02522247 -37.12854515 46.34948694 -34.9375 42.625 C-34.31423828 41.54387939 -33.69097656 40.46275879 -33.04882812 39.34887695 C-31.72590379 37.063601 -30.39746713 34.78287133 -29.05810547 32.50732422 C-27.33577939 29.5798911 -25.63895504 26.63857823 -23.9488678 23.69244385 C-22.31310167 20.8493696 -20.65574669 18.01897034 -19 15.1875 C-18.39019287 14.1267627 -17.78038574 13.06602539 -17.15209961 11.97314453 C-13.01253157 5.00201868 -9.12413395 -1.48965452 0 0 Z " fill="#B1E39E" transform="translate(159,160)"/>
<path d="M0 0 C0.77467621 0.0143811 1.54935242 0.02876221 2.34750366 0.0435791 C3.57711067 0.04270294 3.57711067 0.04270294 4.83155823 0.04180908 C7.54278824 0.04459724 10.25292066 0.07572298 12.96395874 0.10705566 C14.84296569 0.11451547 16.72198042 0.12020963 18.60099792 0.12420654 C23.54794778 0.1394834 28.49442829 0.17878286 33.44119263 0.22302246 C38.48843028 0.26393096 43.53574373 0.2822081 48.58309937 0.30236816 C58.48763569 0.34527528 68.3917004 0.41564188 78.29598999 0.49768066 C81.26598999 5.77768066 84.23598999 11.05768066 87.29598999 16.49768066 C84.85465762 18.93901304 83.55490188 18.73226198 80.22409058 18.746521 C79.520625 18.73933044 78.81715942 18.73213989 78.09237671 18.72473145 C77.35081329 18.7250235 76.60924988 18.72531555 75.84521484 18.72561646 C73.38858428 18.72422061 70.93225521 18.70864765 68.47567749 18.69299316 C66.77459885 18.68926394 65.07351807 18.68641654 63.37243652 18.68441772 C58.89088023 18.67677415 54.40945316 18.65711951 49.927948 18.63500977 C45.35663603 18.61456688 40.78530322 18.60541935 36.21395874 18.59533691 C27.24124565 18.57387426 18.26862856 18.53972963 9.29598999 18.49768066 C9.16466675 19.23736084 9.03334351 19.97704102 8.89804077 20.73913574 C8.72256714 21.71777588 8.54709351 22.69641602 8.36630249 23.70471191 C8.19372925 24.67126709 8.02115601 25.63782227 7.84335327 26.63366699 C7.35765823 29.17500889 6.78974512 31.67369523 6.17098999 34.18518066 C3.6519602 46.88109082 5.23330231 59.30961763 9.29598999 71.49768066 C5.98397091 71.64491171 2.6728094 71.73237974 -0.64151001 71.81018066 C-1.56770142 71.8520752 -2.49389282 71.89396973 -3.44815063 71.93713379 C-10.35021835 72.0582227 -15.14309455 70.65100269 -20.70401001 66.49768066 C-26.39349397 60.92907705 -29.00267873 56.54715338 -29.20401001 48.43518066 C-29.25557251 47.2067041 -29.30713501 45.97822754 -29.36026001 44.71252441 C-28.91159854 38.9510971 -25.58699005 34.35768636 -22.70401001 29.49768066 C-21.5174241 27.36667261 -20.33656679 25.23246611 -19.16104126 23.09533691 C-17.94684947 20.91658804 -16.73200074 18.73820515 -15.51651001 16.56018066 C-14.90098267 15.45094238 -14.28545532 14.3417041 -13.65127563 13.19885254 C-13.05637329 12.13344238 -12.46147095 11.06803223 -11.84854126 9.97033691 C-11.31591675 9.01393311 -10.78329224 8.0575293 -10.23452759 7.07214355 C-9.72945679 6.2225708 -9.22438599 5.37299805 -8.70401001 4.49768066 C-8.16325333 3.44208199 -8.16325333 3.44208199 -7.61157227 2.36515808 C-5.17404702 -0.02114587 -3.32448775 0.02571372 0 0 Z " fill="#94D5A3" transform="translate(361.7040100097656,425.5023193359375)"/>
<path d="M0 0 C-0.49371094 0.96421875 -0.98742187 1.9284375 -1.49609375 2.921875 C-2.14344237 4.19780852 -2.79056599 5.47385621 -3.4375 6.75 C-3.92573242 7.70132812 -3.92573242 7.70132812 -4.42382812 8.671875 C-8.742658 17.22048671 -10.21170385 28.61673183 -7.40673828 37.98046875 C-6.26529991 40.73365692 -4.84423182 43.25961364 -3.3125 45.8125 C-2 48 -2 48 -2 50 C-30.71 50 -59.42 50 -89 50 C-80.01966981 29.04589621 -57.55166663 20.1082316 -37.60229492 12.11328125 C-29.41911064 8.89000035 -21.19634347 5.77397587 -12.9375 2.75 C-11.86701416 2.35490234 -10.79652832 1.95980469 -9.69360352 1.55273438 C-8.71061279 1.20017578 -7.72762207 0.84761719 -6.71484375 0.484375 C-5.84980225 0.17209961 -4.98476074 -0.14017578 -4.09350586 -0.46191406 C-2 -1 -2 -1 0 0 Z " fill="#F6F3F6" transform="translate(327,447)"/>
<path d="M0 0 C0.66 0.33 1.32 0.66 2 1 C1.53335938 1.35707031 1.06671875 1.71414063 0.5859375 2.08203125 C-1.66642255 4.80594451 -1.81471724 7.20574285 -2.375 10.6875 C-2.62370188 12.14497733 -2.8751791 13.60198284 -3.12890625 15.05859375 C-3.26570801 15.85249512 -3.40250977 16.64639648 -3.54345703 17.46435547 C-4.37421625 22.07840108 -5.34889242 26.66220127 -6.3125 31.25 C-6.52011963 32.25313232 -6.72773926 33.25626465 -6.94165039 34.28979492 C-8.11861588 39.94284256 -9.35453747 45.5774368 -10.65625 51.203125 C-14.62013162 68.52182928 -16.20874769 81.35188768 -13 99 C6.8 99 26.6 99 47 99 C47 99.33 47 99.66 47 100 C36.70753901 100.09286336 26.41517843 100.16384779 16.12238312 100.20724869 C11.34250543 100.22808372 6.56291533 100.2563264 1.78320312 100.30175781 C-2.833367 100.34536171 -7.44966128 100.36916781 -12.06642151 100.37950897 C-13.82382039 100.38687431 -15.58120493 100.40125706 -17.33848572 100.42292023 C-19.80866594 100.45214838 -22.27772033 100.45594804 -24.74804688 100.45410156 C-25.46734375 100.46848267 -26.18664062 100.48286377 -26.92773438 100.49768066 C-32.8699376 100.44992051 -38.14593005 98.69358593 -42.53368378 94.55255508 C-47.18209202 89.17208646 -48.53810765 85.01501855 -48.47265625 78.01171875 C-47.77366711 73.55782924 -45.58964631 70.32665665 -43.28125 66.515625 C-41.99728905 63.99467728 -41.61200722 62.76668861 -41.9375 60 C-42.94273318 57.16169456 -43.60434249 55.77070338 -46 54 C-45.34 54 -44.68 54 -44 54 C-43.731875 53.154375 -43.46375 52.30875 -43.1875 51.4375 C-41.9521405 47.86145933 -40.523012 44.46139092 -39 41 C-38.34 41.33 -37.68 41.66 -37 42 C-32.73449349 42.48565915 -32.73449349 42.48565915 -29.1015625 40.5078125 C-26.26615806 37.12430013 -24.32001899 33.44767928 -22.25 29.5625 C-21.36520249 27.94295931 -20.47846618 26.32447641 -19.58984375 24.70703125 C-19.15269043 23.90990723 -18.71553711 23.1127832 -18.26513672 22.29150391 C-8.22987491 4.11493745 -8.22987491 4.11493745 0 0 Z " fill="#93D2A1" transform="translate(391,311)"/>
<path d="M0 0 C-2.65810637 2.07620065 -5.30312024 3.79117005 -8.2890625 5.35546875 C-9.13509033 5.80470703 -9.98111816 6.25394531 -10.8527832 6.71679688 C-11.76761475 7.20212891 -12.68244629 7.68746094 -13.625 8.1875 C-41.11106395 22.99673214 -66.73827018 40.16537222 -90.5625 60.3125 C-91.13444092 60.79203125 -91.70638184 61.2715625 -92.2956543 61.765625 C-95.95907032 64.90460897 -99.20931504 68.04741388 -102 72 C-102.10148825 74.21369669 -102.10148825 74.21369669 -101.3125 76.25 C-100.70806327 79.56027969 -100.88723279 80.77932886 -102.44921875 83.8359375 C-107.50339222 90.70961342 -107.50339222 90.70961342 -111.09375 91.40625 C-113 91.125 -113 91.125 -116 90 C-114.62023314 82.68420318 -112.27211013 76.15927529 -109.375 69.3125 C-108.92914551 68.25393799 -108.48329102 67.19537598 -108.02392578 66.10473633 C-97.56974029 41.71599121 -81.86758412 20.97485656 -59.37109375 6.53125 C-57.13463892 5.20477153 -57.13463892 5.20477153 -56 4 C-51.17546486 3.13143369 -46.29991521 2.55600096 -41.4375 1.9375 C-40.72102295 1.84529175 -40.0045459 1.7530835 -39.26635742 1.65808105 C-26.1477378 -0.00247584 -13.22475 -0.49516633 0 0 Z " fill="#F6F3F6" transform="translate(257,15)"/>
<path d="M0 0 C1.56220024 0.01332367 1.56220024 0.01332367 3.15596008 0.0269165 C4.92745674 0.02736969 4.92745674 0.02736969 6.73474121 0.02783203 C8.00981033 0.04847717 9.28487946 0.06912231 10.59858704 0.09039307 C12.55656975 0.09888275 12.55656975 0.09888275 14.55410767 0.10754395 C18.02155775 0.12280415 21.48833578 0.16208775 24.95552063 0.20635986 C28.49465341 0.24730516 32.03389496 0.26555328 35.57319641 0.28570557 C42.51555734 0.32858292 49.45736135 0.39893512 56.39936829 0.48101807 C58.37936829 4.11101807 60.35936829 7.74101807 62.39936829 11.48101807 C59.89002529 12.73568956 58.11559474 12.63975365 55.30708313 12.68634033 C53.71565994 12.71625816 53.71565994 12.71625816 52.09208679 12.7467804 C50.94309906 12.76349289 49.79411133 12.78020538 48.61030579 12.79742432 C46.84996506 12.82859596 46.84996506 12.82859596 45.05406189 12.86039734 C41.29422524 12.9259379 37.53431706 12.98479883 33.77436829 13.04351807 C31.23008997 13.08669899 28.68581896 13.13031314 26.14155579 13.17437744 C19.89423622 13.28162388 13.64684503 13.38338187 7.39936829 13.48101807 C6.89922131 16.02173453 6.40536867 18.56341334 5.91499329 21.10601807 C5.70350647 22.17529541 5.70350647 22.17529541 5.48774719 23.26617432 C3.81676979 31.99127789 4.29590936 39.65334663 5.39936829 48.48101807 C23.21936829 48.48101807 41.03936829 48.48101807 59.39936829 48.48101807 C59.39936829 48.81101807 59.39936829 49.14101807 59.39936829 49.48101807 C50.80190587 49.59720142 42.204775 49.68587859 33.60671997 49.74007893 C29.61365399 49.76610114 25.62112765 49.80136182 21.62837219 49.85821533 C17.77038825 49.91280196 13.9129212 49.94249401 10.05458069 49.95540428 C8.58741628 49.96459677 7.1202781 49.9825476 5.65333557 50.00966835 C-8.16926061 50.25490549 -8.16926061 50.25490549 -14.1492157 45.9360199 C-17.83265592 42.2434795 -19.47210644 38.37213522 -19.82255554 33.21563721 C-19.57814188 29.10255054 -18.68432277 27.01267473 -16.64360046 23.46929932 C-16.025495 22.3819751 -15.40738953 21.29465088 -14.77055359 20.17437744 C-14.11635437 19.05869385 -13.46215515 17.94301025 -12.78813171 16.79351807 C-11.82423523 15.10259033 -11.82423523 15.10259033 -10.84086609 13.37750244 C-9.12572936 10.38978758 -7.40808226 7.41381625 -5.60063171 4.48101807 C-4.98593018 3.42345558 -4.98593018 3.42345558 -4.35881042 2.3445282 C-2.60063171 0.48101807 -2.60063171 0.48101807 0 0 Z " fill="#91CF9E" transform="translate(129.6006317138672,244.51898193359375)"/>
<path d="M0 0 C0.81342865 0.01239716 1.6268573 0.02479431 2.4649353 0.03756714 C17.48430645 0.34385637 17.48430645 0.34385637 22.6796875 5.59765625 C26.47376702 11.02456132 28.1201635 16.27883216 27.98046875 22.87109375 C26.92163793 26.48012986 26.21423861 27.11926113 23.0625 29 C20.86878967 29.39440918 20.86878967 29.39440918 18.46508789 29.41992188 C17.10831688 29.44378967 17.10831688 29.44378967 15.72413635 29.46813965 C14.75427292 29.46834106 13.78440948 29.46854248 12.78515625 29.46875 C11.27990639 29.48017029 11.27990639 29.48017029 9.74424744 29.49182129 C7.62355028 29.50261894 5.50279995 29.50547676 3.38208008 29.50097656 C0.13988442 29.50000446 -3.09994303 29.54162634 -6.34179688 29.5859375 C-8.4036409 29.59114476 -10.46549315 29.59383269 -12.52734375 29.59375 C-13.49518295 29.61014526 -14.46302216 29.62654053 -15.46018982 29.64343262 C-19.96115134 29.59728863 -22.30923301 29.41053842 -26.15063477 26.90039062 C-27.9375 24 -27.9375 24 -27.96508789 20.67578125 C-23.45741787 4.5514097 -16.58531082 -0.71205908 0 0 Z " fill="#B1E39E" transform="translate(360.9375,119)"/>
<path d="M0 0 C4.70850247 1.20217084 6.35688034 4.83399406 8.8762207 8.80859375 C10.63825748 11.8048573 12.3945524 14.80377634 14.13012695 17.81542969 C15.25127379 19.75220045 16.39198482 21.6765687 17.53320312 23.6015625 C18.24863547 24.83782511 18.96287055 26.07478153 19.67578125 27.3125 C20.32587158 28.42753906 20.97596191 29.54257813 21.64575195 30.69140625 C23.06017833 34.04047706 23.19297983 35.38331713 21.9375 38.75 C19.28507978 41.40242022 17.2990268 41.01004263 13.68922424 41.05354309 C12.83400681 41.05263168 11.97878937 41.05172028 11.09765625 41.05078125 C9.78081093 41.05720894 9.78081093 41.05720894 8.43736267 41.06376648 C6.57877465 41.069515 4.72016413 41.07000621 2.86157227 41.06567383 C0.01474668 41.06251636 -2.83103757 41.08595737 -5.67773438 41.11132812 C-7.48176952 41.11360128 -9.28580746 41.11430454 -11.08984375 41.11328125 C-11.94303696 41.122491 -12.79623016 41.13170074 -13.67527771 41.14118958 C-19.6126972 41.09462025 -19.6126972 41.09462025 -21.81916809 39.40411377 C-23.0625 37.75 -23.0625 37.75 -22.93652344 34.91186523 C-22.02289731 31.60673341 -20.82079237 29.10812596 -19.078125 26.16015625 C-18.47226562 25.12826172 -17.86640625 24.09636719 -17.2421875 23.03320312 C-16.60539062 21.97037109 -15.96859375 20.90753906 -15.3125 19.8125 C-14.69117188 18.75353516 -14.06984375 17.69457031 -13.4296875 16.60351562 C-4.221988 1.03395625 -4.221988 1.03395625 0 0 Z " fill="#B1E39D" transform="translate(361.0625,65.25)"/>
<path d="M0 0 C0.33 0 0.66 0 1 0 C0.38528565 5.37950021 -0.46128258 10.6408916 -1.59375 15.9375 C-1.74533569 16.66187256 -1.89692139 17.38624512 -2.05310059 18.13256836 C-2.69355666 21.19258012 -3.34148985 24.25099598 -3.98876953 27.30957031 C-4.4638826 29.56000496 -4.93513735 31.81122506 -5.40625 34.0625 C-5.62347717 35.07848267 -5.62347717 35.07848267 -5.84509277 36.11499023 C-7.13117409 42.26410203 -8.14397407 48.41952617 -8.09765625 54.71875 C-8.09282227 55.89824219 -8.09282227 55.89824219 -8.08789062 57.1015625 C-8.07951172 57.89304688 -8.07113281 58.68453125 -8.0625 59.5 C-8.05798828 60.32242188 -8.05347656 61.14484375 -8.04882812 61.9921875 C-8.03718489 63.99482396 -8.01925556 65.99742227 -8 68 C-10.39652528 68.08139142 -12.79025436 68.14067009 -15.1875 68.1875 C-15.86103516 68.21263672 -16.53457031 68.23777344 -17.22851562 68.26367188 C-21.70710399 68.32921219 -24.4566853 67.76821461 -28 65 C-30.77047567 60.79651967 -31.9554808 56.96195346 -31 52 C-29.29413386 48.02519636 -27.12794267 44.34985414 -24.9375 40.625 C-24.31713867 39.54532959 -23.69677734 38.46565918 -23.05761719 37.35327148 C-21.05793223 33.89033531 -19.03314284 30.44333138 -17 27 C-16.29893205 25.80846561 -15.59792308 24.6168965 -14.89697266 23.42529297 C-11.61978387 17.86251533 -8.31806608 12.31427046 -4.984375 6.78515625 C-4.45553711 5.90738525 -3.92669922 5.02961426 -3.38183594 4.12524414 C-2 2 -2 2 0 0 Z " fill="#93D3A1" transform="translate(149,162)"/>
<path d="M0 0 C1.69306296 0.07534446 3.38644887 0.14376806 5.08007812 0.20507812 C9.20726517 0.36947244 13.31880035 0.6274288 17.4375 0.9375 C18.0975 2.5875 18.7575 4.2375 19.4375 5.9375 C8.5475 5.9375 -2.3425 5.9375 -13.5625 5.9375 C-14.2225 13.1975 -14.8825 20.4575 -15.5625 27.9375 C-23.5625 27.9375 -23.5625 27.9375 -26.625 25.875 C-28.5625 22.9375 -28.5625 22.9375 -28.39624023 19.74633789 C-24.6363548 2.56977196 -16.62060329 -1.28898445 0 0 Z " fill="#8ECC9C" transform="translate(361.5625,120.0625)"/>
<path d="M0 0 C0.95390625 0.00580078 1.9078125 0.01160156 2.890625 0.01757812 C4.30988281 -0.04913086 4.30988281 -0.04913086 5.7578125 -0.1171875 C12.49954676 -0.14085932 12.49954676 -0.14085932 15.32910156 2.56298828 C16.71177557 4.64751029 17.77668187 6.43908997 18.515625 8.83007812 C18.185625 9.82007812 17.855625 10.81007813 17.515625 11.83007812 C7.945625 11.83007812 -1.624375 11.83007812 -11.484375 11.83007812 C-10.00505659 2.95416769 -9.03470213 0.19723645 0 0 Z " fill="#B1E29D" transform="translate(112.484375,59.169921875)"/>
<path d="M0 0 C0.66 0 1.32 0 2 0 C3.67703806 2.93169446 5.33979518 5.87124524 7 8.8125 C7.47695312 9.64587891 7.95390625 10.47925781 8.4453125 11.33789062 C8.89648438 12.14033203 9.34765625 12.94277344 9.8125 13.76953125 C10.23144531 14.50792236 10.65039062 15.24631348 11.08203125 16.00708008 C12 18 12 18 12 21 C4.41 21 -3.18 21 -11 21 C-10.19016861 16.95084306 -9.81191285 15.26747906 -7.78515625 12.01171875 C-7.34623047 11.30595703 -6.90730469 10.60019531 -6.45507812 9.87304688 C-5.99552734 9.15181641 -5.53597656 8.43058594 -5.0625 7.6875 C-4.60681641 6.94693359 -4.15113281 6.20636719 -3.68164062 5.44335938 C-1.13160599 1.39242588 -1.13160599 1.39242588 0 0 Z " fill="#AFE09C" transform="translate(115,24)"/>
<path d="M0 0 C0.33 0 0.66 0 1 0 C1.22079066 5.44142138 0.44472655 10.0033879 -0.9375 15.25 C-2.58773721 21.82727153 -3.7064186 28.20359052 -4 35 C-5.43655854 35.08131463 -6.8744483 35.13933559 -8.3125 35.1875 C-9.51326172 35.23970703 -9.51326172 35.23970703 -10.73828125 35.29296875 C-13 35 -13 35 -14.85546875 33.86328125 C-16.59769574 31.02695949 -15.75122881 29.17783421 -15 26 C-13.6171875 23.14746094 -13.6171875 23.14746094 -11.875 20.234375 C-11.25109375 19.17992188 -10.6271875 18.12546875 -9.984375 17.0390625 C-9.32953125 15.95367187 -8.6746875 14.86828125 -8 13.75 C-6.70813512 11.5782429 -5.41645868 9.40637368 -4.125 7.234375 C-3.55007813 6.27756836 -2.97515625 5.32076172 -2.3828125 4.33496094 C-1.54259247 2.91619957 -0.7374081 1.4748162 0 0 Z " fill="#91D09F" transform="translate(354,71)"/>
<path d="M0 0 C1.76732001 4.41830002 0.5154198 5.6960307 -1 11 C5.27 11 11.54 11 18 11 C18 11.33 18 11.66 18 12 C10.41 12 2.82 12 -5 12 C-3.97038242 6.85191212 -2.65675751 4.37079462 0 0 Z " fill="#75A379" transform="translate(109,33)"/>
<path d="M0 0 C0.66 0 1.32 0 2 0 C1.67 3.63 1.34 7.26 1 11 C-0.65 11 -2.3 11 -4 11 C-3.49357808 6.64477147 -2.61588503 3.55760365 0 0 Z " fill="#91CF9F" transform="translate(105,60)"/>
</svg>
